<?xml version="1.0" encoding="utf-8"?>
<!-- Generator: Adobe Illustrator 19.1.1, SVG Export Plug-In . SVG Version: 6.00 Build 0)  -->
<svg version="1.1"  xmlns="http://www.w3.org/2000/svg" xmlns:xlink="http://www.w3.org/1999/xlink" x="0px" y="0px"
	 viewBox="0 0 48 48" enable-background="new 0 0 48 48" xml:space="preserve">
<path fill="none" stroke="#C5CAE9" stroke-width="2" stroke-miterlimit="10" d="M40,20v13.3c0,2-1.6,3.7-3.7,3.7H26"/>
<path fill="#546E7A" d="M26,42H14c-1.6,0-3-1.3-3-3v-7c0-1.6,1.4-3,3-3h12c1.6,0,3,1.4,3,3v7C29,40.7,27.6,42,26,42z"/>
<circle fill="#FF3D00" cx="20" cy="21" r="15"/>
<path fill="#DD2C00" d="M20,32c-8,0-14.5-5.8-15-11.8c0,0.3,0,0.6,0,0.8c0,8.3,6.7,15,15,15s15-6.7,15-15c0-0.3,0-0.6,0-0.8
	C34.5,26.2,28,32,20,32z"/>
<path fill="#37474F" d="M11,33v2.4c2.6,1.6,5.7,2.6,9,2.6s6.4-1,9-2.6V33c-2.5,1.9-5.6,3-9,3S13.5,34.9,11,33z"/>
<circle fill="#C5CAE9" cx="20" cy="21" r="6"/>
<circle fill="#7986CB" cx="20" cy="21" r="2"/>
<circle fill="#9FA8DA" cx="40" cy="20" r="3"/>
</svg>
