<?xml version="1.0" standalone="no"?>
<!DOCTYPE svg PUBLIC "-//W3C//DTD SVG 20010904//EN"
 "http://www.w3.org/TR/2001/REC-SVG-20010904/DTD/svg10.dtd">
<svg version="1.0" xmlns="http://www.w3.org/2000/svg"
 width="1280.000000pt" height="1055.000000pt" viewBox="0 0 1280.000000 1055.000000"
 preserveAspectRatio="xMidYMid meet">
<g transform="translate(0.000000,1055.000000) scale(0.100000,-0.100000)"
fill="#000000" stroke="none">
<path d="M6620 10539 c-47 -5 -107 -13 -133 -19 -34 -7 -93 -7 -190 1 -427 34
-912 -48 -1232 -208 -49 -25 -92 -47 -94 -49 -2 -2 38 -1 90 2 l94 7 -78 -42
c-107 -56 -244 -148 -356 -240 -102 -82 -324 -291 -317 -298 2 -2 37 12 77 32
l74 37 -51 -54 c-157 -165 -283 -344 -373 -530 -70 -144 -86 -190 -105 -301
-35 -202 -41 -328 -41 -892 1 -585 8 -752 47 -1005 14 -99 18 -160 14 -229 -3
-52 -7 -95 -8 -97 -2 -1 -22 2 -44 8 -61 17 -101 -3 -127 -61 -34 -77 -17
-188 83 -531 21 -73 35 -153 46 -264 12 -132 19 -167 41 -210 24 -47 26 -61
26 -171 0 -66 -1 -169 -4 -230 -3 -96 -1 -116 18 -157 25 -56 64 -83 143 -99
92 -19 118 -29 179 -70 58 -38 60 -42 87 -122 31 -96 108 -262 159 -346 64
-106 105 -383 105 -711 0 -367 -69 -729 -188 -992 l-31 -68 -54 0 c-52 0 -55
2 -68 31 -21 52 -108 133 -179 167 -112 53 -286 60 -377 16 -24 -12 -53 -41
-82 -83 -54 -78 -79 -90 -261 -125 -143 -28 -246 -69 -309 -122 -50 -42 -105
-133 -127 -209 l-19 -67 -100 -50 c-262 -131 -555 -327 -689 -461 -115 -116
-148 -185 -166 -349 -18 -166 -82 -272 -196 -324 -42 -20 -82 -26 -255 -38
-112 -8 -231 -22 -264 -31 -244 -62 -899 -515 -1300 -898 l-90 -86 6400 0
6400 -1 -220 218 c-234 231 -314 298 -436 362 -59 30 -80 47 -90 71 -20 50
-102 168 -158 231 -29 32 -89 82 -134 111 -174 115 -319 148 -711 163 l-178 7
6 43 c13 101 -38 236 -135 350 -27 32 -105 111 -174 174 -144 134 -206 203
-242 274 -24 45 -28 67 -33 186 -12 234 -47 282 -264 356 -82 28 -127 50 -175
87 -117 89 -182 105 -331 82 -135 -20 -191 -19 -329 5 -155 27 -241 25 -370
-10 -49 -13 -107 -61 -125 -103 -12 -30 -12 -30 -53 74 -74 190 -128 410 -159
654 -31 247 -17 681 30 903 9 41 48 139 104 257 84 176 133 311 148 407 6 38
9 40 108 88 152 74 176 124 176 354 0 78 4 167 10 197 5 30 11 63 13 74 1 11
12 40 24 65 12 25 33 110 47 190 14 80 43 198 66 264 101 302 114 531 31 576
-45 24 -126 -1 -201 -60 -21 -16 -47 -30 -59 -30 -12 0 -21 1 -21 3 0 1 9 47
19 102 25 127 76 454 95 610 24 186 34 349 41 615 4 135 10 322 14 415 14 323
-12 520 -93 706 -122 282 -397 616 -678 821 -38 27 -68 51 -68 53 0 6 199 -64
232 -81 136 -70 -298 238 -464 330 -38 21 -68 39 -68 40 0 2 48 -5 107 -15 59
-10 108 -17 110 -15 6 6 -243 114 -367 159 -207 75 -397 124 -610 158 -145 23
-478 33 -610 18z"/>
</g>
</svg>
