<svg id="Ebene_1" data-name="Ebene 1" xmlns="http://www.w3.org/2000/svg" xmlns:xlink="http://www.w3.org/1999/xlink" width="500" height="500" viewBox="0 0 500 500"><defs><style>.cls-1{fill:#040404;}.cls-2{fill:#474449;}.cls-3{fill:#f49503;}.cls-4{fill:#fff;}.cls-5{fill:#764d26;}.cls-6{fill:#193f73;}.cls-7{fill:#ee771e;}.cls-8{fill:#603b13;}.cls-9{fill:#774d26;}.cls-10{fill:#e84332;}.cls-11{fill:#e84432;}.cls-12{fill:#583917;}.cls-13{fill:#f9b034;}.cls-14{fill:#1e2748;}.cls-15{fill:#f8ae34;}.cls-16{fill:#e5e7e8;}.cls-17{fill:#f9af34;}.cls-18{fill:#f9ae34;}.cls-19{fill:#623f17;}.cls-20{fill:#613f17;}.cls-21{fill:#f8ad34;}.cls-22{fill:#e5e6e7;}.cls-23{fill:#3d2516;}.cls-24{fill:#e4e5e6;}.cls-25{fill:#3e2616;}.cls-26{fill:#ee781e;}.cls-27{fill:#ee781d;}.cls-28{fill:#e64431;}.cls-29{fill:#e84632;}.cls-30{fill:#eaf1f8;}.cls-31{fill:url(#Unbenannter_Verlauf);}.cls-32{fill:url(#Unbenannter_Verlauf_2);}.cls-33{fill:#e64831;}.cls-34{fill:#a4a6a9;}.cls-35{fill:#e84732;}.cls-36{fill:#e94933;}.cls-37{fill:#ed771d;}.cls-38{fill:#e44431;}.cls-39{fill:#f8ac34;}.cls-40{fill:#ec6735;}.cls-41{fill:#f39336;}.cls-42{fill:#ed781d;}.cls-43{fill:#e64931;}.cls-44{fill:#e3721c;}.cls-45{fill:#ee7535;}.cls-46{fill:#e64631;}.cls-47{fill:#e34330;}.cls-48{fill:#db442e;}.cls-49{fill:#e4e5e5;}.cls-50{fill:#e7e8e9;}.cls-51{fill:#593a1c;}.cls-52{fill:#e75432;}.cls-53{fill:#ea5834;}.cls-54{fill:#5c3b1e;}.cls-55{fill:#ac6816;}.cls-56{fill:#050505;}.cls-57{fill:#0f0a05;}.cls-58{fill:#110b06;}.cls-59{fill:#0658a3;}.cls-60{fill:#060504;}.cls-61{fill:#201303;}.cls-62{fill:#1f1303;}.cls-63{fill:#e8eaeb;}.cls-64{fill:#e94732;}.cls-65{fill:#f8aa35;}.cls-66{fill:#f8aa34;}.cls-67{fill:#f8a935;}.cls-68{fill:#e94a33;}.cls-69{fill:#f7a535;}.cls-70{fill:#f7a935;}.cls-71{fill:#f8a934;}.cls-72{fill:#f7a835;}.cls-73{fill:#e95033;}.cls-74{fill:#ea5734;}.cls-75{fill:#ea5334;}.cls-76{fill:#ec6435;}.cls-77{fill:#ed6c35;}.cls-78{fill:#e84232;}.cls-79{fill:#ea5433;}.cls-80{fill:#e94e33;}.cls-81{fill:#ea5534;}.cls-82{fill:#ea5333;}.cls-83{fill:#e94d33;}.cls-84{fill:#e94f33;}.cls-85{fill:#eb5934;}.cls-86{fill:#eb5b34;}.cls-87{fill:#eb5f34;}.cls-88{fill:#f07f34;}.cls-89{fill:#ec6335;}.cls-90{fill:#ed6b35;}.cls-91{fill:#ee7035;}.cls-92{fill:#eb6034;}.cls-93{fill:#f28e35;}.cls-94{fill:#f49735;}.cls-95{fill:#e84532;}.cls-96{fill:#e94b33;}.cls-97{fill:#f7a435;}.cls-98{fill:#ec6134;}.cls-99{fill:#ea5434;}.cls-100{fill:#ec6135;}.cls-101{fill:#eb5a34;}.cls-102{fill:#e94833;}.cls-103{fill:#ec6835;}.cls-104{fill:#f6a135;}.cls-105{fill:#ea5033;}.cls-106{fill:#ea5233;}.cls-107{fill:#f6a435;}.cls-108{fill:#eb5e34;}.cls-109{fill:#f08135;}.cls-110{fill:#ed6d35;}.cls-111{fill:#ec6635;}.cls-112{fill:#f08236;}.cls-113{fill:#e95034;}.cls-114{fill:#e94c33;}.cls-115{fill:#ea5234;}.cls-116{fill:#ec6234;}.cls-117{fill:#eb5d34;}.cls-118{fill:#ea5133;}.cls-119{fill:#f59e35;}.cls-120{fill:#ef7735;}.cls-121{fill:#ed6a35;}.cls-122{fill:#ed6e35;}.cls-123{fill:#f8ab34;}.cls-124{fill:#ea5634;}.cls-125{fill:#ec6535;}.cls-126{fill:#ef7b35;}.cls-127{fill:#f6a035;}.cls-128{fill:#e84633;}.cls-129{fill:#0a0b0c;}.cls-130{fill:#eb5c34;}</style><linearGradient id="Unbenannter_Verlauf" x1="225.6385" y1="353.6891" x2="225.6385" y2="-36.2094" gradientTransform="matrix(1, 0, 0, -1, -24.8706, 417.6013)" gradientUnits="userSpaceOnUse"><stop offset="0" stop-color="#eaf1f8"/><stop offset="1" stop-color="#0554a0"/></linearGradient><linearGradient id="Unbenannter_Verlauf_2" x1="418.4403" y1="355.1956" x2="418.4403" y2="34.6132" gradientTransform="matrix(1, 0, 0, -1, -24.8706, 417.6013)" gradientUnits="userSpaceOnUse"><stop offset="0" stop-color="#eaf1f8"/><stop offset="1" stop-color="#4370b1"/></linearGradient></defs><title>calico</title><g id="B99T47.tif"><path class="cls-1" d="M307.7013,17.8223h2.1053c2.3368,1.1508,4.8255.2695,7.2278,0.5414,6.3864-.3268,10.4882,3.2879,13.7715,8.1415a55.6774,55.6774,0,0,1,7.5519,17.8335,9.1789,9.1789,0,0,0,5.428,6.4859c37.8534,18.6514,68.2536,45.6216,90.6192,81.5334a213.35,213.35,0,0,1,31.72,94.3017,218.9289,218.9289,0,0,1-9.2968,87.71c-1.9668,6.1718-1.92,6.0737,3.6071,9.4062,16.9452,10.2184,28.3279,24.783,33.92,43.8105,1.3863,4.7176.6586,9.6947,1.7684,14.4463v11.579a63.4953,63.4953,0,0,1-12.3133,35.6195c-14.4937,19.4981-33.4189,30.6938-58.4064,31.1929-22.294.4457-40.6449-7.4011-55.8316-23.42-4.4544-4.6984-4.5263-4.5653-10.1235-1.329-26.1158,15.1015-53.911,25.4076-84.101,28.1032-42.8211,3.8233-84.3726-.8613-123.2125-20.7216a226.2053,226.2053,0,0,1-50.4439-34.8576A217.92,217.92,0,0,1,40.8073,312.7c-5.6659-17.6316-8.8105-35.6807-8.3542-54.2722q0-3.5138,0-7.0226,0.0005-4.04,0-8.0767,0.0007-3.5007,0-7.0009c-0.3807-38.9737,12.3983-73.9462,32.9246-106.3894,21.2925-33.6535,50.0912-59.209,85.5083-77.313a11.3509,11.3509,0,0,0,6.4514-7.7263A48.871,48.871,0,0,1,163.303,30.371c6.2537-9.8067,14.7252-13.3579,26.1316-10.9,6.9851,1.5053,13.1417,4.877,18.8211,9.0436A14.3967,14.3967,0,0,0,219.47,31.4086a223.1421,223.1421,0,0,1,30.86-2.3517,235.1188,235.1188,0,0,1,23.5392,1.7457c4.0316,0.4378,7.4457.0377,10.7986-2.6062C291.4388,22.8577,298.8094,18.5789,307.7013,17.8223Z"/><path class="cls-2" d="M317.175,17.8223a1.1545,1.1545,0,0,0,.1612.9618c-2.5368-.1094-5.2012.7789-7.53-0.9618h7.3684Z"/><path class="cls-3" d="M156.2587,259.9418l1.1225-4.2486c1.7666-1.4249,3.6615-.703,5.4737-0.2226,5.3254,1.4118,10.7774,2.2548,14.8385,3.4406,1.9552,0.34,1.5854-.87,1.5648-0.1684-0.0086.2966-.1474,0.4442-0.3789,0.3512A54.3384,54.3384,0,0,1,160.33,247.2721c-0.2451-1.5968.6151-2.8672,1.2421-4.2062,3.9955-1.4541,7.3351,1.2964,11.038,1.7613a48.6087,48.6087,0,0,1,6.6392,1.6723,133.1046,133.1046,0,0,1-12.3673-9.0864c-1.2865-1.0131-2.2842-2.2088-1.4535-4.024,1.3146-3.9418,2.2747-8.0559,5.4046-11.115,1.5513,0.0159,2.5745,1.0211,3.5474,2.0087,7.6325,7.7537,16.89,12.8737,26.9238,16.7771,1.9158,0.7453,4.0947,1.1684,5.2152,3.2376-12.1368,24.4973-17.4032,49.9572-8.0776,76.47,8.5446,24.2928,26.6105,34.7982,47.9887,34.4669,23.3236-.3616,40.4728-13.9528,47.4516-36.7619,7.0806-23.1417,3.5263-45.593-5.7078-67.46-0.8124-1.9239-1.6747-3.8266-2.5138-5.7393,1.6084-2.4061,4.3819-2.6632,6.76-3.6055a93.3671,93.3671,0,0,0,23.63-13.0648c1.6048-1.26,3.1149-2.8473,5.3981-2.9158,6.2905,5.15,6.4942,10.5939.5506,15.489a53.689,53.689,0,0,0-5.1,4.63,49.516,49.516,0,0,0,8.2194-2.2235c2.1227-.6446,4.2934-0.8383,5.5388,1.4974,1.27,2.3824-.3152,3.9895-1.9368,5.4135-1.5806,1.3885-3.3243,2.5806-4.9972,3.8577-1.4842,1.1333-3.0028,2.224-5.0526,3.838,4.3761-.7053,7.84-1.8242,11.3579-2.7136,1.9287-.4876,3.8808-0.9027,4.9526,1.4794a4.1845,4.1845,0,0,1-1.2265,5.2145c-2.0906,1.8724-4.2842,3.6245-6.5144,5.329s-4.4956,3.361-7.6608,5.7515c5.4737-1.5021,10.0387-2.3024,14.3886-3.8421,3.5381-1.2526,5.3436.0211,6.1983,3.3646,3.8042,14.88,5.8511,29.9419,4.3112,45.3158a87.619,87.619,0,0,1-3.2587,17.55c-2.0115,6.4259-3.5747,7.3183-9.9386,5.34-1.8421-.5727-3.6672-1.1991-5.7913-1.9487,1.8978,2.9823,4.7658,4.51,7.0281,6.6649,2.085,1.986,3.3263,4.286,1.4675,6.9768-1.979,2.8643-4.3857,1.2509-6.5091.1189-3.6731-1.9579-7.0907-4.3754-11.1246-6.5039a112.5089,112.5089,0,0,0,9.006,12.0792c1.3137,1.4918,2.7167,3.2963,1.5844,5.188-3.1174,5.2082-6.5145,10.2688-12.8361,12.1551,0.6093-3.5562,1.329-7.0985,1.7832-10.6745,0.2421-1.9075,1.202-4.4609-1.7963-5.1247-3.0534-.676-3.1563,1.8126-3.5426,3.8582-0.288,1.5249-.6379,3.0382-0.96,4.5566-12.3726-1.67-24.826-1.5579-37.2689-1.7313a7.2415,7.2415,0,0,1-5.5481-2.4622c-0.3464-2.134-.7505-4.5407-3.6507-3.8895-2.4363.5474-1.9692,2.9134-1.9456,4.795a11.3888,11.3888,0,0,0,.1782,2.0786c1.5628,7.8249,1.8852,14.7563-6.7139,19.62-4.2958,2.43-4.9454,8.1073-4.8374,13.1612-1.8842,1.0955-3.7279,2.0437-4.3853-1.2316a19.2505,19.2505,0,0,0-10.764-16.6993c-2.3433-1.2346-2.4762-2.5187-2.0294-4.9134,0.7933-4.252.9771-8.62,1.373-12.9428,0.1474-1.6105.0526-3.3291-1.7931-3.8714-2.1116-.62-3.2321.6407-3.6868,2.6105-1.8011,2.9158-4.8705,3.4609-7.7975,3.6114-11.6755.6-23.414-.0857-35.03,1.7605-0.4118-1.8655-.8676-3.7227-1.2226-5.599-0.3332-1.7605-1.1383-2.9263-3.1074-2.8073-2.2466.1359-2.3664,1.7848-2.2093,3.409a112.0415,112.0415,0,0,0,3.9337,19.4514,3.792,3.792,0,0,1-.068,3.2958c-15.9763-12.1165-26.0512-28.0393-31.0642-47.1731-5.9957-22.8842-3.919-45.6888,1.4806-68.3755a4.3954,4.3954,0,0,1,4.433-.8323c6.0782,1.618,12.3185,2.5224,17.7176,3.9525C169.5322,269.2585,161.6226,266.4343,156.2587,259.9418Z"/><path class="cls-4" d="M279.2609,247.0554c12.1779,23.3732,16.9954,47.6141,7.5338,73.1015-6.8166,18.3624-21.6546,29.0866-40.1263,29.1684-19.4613.0867-33.7215-8.98-41.0517-26.9614-10.7948-26.4807-6.2086-51.9121,7.3235-76.2767,2.0088-1.2046,4.0931-.5541,6.1146-0.1449a138.5445,138.5445,0,0,0,53.561.6638C274.8712,246.1824,277.1125,245.9185,279.2609,247.0554Z"/><path class="cls-5" d="M146.6034,119.902c12.1773-21.4257,30.9822-34.63,53.5217-43.2524,11.6641-4.4621,23.83-6.6167,36.135-8.2285,3.9369-.5158,5.6729.4464,6.4395,5.0343,1.7344,10.3815,1.8705,20.8593,2.5368,31.2688,0.3594,5.6123-.58,11.4712-0.7769,17.2281-2.2339.1829-2.1553-1.9061-3.0322-3.0632-6.4455-20.27-33.8769-21.3843-45.4909-6.8459-6.45,8.0747-6.2812,18.9213,1.0386,26.2316,12.4281,12.4116,35.1957,8.524,42.9206-7.338A10.514,10.514,0,0,1,242.01,127.34a1.252,1.252,0,0,1,1.4747-.0433c-0.0555,8.26-1.7759,16.2892-3.71,24.2421-1.3116,5.3936-6.7146,6.8818-10.8536,8.1315-6.7895,2.05-14.0438,2.65-20.6421,5.5455-2.58,1.1318-4.72.2693-6.9931-.6355-6.9814-2.7789-13.9547-5.579-20.97-8.2685-1.7045-.6535-4.1175-1.784-4.9506.6863-0.8453,2.5063,1.9016,2.9808,3.56,3.6591,6.6006,2.6995,13.2574,5.262,19.7044,7.8008-6.3887,10-15.75,11.8309-26.403,10.5616-2.7656-.3295-6.0073-0.5174-5.5474,4,4.5907,1.3021,9.2924.1777,13.9106,0.658,1.4353,0.1493,3.6783-1.2706,4.1239,1.5964-2.89,15.2955,2.889,24.2048,20.4777,35.1806-3.09,4.2947-6.4211,5.9941-11.8632,3.3864-22.6278-10.8421-41.438-25.454-50.69-49.789a65.2069,65.2069,0,0,1-4.3619-25.6571c1.1263-7.5226,1.1331-7.5551,8.8191-5.8972,4.0651,0.8768,8.325,1.1158,11.0169,2.7579-4.18-1.85-8.6815-5.39-13.4244-8.545-1.5-.9977-3.61-1.7158-3.399-4.1911l1.1495-3.1186c4.5484-1.5455,8.3333,1.644,12.5759,2.0454A34.2155,34.2155,0,0,1,160.4,132.9c-4.4764-2.2127-8.6577-5.8947-12.9647-9.3738C146.3475,122.6481,145.4709,121.43,146.6034,119.902Z"/><path class="cls-6" d="M351.8,391.5654c-0.1106,7.66,2.4316,14.8022,4.3158,22.0726a4.7748,4.7748,0,0,1-3.3447,3.0268,183.8912,183.8912,0,0,1-39.8036,10.008c-2.7222-.1139-5.2717.9684-7.9524,1.1595a349.3107,349.3107,0,0,1-43.8265,3.0894c-7.5459-.0613-15.09-0.0412-22.6316-0.0021-17.2085.1448-34.2582-1.7541-51.2748-4.0222-8.7521-.7418-17.1017-3.46-25.6369-5.2654a82.6,82.6,0,0,1-26.244-11.0667c-4.1394-3.0856-7.544-6.5748-6.7092-12.3624,0.6254-2.9865,2.4848-5.2,4.5736-7.27a45.0987,45.0987,0,0,1,8.1579-5.6526c2.3814-1.0719,4.6346-2.72,7.4925-1.7238,10.1513,9.7663,22.8623,14.3272,36.1378,17.7232a8.3443,8.3443,0,0,1,4.9178,2.6914c9.02,13.1721,26.5871,17.0639,42.4811,10.64a40.42,40.42,0,0,1,30.4565.0509c14.4856,5.8491,33.68,2.8316,41.5455-9.5554,1.1917-1.7474,3.0472-2.1745,4.9557-2.6369,13.6778-3.3143,27.2076-6.9605,38.3171-16.3514,2.2217-1.878,3.84-1.6211,3.67,1.8594C351.3377,389.1712,351.0868,390.4372,351.8,391.5654Z"/><path class="cls-3" d="M324.7252,156.7678c-2.1782-2.6219-4.3673-.6679-6.5324.0087-2.1223.6632-4.22,1.404-6.3292,2.1106-2.2882.3614-3.9607-1.1158-5.84-1.9654-7.1727-3.2434-13.9073-2.7776-20.179,2.2421-1.7082,1.3673-3.066,3.4962-5.7539,3.0632-5.7724-1.3626-11.8842-1.1-16.816-5.77-2.5706-2.4342-6.9737-1.7619-10.6625-1.7193-1.8947.0219-3.79,0.0038-5.9944,0.0038a248.2852,248.2852,0,0,0,4.9549-61.9684c-0.3432-7.1464-.73-14.34-2.4461-21.32-0.72-2.9283.4219-3.2644,2.8063-3.2,31.8966,0.8613,60.3776,10.4452,83.8892,32.7579,1.3006,1.2343,2.97,2.0526.6182,4.3407-15.0737,14.664-18.1593,31.9182-10.4935,51.3035a0.8447,0.8447,0,0,1-1.1861.1422Q324.7427,156.7832,324.7252,156.7678Z"/><path class="cls-4" d="M191.8688,197.837c-1.5357-1.9326-1.4428-4.2555-1.33-6.4789,0.3325-6.5442,2.0147-8.0654,8.4557-8.0937,4.0139-.0177,8.0273-0.1165,12.0412-0.1512,1.4981-.0129,2.9872-0.1789,2.8891-2.1008-0.0881-1.7263-1.4177-2.1587-2.9805-2.1474-4.1.03-8.2,0.0105-12.6708,0.0105,7.1926-7.2322,9.2938-7.54,18.8973-3.0947,1.5206,1.018,2.9408,1.0582,3.8508-.72,0.9789-1.914-.4042-2.7684-1.8421-3.51l-4.171-1.5743c4.7925-2.1183,9.3354-2.4518,13.6958-3.5043,1.3636-.3292,2.5381-0.4031,3.3768,1.4031,2.2684,4.8852,6.7263,7.5408,11.33,9.6911,2.4176,1.1293,3.3606,2.331,3.303,5.0295-0.1789,8.4105-.268,16.8346.03,25.2384,0.1263,3.5568-1.1515,4.15-4.179,3.6132-13.1532-2.3327-24.07-8.1832-31.4316-19.7215a13.1209,13.1209,0,0,1-.8-1.3544c-0.7494-1.5612-1.7593-2.8624-3.6177-1.75-1.9621,1.1744-.8447,2.7263-0.0709,4.0715,5.6487,9.823,14.0278,16.3252,24.5617,20.252,21.7263,8.099,47.2527.36,59.1115-17.9653a18.7915,18.7915,0,0,0,1.4114-2.202c0.6723-1.4526,1.3766-3.1082-.6178-4.0421-1.7549-.8218-2.5421.7588-3.2168,1.9067a41.55,41.55,0,0,1-19.344,17.0835,55.82,55.82,0,0,1-12.52,3.677c-2.7841.5368-4.4726,0.3448-4.329-3.4632,0.3236-8.5775.1711-17.1765,0.0536-25.7646-0.03-2.1956.5621-3.4415,2.6411-4.433,4.76-2.27,9.25-5.008,11.8062-9.9448,0.7222-1.3948,1.71-1.3263,3.0609-.9889,4.1888,1.0472,8.4179,1.933,12.7555,2.9094-0.3064,2.0661-3.6765,2.5776-1.9289,4.9592,1.5579,2.1237,3.3783.6308,4.6451-.106,5.8024-3.375,9.2065.8587,14.2436,4.1579h-11.281c-1.7105-.2572-3.3542.1453-3.5043,2.0069-0.1864,2.3122,1.6211,2.6652,3.5149,2.512,2.5821,0.0078,5.1644,0,7.7464.0263,9.4105,0.0966,12.1376,4.0761,9.3194,13.5824-11.2648,15.028-26.6817,21.7924-45.0438,23.5579-14.9271,1.4353-29.4.1976-43.3729-5.1178C206.7559,211.6443,198.0782,206.3936,191.8688,197.837Z"/><path class="cls-3" d="M324.7252,156.7677l1.2211-.1127c5.4257,9.6975,12.7263,17.5325,22.9158,22.25,3.4754,1.6093,1.8631,3.3273.7609,5.2409-9.3832,16.2947-23.1734,27.787-39.6055,36.4408-29.3355,15.4492-72.73,18.9327-102.7137,7.9993,2.6-3.5474,4.57-5.5827,9.98-3.943,23.4615,7.1115,46.956,6.6406,69.7513-2.9005,11.9277-4.9924,22.1272-12.2153,25.0715-26.1079,0.5833-4.1194.0175-8.6385,4.0239-11.5671q6.7594-.1247,13.5187-0.2506c1.6306-.0316,3.3909-0.1789,3.3887-2.2894s-1.82-2.2586-3.4065-2.3138c-3.8089-.1325-7.62-0.1952-11.4307-0.286-1.5507-5.1751-3.5962-10.2518-3.1417-15.825,2.1557-.9835,4.2681-2.0824,6.4811-2.9134C323.2482,159.5481,324.7314,158.91,324.7252,156.7677Z"/><path class="cls-5" d="M327.6427,37.8946c6.369,17.0223,8.1233,34.7491,8.7175,53.7078-5.4443-3.743-10.0049-6.8717-14.5574-10.0119-1.5284-1.0543-1.3053-2.7094-1.494-4.2676a79.6581,79.6581,0,0,0-4.86-19.7817c-2.3712-6.0053-6.8786-7.6112-12.6369-4.6179-4.7961,2.4932-8.1507,6.5694-11.12,10.932-1.6566,2.4338-3.3777,3.3642-6.4375,2.4105A64.9265,64.9265,0,0,0,269.3858,63.07c-2.3511-.1236-3.4346-1.1493-2.0288-3.3224,10.0632-15.5566,21.952-29.0456,40.5363-34.5842,6.3423-1.89,11.6842-.1275,15.7218,5.2327,0.2516,3.3824-2.6129,4.6362-4.5313,6.4793-1.36,1.3064-2.9984,2.3186-4.527,3.7053C319.2236,40.5684,323.0556,37.3844,327.6427,37.8946Z"/><path class="cls-3" d="M159.173,86.146a154.3067,154.3067,0,0,1,3.5124-29.3013c2.1044-.8579,4.1315-0.0786,6.0995.1677-1.35-2.1592-5.5815-2.61-4.3423-6.6371a10.5452,10.5452,0,0,1,1.3063-5.1443c5.8771-.4829,10.9382,2.5358,15.7309,3.1551-3.5765-3.3481-9.3508-5.5442-12.7405-10.5834,3.9115-10.2647,11.5548-13.82,22.2352-9.5779C207.628,34.84,218.8362,47.5414,228.4159,62.61c-7.1385,1.6265-13.9036,2.3422-20.31,4.5694-2.373.8249-3.8632-.1077-5.2556-2.0856a32.1453,32.1453,0,0,0-9.6347-9.5506c-6.3579-3.7746-11.6968-1.9146-13.888,5.1674a123.1409,123.1409,0,0,0-4.0562,16.7627,9.0577,9.0577,0,0,1-4.1459,6.7551c-3.7483,2.56-7.2328,5.506-10.83,8.2877C157.1524,90.88,159.2777,88.3167,159.173,86.146Z"/><path class="cls-5" d="M355.0607,312.5706c-0.333-3.992.2828-8.0152-.8243-12-1.08-3.8863,1.9164-5.5257,4.5871-7.3165,12.2084-8.1868,20.9873-19.0593,24.3841-33.5041,2.9487-12.5392,2.23-25.2632-.3833-37.8086-1.706-8.1884-3.9335-16.2682-5.9376-24.3942-0.1253-.5079-0.3969-0.9819-0.5026-1.4919-0.66-3.1783-.0784-6.23,2.7637-7.8623,2.7095-1.5558,4.8842.8825,6.9374,2.3276a15.1854,15.1854,0,0,1,2.619,3.1876c6.8467,11.9918,8.8984,25.3357,10.9326,38.6895a84.41,84.41,0,0,1-.8742,29.2475c-3.4767,17.6539-14.381,30.4833-27.3223,41.9443a55.1568,55.1568,0,0,1-11.5463,8.2182C358.3849,312.57,356.9153,313.8747,355.0607,312.5706Z"/><path class="cls-7" d="M314.1062,375.7081c3.4057-3.2685,6.8582-6.49,10.2013-9.821,2.3474-2.3394,2.4866-4.4081-.1819-7.05a46.7042,46.7042,0,0,1-10.1219-15.5568c4.6258,2.7655,9.1726,5.6791,13.9242,8.2082,1.47,0.7824,3.2911,3.5078,5.2842.4726,1.7752-2.7028-.0842-4.4316-1.95-5.6769a30.5378,30.5378,0,0,1-8.9059-9.612,107.32,107.32,0,0,1,10.2558,3.3684c4.2737,1.8667,5.897.2306,7.0466-3.8132a108.3452,108.3452,0,0,0,2.472-47.1613c-0.8159-5.1529-1.924-10.2632-3.0285-15.3653-0.5895-2.7236-1.1759-4.53-5.1509-2.963a39.1621,39.1621,0,0,1-17.17,3.055c5.0421-3.9172,10.04-7.893,15.1509-11.7175,1.6359-1.2241,3.1236-2.1446,2.1312-4.596-1.2057-2.9782-3.0016-.75-4.3312-0.4729-4.5514.9474-9.0354,2.2193-13.7769,2.8245,3.04-4.2908,7.4562-6.6605,11.2632-9.7555,1.3622-1.1075,3.847-1.9918,2.6465-4.4146-1.3844-2.7942-3.5031-1.0392-5.4351-.4457-3.4624,1.0632-6.97,1.9807-10.4585,2.9592l-1.1662-1.3466c2.2154-1.821,4.4718-3.5944,6.6388-5.471,7.3927-6.4021,7.4235-6.7532,1.9287-15.1388-0.25-3.0856,1.912-4.2235,4.2286-5.2363,6.65,10.969,10.3712,23.1272,14.0783,35.2555,5.6505,18.4863,9.3513,37.38,8.7743,56.7745-0.8683,29.1913-10.7564,54.3544-34.464,72.8563a19.0534,19.0534,0,0,1-1.74,1.1738,2.81,2.81,0,0,1-.92-0.0324A45.6586,45.6586,0,0,1,314.1062,375.7081Z"/><path class="cls-5" d="M358.262,152.31c0.3662,5.6891-1.0047,11.9464-2.8842,18.1906-0.7933,2.636-1.4737,3.6246-4.2292,2.2227-25.0381-12.7376-29.8063-43.0272-11.7183-61.0578,2.6335-2.6252,4.1083-2.3226,6.0266.5834C353.3182,124.1574,358.6055,136.87,358.262,152.31Z"/><path class="cls-8" d="M355.0607,312.5706c13.2709-5.97,23.0211-16.07,31.5534-27.4219,10.6817-14.2105,13.2376-30.36,11.9221-47.8526-1.1377-15.1283-5.5253-29.2965-9.8316-43.589,5.9635,5.819,8.6071,13.433,11.0905,21.0462,4.8679,14.9225,7.5568,30.0593,4.9115,45.883-2.6737,15.9918-10.0254,29.7274-19.68,42.3281a122.4075,122.4075,0,0,1-25.9724,25.0663c-1.6584,1.1889-3.39,2.2757-5.846,3.9158Z"/><path class="cls-9" d="M185.6909,368.22c3.9042-2.8233,8.4858-2.7416,12.96-2.8694,7.4632-.2132,14.94-0.057,22.393-0.422,2.5194-.1235,4.9844-1.3555,7.4743-2.0808a50.5924,50.5924,0,0,1-1.9693,15.5c-1.27,4.6641.1586,6.835,4.54,7.7984a6.92,6.92,0,0,1,1.7552.9871,69.2549,69.2549,0,0,1-23.2066,9.2559c-5.1594,1.0141-9.7086,2.8856-12.4623,7.7218-5.6778-9.1526-7.8933-19.5325-10.496-29.7668C186.1715,372.3489,186.0114,370.2643,185.6909,368.22Z"/><path class="cls-7" d="M266.7732,364.13c9.335,2.0152,18.8005.6159,28.1922,1.1,5.0144,0.2587,10.1053.388,14.6248,3.0927a148.515,148.515,0,0,1-8.8884,31.0084c-0.7734,1.9319-1.3466,3.9709-3.169,5.2656-2.6234-5.9905-8.0052-7.5059-13.7312-8.7337-7.489-1.6058-14.8064-3.764-20.8164-8.8988,5.459-1.6507,6.7665-4.7758,5.0293-10.4046A27.4542,27.4542,0,0,1,266.7732,364.13Z"/><path class="cls-10" d="M374.14,427.2459c-1.3865-1.5224-3.0995-2.83-3.3549-5.097a124.315,124.315,0,0,0,16.9635-4.8779c-5.6354,1.6816-11.4573,2.7011-16.9368,4.9359-6.2089-7.3579-8.6887-16.2175-10.2532-25.4463a4.0016,4.0016,0,0,1,1.2389-.8442,4.8,4.8,0,0,1,2.2334-.0931c0.9824,0.2868,1.8192.722,1.86,1.9153-0.4774,1.4493.2632,1.8755,1.5231,1.6323a25.377,25.377,0,0,1,7.151-.682c1.2507,0.2357,2.5317.4326,2.8615,1.987-1.9462,2.8105-5.23,2.2-7.8876,3.2991,6.7579-.9935,13.481-2.2221,20.1732-3.6295a0.8834,0.8834,0,0,0-.0172-0.4894,1.1916,1.1916,0,0,0-.3782-0.38,4.5094,4.5094,0,0,1-1.8615-1.772c0.583-2.7814,3.2393-1.6515,4.8632-2.55-0.7381-.4773-1.6089-0.2915-2.3429-0.6188a2.4191,2.4191,0,0,1-1.4778-1.3835c1.25-2.26-.5934-2.7016-2.0128-3.3933a6.6946,6.6946,0,0,1-.9342-1.0354c-2.4719-2.708-6.03-.2183-8.7284-1.8232a1.5209,1.5209,0,0,1-.8133-1.8506c0.621-.6367,1.4545-0.8713,3.1551-1.4842a40.9,40.9,0,0,0-5.6554-.1286c-1.8717-.0517-3.783.1579-5.4961-0.8727-1.4709-2.6026-.0285-3.9579,2.1381-4.9954,3.7709,3.6015,7.4676.1734,11.2037-.1344,4.6817,2.5179,7.2737,7.444,11.9963,9.9615-4.2316-4.759-8.6579-9.3236-13.3737-13.7868-0.7436,1.2347-.1487,2.1536-0.524,2.9784a8.5561,8.5561,0,0,1-8.1247,1.6714c-1.0449-5.506,3.5248-7.4257,6.5814-10.3138,2.6161-.8221,3.6737,1.3,5.0322,2.7457a78.3156,78.3156,0,0,0,13.5635,11.8787c0.5758,0.3826-.1463.1354,0.4551-0.0093,0.5817-.14.0842-0.8432-0.0334-1.31a2.0384,2.0384,0,0,1,.5146-1.8787,13.7219,13.7219,0,0,1,2.5919-2.0177,3.9561,3.9561,0,0,0,1.7808-1.4164c0.1678-1.0266-.1982-2.0729.1528-3.0923a2.1764,2.1764,0,0,1,1.0624-.9579,2.9876,2.9876,0,0,1,2.9481.6222,3.9417,3.9417,0,0,1,.6363,1.5224,7.2106,7.2106,0,0,1-.5006,3.6085,219.4389,219.4389,0,0,0-11.0182,39.4389,10.06,10.06,0,0,1-1.27,3.4322,2.83,2.83,0,0,1-1.1642,1.0343c-5.3816.6929-10.1717,3.3089-15.307,4.8049C376.2782,426.6188,375.4389,427.7726,374.14,427.2459Z"/><path class="cls-4" d="M197.1752,404.1119c0.3042-2.6928.9636-5.4783,3.786-6.3337,10.7309-3.2518,21.3957-6.6808,31.8842-10.6434,3.1619,2.5283,6.6245,4.8574,6.4369,9.6275-8.4776,9.4234-18.4044,15.5037-31.7263,13.7546C203.3518,409.5887,199.6737,407.8062,197.1752,404.1119Z"/><path class="cls-11" d="M417.3527,450.4434a48.3081,48.3081,0,0,1-26.0127-8.5191c1.0856-1.9862,2.1854-3.9179,2.2336-6.3239,0.51-25.46,9.0661-48.8632,18.6476-71.9675,1.4948-3.6055,2.0938-7.8761,5.8606-10.2452a1.74,1.74,0,0,1,1.9059,1.3038c0.5149,2.5936-.6935,4.7776-1.6705,7.0222-9.1968,21.1278-16.67,42.7558-19.13,65.8429-0.1295,1.2153-.4621,2.4022-0.4754,3.6421-0.0264,2.4495-.2058,4.8992-0.1132,7.2958,1.9437-33.8165,13.2437-64.7994,28.7606-94.5135a3.1934,3.1934,0,0,1,4.4782.584q0.0344,0.0447.0672,0.0906c0.8886,2.0546-1.3877,2.6823-1.848,4.1327-14.3152,28.876-24.0105,59.07-26.0824,91.4686,0.438-1.2192.4536-2.6121,1.4539-3.5766,4.371,1.4092,1.6526,5.47,3.0038,7.959a96.7906,96.7906,0,0,0,1.1443-10.175c0.14-1.5705-.3757-3.6188,2.0018-4.1929,2.6111,2.0405,1.4834,4.952,1.7751,7.528,0.0958,2.3441-.4808,4.72.2854,7.04a0.5305,0.5305,0,0,0,.4471.1643,0.83,0.83,0,0,0,.4136-0.3118c0.42-3.8332.1019-7.6308,0.1464-11.4329,0.028-1.8451.0063-3.6985,1.5337-5.0842,3.1369,0.89,2.0893,3.6155,2.51,5.7C418.2082,439.3938,420.0831,445.1051,417.3527,450.4434Z"/><path class="cls-12" d="M279.2609,247.0554c-22.18,4.7263-44.2948,4.9544-66.32-.9677,3.55-7.5495,3.8778-7.48,11.7432-6.38a152.2281,152.2281,0,0,0,43.1212.2756C274.1381,239.0617,277.2925,241.7028,279.2609,247.0554Z"/><path class="cls-13" d="M481.4259,413.1136l-0.068.3613c-1.9711,2.59-3.2316,2.5684-3.6392-.9492-0.4749-4.0948-.4105-8.2239-0.8346-12.3166-0.9392-3.0678-.4357-6.3194-1.1748-9.4121-2.1137-11.8713-5.1194-23.4464-11.4045-33.9136-0.9152-1.7138-2.2868-3.13-3.1919-4.7959a0.9151,0.9151,0,0,1-.2984-0.7763c-0.2251-.0049-0.2891.1263-0.127,0.3462a7.2355,7.2355,0,0,1,.5428.78c1.06,1.6492,2.2752,3.156,3.2686,4.82,6.5846,11.3418,9.6376,23.7986,11.6124,36.6-0.2582,3.2366,1.0761,6.2938,1.0545,9.5042a58.7024,58.7024,0,0,0,.877,11.46,6.623,6.623,0,0,1-1.7045,6.2266c-4.2254-.19-3.4172-3.49-3.7658-6.0775-0.1129-2.8526.3416-5.7459-.5789-8.546a24.6848,24.6848,0,0,1-.43-5.7005,9.8934,9.8934,0,0,0-.56-4.4291,7.2374,7.2374,0,0,1-.7314-2.8747c0.32-3.4894-.8769-6.7523-1.5335-10.0947a34.0557,34.0557,0,0,0-1.367-4.9763c-0.8035-2.5932-1.2737-5.2947-2.5467-7.7333-4.5895-12.7642-12.0026-23.2807-23.99-30.1666-0.8822-1.0674-1.4549-2.2072-.831-3.6157a2.6827,2.6827,0,0,1,1.33-.7359c4.4082,1.53,9.1362,1.5754,13.6059,2.8565a11.6929,11.6929,0,0,1,2.4669,1.5713,36.9631,36.9631,0,0,0,4.7967,5.1938c5.5789,5.7293,10.2861,12.0044,12.4,19.887-0.7579,1.7053.95,2.6573,1.267,4.0415a33.1681,33.1681,0,0,0,1.2576,4.0054,42.8634,42.8634,0,0,1,2.0894,6.9772,14.1164,14.1164,0,0,0,1.0364,4.1381,6.1452,6.1452,0,0,1,.8066,3.5219,8.8936,8.8936,0,0,0,.3579,5.1234,21,21,0,0,1,.3779,4.19C481.6937,402.7775,483.6282,407.9961,481.4259,413.1136Z"/><path class="cls-14" d="M351.8,391.5654c-1.6381-1.5439-.3443-3.7405-1.4033-5.8705-13.0462,11.949-29.5694,15.498-45.9427,19.4117,1.0229-5.1405,4.2141-8.4789,8.6814-10.9782,7.3943-4.1368,12.4138-11.079,18.864-16.3443,7.2689-.77,13.6183,1.965,19.8354,5.2044Q351.8173,387.2765,351.8,391.5654Z"/><path class="cls-4" d="M262.985,386.9648A168.1169,168.1169,0,0,0,292.58,396.9917c3.6579,0.9219,5.2646,3.7944,4.9509,7.6093a12.0161,12.0161,0,0,1-7.4435,4.9263C276.18,411.14,265.361,405.1507,255.9651,395.66,256.5287,391.3275,259.356,388.8225,262.985,386.9648Z"/><path class="cls-15" d="M474.0138,366.1445c-2.4664-7.7062-7.5805-13.7263-12.6087-19.8014-1.0947-2.03-3.0286-3.3994-4.2159-5.3565l-2.08-.8711c-1.123-1.3306-.5732-2.4148.4965-3.42,2.8484-1.1665,5.021,2.3283,7.8784,1.1562,14.2331,11.5914,22.13,26.464,23.23,44.8567a4.524,4.524,0,0,1,.4119,3.0026c-0.2747,1.7066,1.0695,4.6762-1.2263,4.8434-3.1412.2287-1.2211-3.1329-2.01-4.7252a4.0484,4.0484,0,0,1-.6228-4.1318c-0.9616,1.6612.0964,3.1142,0.7277,4.6185,1.0785,6.0122,2.4377,12.0056.7158,18.1209l-0.3744,1.6762c-1.5924,1.1579-2.0158.1388-2.4421-1.2105-0.7994-2.53-.1562-5.22-0.96-7.7337-0.1945-1.6586.1626-3.3517-.2842-4.997a15.0734,15.0734,0,0,1-.32-4.0074l-1.0526-2.8324c0.0805-1.6026-.6829-3.1064-0.5526-4.7164-1.1818-2.0615-.8029-4.5979-2.0316-6.6431-0.3713-1.3437-1.1-2.5912-1.0922-4.0364C475.2212,368.6106,474.241,367.5351,474.0138,366.1445Z"/><path class="cls-14" d="M189.97,403.97c-10.2593-2.6132-20.4805-5.3218-29.8692-10.4416-4.4661-2.4354-8.5935-5.24-11.47-9.564,0.63-3.1169,3.5684-2.9218,5.6545-3.9587,3.68-.3716,7.0622-3.4428,11.0316-1.2475,6.9964,6.0174,13.5316,12.5579,21.2616,17.7448C188.8008,397.9943,189.5859,401.1279,189.97,403.97Z"/><path class="cls-16" d="M191.8688,197.837c11.7128,10.3607,24.6808,18.1377,40.5336,20.329,26.1421,3.6136,50.5358,1.2293,69.8292-19.5517a14.089,14.089,0,0,1,2.5422-1.7579c-1.5573,6.8926-6.6129,11.0632-12.0969,14.5023-15.3956,9.6554-32.5625,12.1462-50.3352,11.2746-12.3187-.6041-24.29-3.0924-35.1966-9.1368C200.56,209.8472,194.2438,205.7016,191.8688,197.837Z"/><path class="cls-17" d="M417.3527,450.4434q-0.0619-8.3624-.1238-16.7247c-0.4394-9.8105,1.1762-19.354,3.7284-28.7719a12.5831,12.5831,0,0,1,.2506-1.6362c0.421-1.54.96-3.0488,1.4018-4.5858,1.51-4.0595,2.7724-8.2051,4.1334-12.3165q0.9382-2.4557,1.7169-4.9694c1.2074-3.0123,2.3664-6.0449,3.6174-9.04,1.9023-3.7352,3.1558-7.77,5.2247-11.43,0.8562-1.5145,1.574-3.1013,2.3931-4.6394,0.8753-1.3746,1.8316-2.613,3.7595-2.1207a2.8079,2.8079,0,0,1,1.5011,1.6907c-0.83,5.4557-4.02,9.976-6.0549,14.9524-4.8326,11.8175-9.4116,23.6959-12.3986,36.1437-0.7079,2.95-.2492,3.7877,2.52,1.9588,2.55-1.2135,4.7763-3.0743,7.5622-3.8333,1.66-.65,3.3213-1.3691,5.0141-0.0933,1.1867,2.98-1.213,4.0316-2.9816,5.2638-4.4334,3.0893-9.4924,4.9684-14.3641,7.1865a124.8011,124.8011,0,0,0-2.4822,18.6994,11.7877,11.7877,0,0,1,.0252,1.6321c-0.0762,1.3789-.0744,2.7558-0.021,4.1368a10.9872,10.9872,0,0,1-.0015,1.7091c-0.1738,2.3031.3538,4.72-1.1034,6.8139a1.1772,1.1772,0,0,1-1.6005.1053Z"/><path class="cls-18" d="M418.3325,353.6632c-12.1625,26.4054-22.62,53.2791-23.471,82.911-0.0586,2.0421,1.1278,5.8882-3.5151,5.3529q-1.3014-.7345-2.59-1.4632c-1.1726-1.6085-.4112-2.9389.5927-4.2371,1.3919-1.3169,1.1854-3.0724,1.2708-4.7474a13.07,13.07,0,0,1,.2478-2.2416,17.1333,17.1333,0,0,0,.7149-4.5295,5.9938,5.9938,0,0,1,1.2284-3.7314c2.6519-16.1813,7.6015-31.7369,12.8559-47.2095,0.3528-5.3634,3.1723-9.8508,5.1772-14.6261,0.791-1.4162,1.5624-2.8469,2.2513-4.3178,0.2663-.6077.5351-1.2163,0.77-1.8381a31.275,31.275,0,0,1,1.5114-3.6555c0.3936-.8123.7963-1.6193,1.194-2.4321,0.4121-.8706.8246-1.7378,1.2737-2.5932,1.3207-2.1158,2.7684-3.9641,5.6793-2.5978a2.7393,2.7393,0,0,1,.6515,2.202C422.6285,347.3975,421.7568,351.2962,418.3325,353.6632Z"/><path class="cls-17" d="M444.5147,355.7048l-1.0028-.9864c-1.0046-.9135-2.4316-1.1874-3.37-2.206-0.3627-.2791-0.7053-0.58-1.0475-0.8823-2.3027-2.2369-5.7947-3.1063-7.2624-6.3006a5.439,5.439,0,0,0-4.1421-1.2254,3.2188,3.2188,0,0,1-1.0516-1.1325c-0.74-3.4247,1.1144-4.0353,3.8434-3.3595a17.2782,17.2782,0,0,1,5.0879,2.5939c11.2653,7.4775,19.9873,17.14,25.3979,29.6361a13.7581,13.7581,0,0,0,2.7412,4.6211,3.7318,3.7318,0,0,1,.3871,1.3077,11.6275,11.6275,0,0,0,.7648,3.9691c0.8668,2.3081.8023,4.89,2.1011,7.0681a4.0507,4.0507,0,0,1,.2526,1.2842,4.8305,4.8305,0,0,0,.58,3.6483,5.5313,5.5313,0,0,1,.701,3.9543,5.5834,5.5834,0,0,0,.6,5.2891,5.5077,5.5077,0,0,1,.3985,3.202c-0.6924,6.2093-.2526,12.4632-1.21,18.6883-0.5337,3.4722-.9482,6.8358-2.5938,9.96l-2.1774,1.91c-1.0647.3966-1.5184-.2959-1.9279-1.0761a7.7409,7.7409,0,0,1-.1058-4.2086c0.7607-2.1467.5121-4.4091,0.7263-6.6211a26.8464,26.8464,0,0,0,.8667-8.517c-0.0507-3.866-.0095-7.73-0.0065-11.59,0.0526-1.9684-.0012-3.9413.0094-5.9088a10.6094,10.6094,0,0,0-.4986-3.1053c-0.3883-1.7434-.7633-3.4916-1.282-5.2047a98.46,98.46,0,0,0-2.7608-10.179,50.9012,50.9012,0,0,0-5.15-11.1224c-0.4163-.5817-0.8033-1.1823-1.1684-1.7965C450.3267,363.066,446.487,359.9984,444.5147,355.7048Z"/><path class="cls-19" d="M325.6025,220.9817l-4.2288,5.2365A99.871,99.871,0,0,1,285.66,245.2733c-0.1835-.2965-0.3579-0.5994-0.5518-0.8887-4.2751-6.3762-4.2737-6.3684,3.1344-8.3306a114.6821,114.6821,0,0,0,32.9437-14.1886C322.4132,221.077,323.6915,218.9781,325.6025,220.9817Z"/><path class="cls-20" d="M206.5193,244.2975c-11.6937-4.0086-22.6856-9.29-31.8758-17.7715-1.3923-1.285-2.546-2.8284-3.8105-4.2526,0.9053-4.5309,3.3015-1.1827,4.4354-.521a140.1952,140.1952,0,0,0,24.9348,11.8054c0.6565,0.2261,1.2632.6,1.9231,0.8126C210.5138,237.0792,210.5152,237.0749,206.5193,244.2975Z"/><path class="cls-17" d="M435.2014,325.078l1.8761,0.1906c1.69,2.7672.0137,3.733-2.3167,4.3541-9.9534.4539-18.907,4.5585-28.1014,7.7624a17.4975,17.4975,0,0,0-3.8316,2.0888c-2.4414,1.6744-5.26,2.8125-7.2647,5.1136a7.3689,7.3689,0,0,1-2.3059,1.56c-3.1738.9239-5.4526,3.28-8.076,5.08-2.2748,2.28-5.0737,3.9789-7.1275,6.502a65.2142,65.2142,0,0,1-8.3044,8.54c-2.5368,1.0877-4.7777,1.5851-4.6956-2.4125,1.6867-3.48,4.5381-6.0017,7.172-8.7031,2.6335-2.9064,6.0122-4.9532,8.8261-7.6563,9.849-8.0421,21.0479-13.8155,32.4211-19.2982a7.447,7.447,0,0,1,2.8957-.5369c1.4783-.3,2.9559-0.5965,4.4276-0.9406C425.4926,325.2285,430.3344,325.0413,435.2014,325.078Z"/><path class="cls-7" d="M280.091,162.2271c5.2722-4.4243,10.1026-9.2479,18.0471-8.793,5.4165,0.31,9.5213,2.72,13.7263,5.4526-5.898,2.4421-11.8228,4.8217-17.681,7.3553-2.6793,1.1587-4.6437-.6576-6.8645-1.3248C284.862,164.1793,282.4963,163.137,280.091,162.2271Z"/><path class="cls-21" d="M435.2014,325.078L420.3,328.34c-1.7115-1.0274-3.0918-.73-4.1073,1.0268l-2.2364-.9953c-7.7158,4.2125-16.1721,6.9715-23.4105,12.1482-3.2316,2.3109-6.255,4.8878-9.5379,7.12-3.1584,2.8565-6.2211,5.82-9.4761,8.5728-1.7129.1121-2.456-.6087-2.0173-2.3446l3.114-4.464c10.4964-12.3855,23.927-20.058,39.3643-24.5073A47.2558,47.2558,0,0,1,435.2014,325.078Z"/><path class="cls-7" d="M315.0584,163.103c2.0192,5.082,3.9423,10.1831,3.142,15.825-9.06,2.3244-14.2025-3.8679-20.2322-9.5383Z"/><path class="cls-22" d="M255.9651,395.66c8.3072,5.7263,16.7764,11.0366,26.9212,13.0873,2.4229,0.49,4.8113.4568,7.2015,0.78-9.967,4.57-19.6148,3.5245-28.6229-2.2895C257.5462,404.7081,254.1778,401.2289,255.9651,395.66Z"/><path class="cls-23" d="M141.2886,132.52l19.68,13.5654c-5.2526.355-9.6614-1.1329-13.8474-2.2526-4.9249-1.3169-8.4076-1.9114-8.8457,4.5616-0.4321-2.9362.6916-5.9527-2.3158-8.6316C133.56,137.6254,136.5826,133.664,141.2886,132.52Z"/><path class="cls-7" d="M156.2587,259.9417l23.3506,14.6926-0.2455.7958q-12.9656-2.5033-25.9308-5.0074Q154.8465,265.1817,156.2587,259.9417Z"/><path class="cls-24" d="M207.5567,410.5169c12.6645,0.2343,22.2006-6.7474,31.7263-13.7545,0.5,7.2661-4.4211,10.4475-10.0088,12.859C222.2066,412.6717,214.9265,413.4028,207.5567,410.5169Z"/><path class="cls-25" d="M146.6034,119.902c1.837,4.8143,6.97,5.9939,10.2484,9.2368,1.8005,1.7813,4.0373,3.1217,6.8737,5.2613-7.9873-1.0517-14.6141-3.124-21.287-4.9985C140.4141,123.5369,141.4642,121.1418,146.6034,119.902Z"/><path class="cls-26" d="M160.33,247.2719c6.7806,3.4251,12.9913,7.7211,20.407,12.6972-9.0232-.1568-16.0289-3.0976-23.3553-4.2754C158.1964,252.8274,158.5857,249.8125,160.33,247.2719Z"/><path class="cls-21" d="M429.7188,450.4682l-1.7895.1085a1.9772,1.9772,0,0,1-1.59-2.2785c1.2968-2.5276,3.9858-2.8169,6.2029-3.8681a18.5786,18.5786,0,0,0,5.08-2.5929,6.4468,6.4468,0,0,1,1.3222-.7565c6.5763-1.9181,12.605-5.0632,18.6323-8.2168,2.9986-1.5691,4.7546-1.14,4.1875,2.76-0.9284,2.2773-2.9023,3.3882-4.952,4.3871C448.0787,444.2669,439.2244,448.2126,429.7188,450.4682Z"/><path class="cls-7" d="M165.4287,233.3889c3.2358,5.402,9.22,7.5972,13.6243,11.64,0.9665,0.8873,2.5194,1.1975,2.5773,3.4992-6.8147-1.8557-13.4365-3.6589-20.0582-5.4625A39.23,39.23,0,0,1,165.4287,233.3889Z"/><path class="cls-25" d="M327.6427,37.8946c-4.909,2.7024-10.4056,3.4723-16.4223,5.1466,3.3214-5.6632,9.4193-7.6644,12.394-12.6442,1.6631-.09,3.3284-1.5451,4.7494,1.0842A4.94,4.94,0,0,1,327.6427,37.8946Z"/><path class="cls-27" d="M168.7392,37.8026c5.8985,3.3277,10.914,7.8182,16.1077,12.2092-6.5136-1.2274-13.0007-2.2226-19.098-4.7808A17.6276,17.6276,0,0,1,168.7392,37.8026Z"/><path class="cls-28" d="M429.7188,450.4682c8.3119-3.62,16.6476-7.1878,24.9208-10.8947,2.379-1.0657,4.5767-2.5337,6.8576-3.8173,0.25-.5257.5145-0.5579,0.7951-0.0227l1.2211,1.0105C453.7258,444.956,442.5931,449.8565,429.7188,450.4682Z"/><path class="cls-29" d="M465.6911,434.8344q1.5138-14.7727,3.0277-29.5454c2.6221,3.571,1.0362,7.6727,1.4105,11.5224,0.2,2.0526.0265,4.1413,0.0643,7.0557,0.5622-1.7924.4686-2.9093,0.7708-3.9318,0.9748-1.7263-.0535-4.5848,2.9153-5.179,0.573,2.065-.9165,4.8339,2.0727,6.0744a0.9543,0.9543,0,0,1,1.4547.1778A42.0457,42.0457,0,0,1,465.6911,434.8344Z"/><path class="cls-30" d="M233.2893,57.8092c0.9579,3.6127,3.2715,4.5331,6.9041,4.2387a112.5116,112.5116,0,0,1,15.09-.1114c3.2684,0.1758,4.8581-.88,4.9439-4.1332l5.1063-7.3567,6.5112-8.2079a195.95,195.95,0,0,0-49.9508.5549l6.64,7.7443Z"/><path class="cls-31" d="M313.0277,425.315c-0.6613-.1312-7.3533,1.1445-7.3938,1.0432-24.4036,2.4316-48.5969,3.9192-73.1053,3.0363-12.49-.45-24.9352-1.6536-37.348-3.068a167.2065,167.2065,0,0,1-18.7936-2.6769c-4.7383-1.094-11.2517-4.2613-15.9474-3.3131l0.8715-.2613c-6.9953-1.4569-36.5911-10.2678-31.6153-22.21,0.5158-4.6449,8.185-9.7221,11.7527-11.5121,7.4172-3.7212,15.8225-5.7887,23.8686-7.5939-1.5035-3.4582-4.8462-6.2923-6.8986-9.424a80.3426,80.3426,0,0,1-6.2307-11.6564c-3.6105-8.1342-7.0292-16.4854-8.5443-25.38-3.8421-22.5559-.7213-45.901,4.5536-67.8042,2.8251-11.7309,6.9832-22.8477,11.2077-33.9194,1.5008-3.9334,3.2837-7.7441,4.9087-11.639,1.4456-3.4646,1.8441-3.0947-.9408-5.88-2.4643-2.4651-5.3989-4.3733-7.8355-6.9044-16.9723-17.6305-26.0586-39.8159-22.8491-64.0784,1.8818-14.2255,7.54-26.7213,16.472-38.0909,4.2807-5.4491,2.6361-11.9663,3.2226-18.7832,0.6029-7.0064.6246-14.4532,2.3684-21.2866C73.4857,103.929,26.84,201.7243,47.106,289.5291c10.3771,44.96,32.4914,82.29,66.5342,113.4157,39.027,35.6832,93.617,53.059,146.1389,50.6447,29.8644-1.3728,58.494-10.0066,84.9433-23.3648,5.0867-2.5691,19.8224-7.11,12.3607-14.7369-2.1752-2.2233,1.15-1.7219-3.4054-.8042-2.0642.4159-4.1768,1.6544-6.1626,2.3579-3.7164,1.3172-7.49,2.4664-11.3,3.4808-7.63,2.0316-15.3986,3.5173-23.1874,4.7928C310.4417,424.8022,327.79,422.8976,313.0277,425.315Z"/><path class="cls-32" d="M455.1513,250.4494c2.4316-18.491-2.478-39.0421-7.173-56.5158-4.2824-15.9386-9.7223-32.123-18.4015-46.5311-21.5895-35.84-50.609-66.8-89.1867-84.9968a241.2813,241.2813,0,0,1,2.6351,30.6776c0.1982,5.5135,1.201,6.9579,4.6035,11.0781a80.1,80.1,0,0,1,8.585,12.6056c10.4491,19.2177,11.5014,43.06,2.6855,62.7456A89.2968,89.2968,0,0,1,344.31,202.9785a90.9656,90.9656,0,0,1-6.6284,6.5076c-1.3053,1.2028-5.3548,3.5646-5.9844,5.0829-1.269,3.0605,1.1924,5.5459,2.5518,8.4043,9.9474,20.9169,15.3061,43.3213,19.1442,66.04,9.0348-6.7053,17.5825-14.42,21.6863-25.18,3.5138-9.2131,4.1591-21.0918,2.9719-30.8047-1.3146-10.7553-4.9942-20.6592-7.2427-30.9973-1.2614-5.8-2.3613-13.9739,2.5093-18.4462,3.6571-3.3579,10.3176-3.02,14.392-.5032,11.1895,6.9116,16.455,22.1356,19.8632,34.0421a116.1172,116.1172,0,0,1,4.3915,39.2136c-1.0526,21.9953-14.0737,43.1237-28.6983,59.2771a124.2523,124.2523,0,0,1-17.6608,15.6807c-4.2405,3.1895-11.5089,6.417-14.6306,10.71-1.836,2.5251-1.8825,5.4873-2.8842,8.2835a93.5679,93.5679,0,0,1-4.7846,10.4005,103.5,103.5,0,0,1-11.3065,17.0947c6.7131,1.3505,12.9979,4.4014,19.8353,5.204,1.7918-18.5567,8.3393-34.8858,22.1474-47.8842a71.2631,71.2631,0,0,1,48.0552-19.7025,72.0664,72.0664,0,0,1,12.8155.8825c2.9018,0.4614,6.7523,2.3344,8.9559-.1012,3.1664-3.5,4.635-15.0936,5.6294-19.3109a227.2249,227.2249,0,0,0,4.3805-23.2642C454.7387,266.4437,456.6841,257.51,455.1513,250.4494Z"/><path class="cls-33" d="M411.9927,324.8968c-5.931,2.7559-11.93,5.3763-17.7766,8.3005-8.1592,4.0805-14.662,10.4372-21.5858,16.2057A58.3717,58.3717,0,0,1,411.9927,324.8968Z"/><path class="cls-34" d="M261.0742,161.9479c-8.1025,2.4866-15.466,1.8883-23.2751.5962C241.2614,159.0374,254.4787,158.6855,261.0742,161.9479Z"/><path class="cls-35" d="M392.8106,420.9774l0.0912,4.0631c-0.6176,1.1061-.59,2.51-2.4166,2.8852-4.0421.83-7.45,3.34-11.31,4.7068a15.2445,15.2445,0,0,1-5.0344-5.3862l1.9158-2.0751c1.586,1.98,3.5384,1.0105,5.2446.4382a51.8133,51.8133,0,0,0,10.4542-4.5771Z"/><path class="cls-36" d="M361.64,396.6357l-1.082.1248c-0.8327-7.1061-1.339-14.2022.6508-21.2217,0.1986,0.1246.3973,0.2492,0.5987,0.37a7.2869,7.2869,0,0,0,2.93,2.8258,2.8013,2.8013,0,0,1,.4316,1.3347c-0.2737,2.3423-2.4411,3.9975-2.3308,6.47a5.3075,5.3075,0,0,0,.5756,1.8421c0.73,1.5971,2.4137,1.7916,3.7257,2.5316a1.5406,1.5406,0,0,1,.7014,1.7807C366.062,394.4571,363.0736,394.3225,361.64,396.6357Z"/><path class="cls-37" d="M245.4186,398.6643c1.1146,1.6464,2.8306,1.1522,4.3854,1.2316,0.3482,0.7882.6382,1.6091,1.0546,2.36,2.0172,3.6366.3355,4.4131-3.0378,4.09-1.5368-.1474-3.0991-0.025-4.9554-0.025Z"/><path class="cls-38" d="M365.7147,363.3519c-0.3838,4.1642,1.88,2.9336,4.0131,1.9694-0.0334,5.5854-3.8653,8.27-8.1194,10.6316a5.7074,5.7074,0,0,1-.3988-0.4144,31.9,31.9,0,0,1,4.26-13.7839A1.021,1.021,0,0,1,365.7147,363.3519Z"/><path class="cls-39" d="M379.1747,432.6321c2.6218-3.8434,7.0178-4.6263,10.9635-5.8594a7.5927,7.5927,0,0,0,2.764-1.7313,6.5205,6.5205,0,0,1-.9784,4.3236,9.1839,9.1839,0,0,1-2.93,2.3546c-2.8416.96-5.4882,2.7924-8.7316,1.9977Z"/><path class="cls-40" d="M477.4076,421.0083q-0.7263-.0879-1.4537-0.1768c2.0947-3.5842,1.23-7.421.681-11.1183a34.9,34.9,0,0,1-.4129-6.7c0.9253-.9021-0.1227-2.4555,1.0781-3.2665,1.8613,3.7428.6308,7.7388,0.9122,11.61,0.1638,2.2519.3088,4.0461,3.1447,2.1209A18.6253,18.6253,0,0,1,477.4076,421.0083Z"/><path class="cls-41" d="M484.7105,404.4367q-0.6053-9.6225-1.2105-19.2452l-0.0136.0105c1.9359,0.97.0872,3.7059,2.5282,4.8743,1.1779-2.4463.2421-5.01,0.6995-7.3651C488.4264,390.1706,486.7641,397.3217,484.7105,404.4367Z"/><path class="cls-42" d="M164.4425,50.3748c0.9339,4.179,5.6431,4.5884,7.9592,8.12-3.5871.3511-6.6538-.6334-9.7158-1.6512C163.3943,54.7213,162.9895,52.2958,164.4425,50.3748Z"/><path class="cls-43" d="M434.0348,328.4812c2.0562-.0842,3.617-0.6371,3.0435-3.2125,3.8136,0.1517,7.2238,1.6456,10.6168,3.1964a1.13,1.13,0,0,1-.4378,1.5363l-0.0418.0221a20.8148,20.8148,0,0,1-12.7031.0163,1.1134,1.1134,0,0,1-.5151-1.4879Q434.0147,328.5159,434.0348,328.4812Z"/><path class="cls-44" d="M316.13,184.0678c-1.4087,3.8328-3.3382,7.4842-4.024,11.5679-0.0974-2.612.3217-5.3766-.3988-7.8027C310.1637,182.6353,312.1244,182.3446,316.13,184.0678Z"/><path class="cls-45" d="M481.433,396.8143c1.1319,1.8195.9853,3.8495,1.0105,5.8657,0.0183,1.4479-.3759,3.1955,1.8919,3.4335-0.6842,2.4507-1.1233,5.0042-2.9095,6.9989q-0.5136-8.1931-1.0265-16.3881C480.7833,396.3046,481.13,396.3111,481.433,396.8143Z"/><path class="cls-46" d="M365.7147,363.3519q-0.1223-.7984-0.2446-1.5968a20.7517,20.7517,0,0,1,4.0475-7.89,2.0869,2.0869,0,0,0,2.2866,1.8661q0.053-.0053.1056-0.0134a0.6854,0.6854,0,0,1,1.185.0274Z"/><path class="cls-47" d="M463.484,337.8516c-2.8491,2.7867-4.9579-.1306-7.3383-0.9525a2.5337,2.5337,0,0,1-.8868-0.8339,5.7825,5.7825,0,0,1-.8415-2.3293,2.5868,2.5868,0,0,1,.3283-1.2q0.29-.1243.5812-0.2468A24.9225,24.9225,0,0,1,463.484,337.8516Z"/><path class="cls-48" d="M426.7918,448.5068q0.5667,1.0351,1.1353,2.07a11.4071,11.4071,0,0,1-8.8564-.0024q0.5627-.1723,1.1272-0.3446c1.3895-.6929-0.035-2.9035,1.8064-3.3586,1.64-.1189,3.3125-0.7291,4.8822.3044A1.1992,1.1992,0,0,1,426.7918,448.5068Z"/><path class="cls-49" d="M287.708,183.2478c-1.63,1.3348-3.2572,1.2243-4.5724-.3333a2.89,2.89,0,0,1-.0031-3.8558,2.9321,2.9321,0,0,1,4.5649-.33C285.0483,180.2413,284.4979,181.749,287.708,183.2478Z"/><path class="cls-50" d="M219.18,171.55a3.1447,3.1447,0,0,1,3.9137,2.5565c0.3839,1.4375-.6677,2.3034-1.6586,2.9919-1.9042,1.3231-3.2539.4579-4.264-1.3183C219.9468,175.3711,220.28,173.8008,219.18,171.55Z"/><path class="cls-51" d="M184.7133,185.2744c-3.7014-2.2884-7.786-.55-11.65-1.1133-2.1393-.3117-4.5551.9017-6.3847-1.1406,5.2,0.0395,10.402.0105,15.5978,0.1761C183.351,183.231,186.0294,182.1355,184.7133,185.2744Z"/><path class="cls-47" d="M447.6536,329.5151q0.0316-.5246.0414-1.05a19.807,19.807,0,0,1,7.6316,3.8239l-0.3454.3616c-2.6829,1.7158-5.2758,1.9945-7.6977-.48A2.5305,2.5305,0,0,1,447.6536,329.5151Z"/><path class="cls-52" d="M390.8578,436.8336a3.29,3.29,0,0,0-2.1025,3.6294,14.79,14.79,0,0,1-5.1884-3.7808c0.1663-.1856.3326-0.3712,0.4957-0.5609,1.9944-.9944,3.8819-2.3579,6.3181-1.8678A1.617,1.617,0,0,1,390.8578,436.8336Z"/><path class="cls-53" d="M380.262,433.7172l8.5059-3.2187c0.9971,0.4829,1.6151,1.1342,1.0349,2.32-1.9732,1.2456-4.49,1.586-6.0155,3.5895l-0.221.2737A6.5013,6.5013,0,0,1,380.262,433.7172Z"/><path class="cls-54" d="M242.5114,118.8381l1.9487,3.1148c-0.09,1.8237.6815,3.8049-.9748,5.3438q-0.4737.02-.9474,0.0472C240.2953,124.5157,240.3153,121.68,242.5114,118.8381Z"/><path class="cls-55" d="M159.173,86.146c0.7779,2.0521-.6805,4.4982,1.1226,6.37-0.56.6939-1.601,1.4435-1.7284,0.1382C158.3585,90.5155,157.7856,88.1929,159.173,86.146Z"/><path class="cls-56" d="M242.5114,118.8381q0.0127,4.2526.0262,8.5053c-4.1739,18.129-28.9215,25.766-44.2248,14.0632-10.4761-8.0117-11.415-22.101-2.0769-31.6835,12.73-13.0632,34.7622-11.6155,43.78,2.8331A21.26,21.26,0,0,1,242.5114,118.8381Z"/><path class="cls-57" d="M194.2861,92.0152c2.5627,1.9351,5.7847,4.2751,8.8557,6.799,0.4035,0.3316.3127,1.7558-.0412,2.4063a1.9629,1.9629,0,0,1-2.7036.63q-0.0425-.0264-0.0836-0.055c-2.9235-1.8758-5.7536-3.9042-8.5456-5.9739a2.062,2.062,0,0,1-.485-2.8222C191.7371,92.1837,192.4473,91.7411,194.2861,92.0152Z"/><path class="cls-58" d="M189.7891,100.0162c2.3343,2.1234,6.979.9606,8.1486,5.0263,0.4235,1.4713-1.3614,2.5879-2.8494,2.003-2.9409-1.156-6.8383-1.0254-8.218-4.5773C186.2975,100.9935,187.9268,100.145,189.7891,100.0162Z"/><path class="cls-59" d="M261.3154,429.5463a59.901,59.901,0,0,1-23.0153-.0015Q249.8087,429.5466,261.3154,429.5463Z"/><path class="cls-60" d="M284.69,101.0074c8.8651,0.0763,16.3635,3.2679,22.0449,10.1442,8.1406,9.8526,6.1937,23.4169-4.2721,30.7457-11.0494,7.7376-27.7165,6.3322-37.0662-3.3592-6.1509-6.3758-8.6752-13.9067-5.3637-22.5456,3.6561-9.5379,11.4193-13.6017,20.9878-14.9618A26.32,26.32,0,0,1,284.69,101.0074Z"/><path class="cls-61" d="M300.2241,102.2683c-2.2259-.4-3.47-1.71-2.0338-3.2089a27.2189,27.2189,0,0,1,10.1033-6.9841,1.8211,1.8211,0,0,1,2.113,2.8112C307.6409,98.1882,303.7968,100.28,300.2241,102.2683Z"/><path class="cls-62" d="M315,101.9071a2.3846,2.3846,0,0,1-1.7618,2.4936c-1.9005.8121-3.8556,1.5-5.735,2.3567-1.6619.7572-3.1858,0.7941-3.8476-1.09-0.5855-1.6671.812-2.4852,2.1272-3.0409,2.0624-.8715,4.1308-1.7522,6.258-2.4391A2.1191,2.1191,0,0,1,315,101.9071Z"/><path class="cls-63" d="M221.5507,187.2441c-2.0211-.0164-3.2282-0.9709-3.2384-3.08-0.0085-1.7771.8378-3.1164,2.7263-2.9614,1.7368,0.1426,3.4166.8519,3.3975,3.0795A2.772,2.772,0,0,1,221.5507,187.2441Z"/><path class="cls-50" d="M277.6879,181.1068a2.8243,2.8243,0,0,1,2.5772,3.407c-0.1306,1.5762-1.0057,2.7119-2.6694,2.6-1.9579-.1313-2.5887-1.5684-2.4645-3.3355A2.6642,2.6642,0,0,1,277.6879,181.1068Z"/><path class="cls-17" d="M455.0746,333.607l0.94,1.9348c-1.0067,2.51-3.0582,2.1812-5.1951,2.1122-3.2286-.1043-6.3311-1.5072-9.6142-0.8613q-0.3229-.0307-0.6445-0.0737c-1.5022,1.4752-3.4882,1.4455-5.3744,1.7323-3.9329.598-7.9378,0.84-11.6812,2.3536-2.9636.027-5.25,1.9692-7.9158,2.838a18.8083,18.8083,0,0,1-2.78.7246,13.7041,13.7041,0,0,0-1.8931.6481c-1.25.7278-2.7336,1.1982-3.076,2.8875,0.5517,3.39,3.7022,5.3257,4.6869,8.4605-0.2885,1.9674-1.5643,2.4694-3.3277,2.2567-3.145-.9369-4.6486-3.6079-6.3766-6.0331-0.5676-.9227-1.205-1.6752-2.44-0.96-2.5,1.3725-4.5442,3.3586-6.8747,4.9438-4.1288,2.6181-7.2676,6.4142-11.1165,9.3608-1.2564,1.0294-2.8721,1.4458-4.1626,2.4245l-7.4019,9.4987,0.06-.0641c-1.7412.9046-2.3917,2.6414-3.2308,4.2343-1.0457,3.0126-1.8013,6.3668-6.2817,5.3369-0.3754-3.0867,1.7474-5.0809,3.2194-7.3594,0.72-2.7756,2.5934-4.862,4.222-7.0968,2.0705-3.1165,5.24-5.2632,7.34-8.3559a10.695,10.695,0,0,1,2.496-2.4883,42.02,42.02,0,0,0,7.381-7.3294,3.66,3.66,0,0,1,1.1895-.6958c1.8495-.4817,2.9263-2.0623,4.3757-3.1115a21.11,21.11,0,0,0,3.5053-3.2377c3.8421-2.3741,7.6059-4.8924,11.8588-6.5142a17.0825,17.0825,0,0,0,4.3125-1.848,7.302,7.302,0,0,1,2.4167-1.0262,6.9921,6.9921,0,0,0,3.3-1.8294,4.1268,4.1268,0,0,1,1.2947-.3482,15.5216,15.5216,0,0,0,5.9325-1.2969,41.2993,41.2993,0,0,1,6.979-1.8c1.9058,0.4072,3.6623-.3674,5.4822-0.6954C442.8962,331.6043,448.9616,332.9421,455.0746,333.607Z"/><path class="cls-64" d="M392.96,355.7081a27.6964,27.6964,0,0,1,7.3725-5.23,3.4516,3.4516,0,0,1,1.0164,1.0411,34.55,34.55,0,0,0,3.9141,6.54c1.4141,1.8316,2.9011,2.1763,4.6384.4678a1.9488,1.9488,0,0,1,2.0359.3528,96.8338,96.8338,0,0,1-6.2712,14.8864q-0.0832-.7158-0.1675-1.4332c-4.876-3.9111-8.48-8.9311-12.1428-13.9053A2.686,2.686,0,0,1,392.96,355.7081Z"/><path class="cls-21" d="M389.8857,393.7243a4.98,4.98,0,0,1,1.0488-.0342c1.7141,0.3018,4.6781-1.23,4.8316,1.3111,0.1639,2.7068-2.94,1.43-4.6211,1.8094-1.1641.2625-2.4842-.0737-3.3895,1.03a4.3363,4.3363,0,0,1-3.1009,1.3492c-3.5584.645-7.181,0.2916-10.759,0.6692-2.5214.3675-5.036,0.7972-7.5674,1.0737-1.1137.1217-2.71,0.6842-3.1932-.7152-0.6545-1.8962,1.1823-2.05,2.4059-2.5053,2.3533-2.4515,5.7-1.8448,8.5408-2.7884a9.15,9.15,0,0,1,2.754-.78c1.7386,0.0979,3.5064.6083,5.1839-.3376a5.7089,5.7089,0,0,1,2.5914-.7142C386.412,392.947,388.0364,394.2589,389.8857,393.7243Z"/><path class="cls-65" d="M384.3834,393.5968l-2.1088,1.098c-1.7637-.1233-3.5336.4272-5.2941-0.0487l-2.1455,1.1169c-3.8363.1263-7.6134,0.97-11.462,0.9468q-0.8679-.0361-1.7341-0.0731c-0.5789-5.0947,3.8356-3.0605,6.0158-4.2146,2.4126-1.8466,5.2842-2.1038,8.1551-2.365,3.6124-.2238,7.1555-1.7564,10.8449-0.5994,1.5895,0.25,3.8075-.8928,4.5467,1.2512,0.5169,1.4992-1.1658,1.7556-2.3571,1.9634A4.81,4.81,0,0,1,384.3834,393.5968Z"/><path class="cls-66" d="M378.2291,368.3564a6.593,6.593,0,0,1,3.1439-3.1684,66.79,66.79,0,0,1,15.87,15.612c0.8609,1.0581,3.6666,1.17,2.332,3.2225-1.36,2.0918-3.2166.3368-4.452-.6143a98.0805,98.0805,0,0,1-14.1076-13.037C380.2314,369.4748,379.7214,368.2515,378.2291,368.3564Z"/><path class="cls-66" d="M379.2791,375.7172c-1.2579-.9416-2.962-2.018-1.4344-3.6712,1.2851-1.3908,2.5046.1132,3.4686,1.0672q6.68,6.6121,13.3158,13.27c0.86,0.8583,2.1187,1.8526,1.2477,3.072-1.2222,1.7112-2.6288.2219-3.5194-.5587A78.62,78.62,0,0,1,381.39,377.7949,3.4316,3.4316,0,0,1,379.2791,375.7172Z"/><path class="cls-67" d="M389.7275,398.6566c1.301,0.5087,3.6674-.8506,3.7966,1.4321,0.083,1.4655-1.9965,1.6277-3.3351,1.8724-7.2054,1.3177-14.42,2.5858-21.6256,3.9006-1.0368.1895-2.2173,0.6557-2.6879-.6582-0.6123-1.7094.7994-2.0617,2.0079-2.34,3.0605-.7053,6.1339-1.3543,9.2021-2.0258,2.8469-1.9752,6.2105-1.8211,9.4231-2.2868A5.4539,5.4539,0,0,1,389.7275,398.6566Z"/><path class="cls-68" d="M397.2427,380.7994a89.4115,89.4115,0,0,1-15.87-15.6119c4.0308-2.9535,7.0837-7.1025,11.5867-9.4789l1.0674,1.91a8.2748,8.2748,0,0,1-2.6129,4.4143c-1.8383,2.2439,2.5277,4.0227.4695,6.27-1.3123.8623-2.4-.9684-3.7293-0.3692,2.5179,4.7795,8.1735,6.7985,10.15,11.949Z"/><path class="cls-39" d="M392.8936,405.7985c-3.7972,2.8777-19.7645,5.2536-25.5024,4.1184C369.3629,407.3971,386.0859,404.5515,392.8936,405.7985Z"/><path class="cls-65" d="M373.7587,416.8111c-1.8232-.1444-3.6706.3112-3.7837-1.644-0.0963-1.6662,1.5895-1.38,2.7528-1.595,5.4638-1.0092,10.9089-2.1212,16.38-3.0861,1.1046-.1948,2.8176-0.6582,3.196.8087,0.5036,1.9521-1.3661,2.0253-2.6814,2.2961C384.1828,414.7109,378.7371,415.8028,373.7587,416.8111Z"/><path class="cls-69" d="M366.5848,391.4648c-2.2025.0725-3.9874-.4087-4.1074-3.0976,4.6632-2.6175,9.682-2.67,14.794-2.0543,2.2293-.1288,4.4737-0.14,6.6833-0.4225,1.8863-.2411,2.5.6331,2.59,2.2706-2.9511,3.0715-7.2471,1.0526-10.5513,2.7883C372.8439,390.8741,369.7377,391.5963,366.5848,391.4648Z"/><path class="cls-70" d="M370.8116,422.2069c0.184-.8617.3439-1.8159,1.31-2.1058,5.5247-1.6573,11.0687-3.25,16.5942-4.9053,0.9224-.2763,1.7924-0.3446,2.3452.4852a1.3768,1.3768,0,0,1-.7721,2.13c-6.3641,2.0416-12.4052,5.6-19.5039,4.3376Z"/><path class="cls-18" d="M391.9478,368.4019c0.0031-1.9314-1.6273-2.8964-2.5158-4.3053-1.0447-1.6554-.9521-2.9318,1.4111-3.106a25.2394,25.2394,0,0,1,5.6064,3.9321,6.7809,6.7809,0,0,1,.7549,1.1991c1.1158,2.94,4.2526,4.5066,5.1624,7.5844l1.0647,2.9369c-4.5269,2.0348-6.0359-2.1656-8.6187-4.1551a32.2845,32.2845,0,0,1-2.6307-3.4123C392.1,368.853,392.0239,368.6274,391.9478,368.4019Z"/><path class="cls-71" d="M398.3041,379.8832c-3.5281-3.34-7.0932-6.6421-10.562-10.0431-1.0564-1.0357-2.9838-2.3887-1.7521-3.8521,1.6825-1.9991,2.9068.3953,4.21,1.2894,0.5706,0.3917,1.1642.75,1.7474,1.1239l-0.0487-.0737c0.9858,0.9514,1.5615,2.2352,2.5718,3.17,1.9044,2.1421,4.3775,3.7579,5.8147,6.325Z"/><path class="cls-21" d="M396.086,366.074q0.0211-.4509.0276-0.9022c-1.5633-1.1746-3.2917-2.1946-3.95-4.2169-0.4-1.6822-.4009-3.1409,1.8637-3.3346,3.4382,5.2058,8.5776,9.087,11.4722,14.7152q-1.5285.0573-3.0554,0.1182A20.3157,20.3157,0,0,1,396.086,366.074Z"/><path class="cls-72" d="M391.7551,421.0319c-1.8122,2.7-12.2509,7.6276-14.7088,6.8122-1.2105-.4014-1.0082-1.6457-0.9895-2.6737q5.1474-1.759,10.2958-3.5195C388.11,421.0477,389.7947,419.85,391.7551,421.0319Z"/><path class="cls-65" d="M374.07,382.0575a38.8826,38.8826,0,0,1,4.11-.04c1.37,0.122,3.6779-.94,3.75,1.29,0.0595,1.8471-2.1684,1.7313-3.6842,1.8726-0.6824.0632-1.3637,0.1392-2.0455,0.2093-2.2081,1.1735-4.6448,1.2089-7.0457,1.3812-1.3885.1-2.489-.5529-2.5462-1.9612-0.0579-1.4211,1.0445-2.0364,2.3925-2.2151C370.6863,382.37,372.4689,383.0627,374.07,382.0575Z"/><path class="cls-73" d="M374.07,382.0575a8.57,8.57,0,0,1-.8225.6018c-1.8548,1.0553-6.0756-.5638-5.6384,1.826,0.6644,3.6316,4.2392.6166,6.5351,0.81,0.6827,0.0575,1.37.0622,2.0556,0.0922q0.5358,0.4632,1.071.9248a60.9907,60.9907,0,0,1-14.7936,2.0547q-0.5508-.5029-1.1025-1.0056c3.6535,0.0573,3.76-4.0617,6.282-5.3361Z"/><path class="cls-69" d="M379.2791,375.7172q1.0553,1.039,2.1106,2.0778c-1.8933,1.9-4.4611,2.1664-6.8652,2.8142-2.4226.6526-3.4737-.5258-3.6378-2.8184l-0.06.064C373.6666,377.23,376.6806,377.2949,379.2791,375.7172Z"/><path class="cls-74" d="M386.74,398.9266c-3.0581,1.4432-6.4025,1.4413-9.654,1.9117-0.81-1.153-2.0766-.8137-3.1895-0.9789a33.178,33.178,0,0,1,10.7274-1.8975C385.1989,398.5706,386.2648,398.1014,386.74,398.9266Z"/><path class="cls-73" d="M363.3729,396.71c3.7547-1.1328,7.5062-2.3053,11.4643-.9474-2.932,1.45-6.1542,1.5063-9.2955,1.95Z"/><path class="cls-40" d="M400.2856,377.8225a30.5082,30.5082,0,0,1-6.3429-6.2934,0.7834,0.7834,0,0,1,1.32-.1082c2.906,1.4553,3.87,5.9484,8.1693,5.2228C402.7743,378.08,401.46,377.7634,400.2856,377.8225Z"/><path class="cls-75" d="M376.1224,390.4637c3.2438-1.8131,7.2-.3963,10.4234-2.3012q0.0535,0.6459.1087,1.2947c-3.352,1.5252-7.0388,1.1671-10.5369,1.8737q-0.5133-.2916-0.34-0.58A0.464,0.464,0,0,1,376.1224,390.4637Z"/><path class="cls-76" d="M396.086,366.074a30.7435,30.7435,0,0,1,6.3579,6.38q-0.0383.6249-.0771,1.2517C399.8593,371.5028,396.8268,369.7313,396.086,366.074Z"/><path class="cls-77" d="M384.3834,393.5967a6.9621,6.9621,0,0,1,4.46-.9253l1.0421,1.052C388.0209,395.0085,386.1794,395.2822,384.3834,393.5967Z"/><path class="cls-78" d="M386.74,398.9266q-1.0587-.4832-2.1167-0.9657,1.5663-.06,3.1317-0.1208,0.9869,0.4093,1.9728.8175Q388.2337,398.7911,386.74,398.9266Z"/><path class="cls-17" d="M427.6285,342.952q0.0308,0.5763.0615,1.1524c0.2316,2.0619-.8665,3.7023-1.7221,5.4182-12.2573,24.5829-21.3207,50.2181-25.2222,77.5053-0.5916,4.1368-.3346,8.3933-0.5256,12.5918-0.0594,1.3053.3829,3.2965-1.6327,3.22-1.979-.075-1.4452-2.0781-1.4509-3.3586-0.0623-13.9284,2.71-27.4139,6.2481-40.8092,3.9927-15.1148,10.3481-29.3424,16.0249-43.8287,0.71-3.7579,2.8248-6.8933,4.52-10.2177C424.7513,343.1554,425.6808,341.9262,427.6285,342.952Z"/><path class="cls-18" d="M411.0028,430.5512c0.38,4.8947-1.5405,9.6991-.3816,14.6819,0.3709,1.5948-.3864,3.6981-2.9856,2.0449-0.4339-8.1595-2.2794-16.301-.3206-24.4869,0.5589-4.0285,1.7287-7.9456,2.2757-11.979,0.7407-2.8813,1.5311-5.7544,2.1588-8.6661,0.7814-2.4454,1.2275-4.9889,2.0722-7.4175,0.4927-1.3761.9849-2.7552,1.4376-4.1465,0.6706-1.7551,1.2336-3.5482,1.7723-5.3491a10.3115,10.3115,0,0,1,.4912-1.3133,15.4256,15.4256,0,0,0,1.6586-4.5656,27.41,27.41,0,0,1,1.4161-4.2068c3.7717-8.6172,6.5272-17.7013,11.8059-25.6286,4.04-.9334,5.2667.0664,4.2082,3.6481-0.8284,2.8031-2.48,5.2737-3.6536,7.9415a231.6615,231.6615,0,0,0-15.7824,43.5484c-0.7111,2.6091-1.735,5.162-1.4716,7.9579a4.61,4.61,0,0,1-.3481,1.4553,21.2926,21.2926,0,0,0-2.0449,8.6978C412.9989,425.5007,412.7758,428.2569,411.0028,430.5512Z"/><path class="cls-17" d="M418.2246,384.3054q0,0.4456.0012,0.8911c-1.4972,1.26-1.6327,3.2347-2.5274,4.8135a22.6293,22.6293,0,0,0-1.2066,4.89,25.3944,25.3944,0,0,0-2.0936,7.3,62.1588,62.1588,0,0,0-2.1185,8.5328,72.7772,72.7772,0,0,0-2.108,11.5518c-1.2665,4.7873-.5769,9.8963-2.416,14.5863a29.6555,29.6555,0,0,1-.2262,3.666c-0.2827,1.5673.8408,4.2851-1.548,4.3444-2.5563.0632-1.6175-2.67-1.522-4.162,0.3453-5.3969.6877-10.8179,1.5093-16.1563a255.2659,255.2659,0,0,1,24.401-75.5389,8.7624,8.7624,0,0,0,.4445-1.5018c2.3771-1.3665,3.7271-.9116,3.6592,2.057-4.0808,8.1749-7.8632,16.4882-11.1317,25.0275-0.423,1.4283-1.1519,2.7388-1.6336,4.1455C419.3916,380.65,418.28,382.3365,418.2246,384.3054Z"/><path class="cls-17" d="M415.0154,413.7465q0.0356-.5077.0574-1.0161c-0.2068-2.4382.9665-4.6132,1.3234-6.9453a235.2628,235.2628,0,0,1,15.7369-44.0083c1.3911-2.8265,2.6816-5.7053,4.2181-8.4553,0.8619-1.5427,1.7815-3.2351,4.0263-1.7865l-0.0737-.0695c1.2672,1.4614.6645,2.881-.0939,4.2959-0.9126,1.78-1.7293,3.6105-2.6457,5.39-1.9661,3.4323-3.1226,7.2275-4.82,10.7805-1.2334,2.9511-2.2906,5.9724-3.5579,8.91a23.069,23.069,0,0,0-1.7734,4.8589c-1.2273,4.0806-2.6084,8.11-3.9976,12.1342-0.3974,1.8284-1.763,3.4927-.9446,5.5308q-0.0138.3434-.008,0.6869c-3.5106,6.73-3.4406,14.3356-5.2316,21.4863a6.0293,6.0293,0,0,1-.9757,2.89l-0.1854,5.0632c-1.2632,4.5185.2006,9.203-.8364,13.7354-2.4467,1.608-3.12.0444-3.2585-1.9659-0.1436-2.0833-.016-4.1852-0.0071-6.2789,1.6139-4.3837-.76-8.9083.4688-13.3044C413.3322,421.7095,412.9121,417.4555,415.0154,413.7465Z"/><path class="cls-79" d="M416.2559,428.4294c0.4238-7.6707,2.3158-15.0737,4.0768-22.5026a2.1519,2.1519,0,0,1,2.13-1.8728c-2.4246,9.767-3.6286,19.75-5.2346,29.6637C416.865,431.9628,417.844,429.96,416.2559,428.4294Z"/><path class="cls-80" d="M440.3779,351.5349c-3.5766.0006-3.5625,3.3326-4.8868,5.3684a56.2538,56.2538,0,0,0-2.6519,5.0829c-0.9341.1337-1.5668,0.0023-1.0231-1.1635,1.2541-2.83,2.6877-5.5964,3.7128-8.5069,1.064-3.021-.0643-3.6235-2.634-1.8685a0.7847,0.7847,0,0,1-1.2563-.0564c0.524-2.3984-.2016-3.5684-2.8242-2.87,0.3779-1.5946,2.366-.9755,3.0185-2.1921C434.8736,347.1322,438.0717,348.7193,440.3779,351.5349Z"/><path class="cls-79" d="M405.7556,436.8707c0.2612-5.0094.4244-10.0324,2.09-14.844q0.4045-.7092.8072,0.0012a192.1125,192.1125,0,0,0-1.0165,25.25C405.1159,444.1509,408.1041,440.0288,405.7556,436.8707Z"/><path class="cls-81" d="M413.0349,425.3643c-0.4976,4.5278.8276,9.1984-1.0667,13.6175-0.5608-2.7827.902-5.7984-.9659-8.4316-0.5322-2.9275,1.06-5.6019,1.0124-8.4722C414.5134,422.5033,413.2686,424.0907,413.0349,425.3643Z"/><path class="cls-82" d="M424.4162,345.1448q-2.5043,4.8482-5.0077,9.6974l-1.0765-1.1789q2.5072-4.8653,5.0134-9.7316A1.6219,1.6219,0,0,1,424.4162,345.1448Z"/><path class="cls-83" d="M415.2342,447.2275c0.2632-4.579-.998-9.25.8367-13.7343C415.7058,438.0654,417.1753,442.75,415.2342,447.2275Z"/><path class="cls-18" d="M472.0264,419.9074c-0.7178,2.5209,1.0351,7.3936-1.5343,7.2394-3.5325-.212-1.4124-4.7551-1.6011-7.359-0.349-4.8121-.1454-9.6643-0.1721-14.4994a2.2116,2.2116,0,0,0-1.0342-2.2128c-0.37-1.7848.25-3.5671,0.0151-5.3516a6.47,6.47,0,0,0-1.0526-4.0421q0.0187-1.6406.0005-3.2813-0.0257-.5738-0.0513-1.1474c-1.7657-2.0632-.9563-4.9674-2.3378-7.1561,0.0835-1.5036-1.3464-2.7437-.7572-4.3357q-0.0167-.5214-0.0349-1.0427c-1.74-.906-1.7942-2.8227-2.5821-4.3009-4.9179-11.2556-12.0435-20.7241-22.3005-27.686-1.1305-.7674-2.3664-1.52-2.8194-2.974,1.154-3.5809,3.294-2.6493,5.5428-1.2161,12.0386,7.0421,19.2728,17.8558,24.0179,30.6211,1.48,2.4343,1.6376,5.34,2.8121,7.8842,0.5038,1.48.628,3.0546,1.1439,4.5325,0.5,3.3973,2.0105,6.6383,1.5559,10.18l1.1158,2.1593c0.03,2.3918-.2105,4.8014.4679,7.1553-0.2334,2.6121.789,5.1331,0.5357,7.7457A80.82,80.82,0,0,1,472.0264,419.9074Z"/><path class="cls-83" d="M464.6535,371.4463a67.2861,67.2861,0,0,0-23.3158-30.3275,0.6219,0.6219,0,0,1-.2737-0.7277,0.4674,0.4674,0,0,1,.2966-0.3547c13.156,6.0246,19.9069,17.2153,24.3875,30.237C466.2026,371.4288,465.6225,371.6189,464.6535,371.4463Z"/><path class="cls-84" d="M464.4844,355.7539a76.5874,76.5874,0,0,1,11.6916,34.5707c0.2727,1.2653,1.4854,2.8195-.9955,3.2384-2.1107-12.8167-5.6066-25.1895-11.7572-36.713C462.9884,355.7215,463.5287,355.5365,464.4844,355.7539Z"/><path class="cls-36" d="M441.36,340.0364q-0.0105.54-.0223,1.0813c-1.7979-.0669-4-2.4849-5.2037.8967,0.2572,0.9967.0122,1.4868-1.1058,1.0966-1.6621-.813-3.2878-1.7143-4.9953-2.4172-2.3011-.9474-3.2924-0.29-2.4039,2.2593a4.44,4.44,0,0,0-3.2122,2.1921q-0.5354-.6062-1.07-1.2128,0.0222-.8154.0465-1.6283c-0.3105-.7678-1.6039-1.14-0.9282-2.3053a48.7787,48.7787,0,0,1,18.0947-3.28Q440.9615,338.3776,441.36,340.0364Z"/><path class="cls-85" d="M441.2057,336.7923c3.0455-1.7863,6.3018-1.1286,9.4415-.566,1.9585,0.351,3.7.5428,5.3684-.6837q0.0641,0.6759.13,1.355-0.5183,1.6082-1.0367,3.216C450.5309,338.7722,445.3822,339.8162,441.2057,336.7923Z"/><path class="cls-86" d="M472.0264,419.9074q0.0058-4.7694.0117-9.5387c1.0021-1.2747-.2743-3.0963,1.0316-4.2981,1.66,2.7648.7263,5.772,0.8112,8.6847C472.0991,416.0546,473.8187,418.6134,472.0264,419.9074Z"/><path class="cls-82" d="M475.1806,393.5629c1.1652-.8225.8754-2.0923,0.9951-3.2374,1.8232,2.9679.7,6.2877,1.1237,9.422-0.2171,1.1348.1222,2.4551-1.0778,3.266Q475.7016,398.2876,475.1806,393.5629Z"/><path class="cls-68" d="M470.8376,393.7607a43.7343,43.7343,0,0,1-2.1062-10.67,0.5618,0.5618,0,0,1,.9331-0.0065C470.5892,386.5842,472.8339,389.94,470.8376,393.7607Z"/><path class="cls-87" d="M464.6535,371.4463l1.0927-1.1718c1.9979,2.1548,1.9062,5.0842,2.8316,7.6375-0.3339.3614-.2947,1.0568-0.9844,1.0995Z"/><path class="cls-29" d="M473.07,406.0705c-0.3411,1.4339.4,3.1278-1.0322,4.2987q-0.0884-4.1247-.178-8.2481c-0.4659-1.0526-1-2.1368.9474-2.1015Q472.9383,403.0449,473.07,406.0705Z"/><path class="cls-83" d="M477.0048,373.622c1.3557,2.2681,1.6669,4.843,2.1638,7.3635-0.3138.4632-.6252,0.4842-0.9337-0.0052L476.2,373.6A0.452,0.452,0,0,1,477.0048,373.622Z"/><path class="cls-86" d="M472.8069,400.02q-0.4737,1.05-.9474,2.1008c-1.5428-2.0918-1.1863-4.1556.0932-6.2033C473.4156,397.0411,472.8084,398.5935,472.8069,400.02Z"/><path class="cls-88" d="M457.1891,340.9867c1.9418,1.3623,4.0094,2.6256,4.2157,5.3554C459.5568,344.9067,457.3532,343.7491,457.1891,340.9867Z"/><path class="cls-89" d="M464.4844,355.7539l-1.06,1.0957q-1.5013-2.1595-3.0017-4.32a1.8379,1.8379,0,0,1,.981-1.0606Z"/><path class="cls-36" d="M467.5935,379.0114q0.4931-.55.9854-1.1c0.2255,1.7534,1.5053,3.2842,1.0863,5.1728q-0.4674.0022-.9337,0.0065C467.4334,381.9871,467.8085,380.417,467.5935,379.0114Z"/><path class="cls-90" d="M480.33,388.1645c1.17,0.9207,1.0695,2.1779.9137,3.45a2.0125,2.0125,0,0,1-.9975,1.0293C478.9721,391.1262,478.8234,389.63,480.33,388.1645Z"/><path class="cls-87" d="M461.4032,351.4692q-0.4912.5306-.9816,1.061c-0.5826-1.377-2.3847-2.0035-2.4149-3.8822C459.99,348.6975,460.559,350.2507,461.4032,351.4692Z"/><path class="cls-36" d="M478.2348,380.98q0.4675,0.0009.9343,0.0052c-0.021,1.45,1.8737,2.8511.1083,4.3456C477.947,384.117,478.2767,382.5042,478.2348,380.98Z"/><path class="cls-75" d="M477.0048,373.622q-0.403-.0066-0.8052-0.021c-1.5527-1.0611-.9707-2.7579-1.25-4.1986a0.5636,0.5636,0,0,1,1.0264.0632Z"/><path class="cls-91" d="M475.976,369.4651q-0.5114-.04-1.0252-0.0632c-0.9491-.9025-1.9474-1.79-0.9369-3.2565C475.22,366.9254,475.5259,368.2378,475.976,369.4651Z"/><path class="cls-78" d="M480.2461,392.6436l0.9983-1.03q0.093,2.6009.1882,5.2a9.052,9.052,0,0,1-1.0335-.0894Q480.323,394.6838,480.2461,392.6436Z"/><path class="cls-92" d="M468.6123,349.15l-5.37-6.2263C467.0629,344.19,468.4266,346.1408,468.6123,349.15Z"/><path class="cls-86" d="M471.1605,351.48a10.4506,10.4506,0,0,1,3.3281,6.4948C472.2516,355.7578,471.2456,353.9081,471.1605,351.48Z"/><path class="cls-93" d="M480.9867,374.58a10.0858,10.0858,0,0,1-1.8747-6.3072C480.82,370.4908,481.3716,372.3808,480.9867,374.58Z"/><path class="cls-94" d="M483.5,385.1915c-1.5566-1.1752-.956-2.672-0.9338-4.7564,1.4236,1.8747.6842,3.3916,0.92,4.7664Z"/><path class="cls-95" d="M444.5147,355.7048c3.8356,3.1236,7.0605,6.6925,8.458,11.5946-2.7684,2.3486-6.4054-1.2087-9.1338,1.3505a9.849,9.849,0,0,1-.8737.9818c-0.9175.83-1.956,1.5789-2.0176,2.9925a6.3249,6.3249,0,0,1-.8813,2.297,11.9975,11.9975,0,0,0-.9433,2.1861,4.9144,4.9144,0,0,0-.2492,2.3714c1.0694,2.0105,4.0105,1.6448,4.8855,3.8755a1.9655,1.9655,0,0,1-1.323,1.609c-1.2649.5465-2.5919,0.1082-4.0058,0.1959,3.6811,2.397,8.7434,1.339,11.6692,5.1314a2.0331,2.0331,0,0,1-.1629,1.4046c-3.2326,1.9815-6.2072-.2365-9.301-0.5695-1.2155-.1308-3.0407-0.9052-2.1177,1.7013a2.0126,2.0126,0,0,1-1.2373,1.5826,10.508,10.508,0,0,1-2.3871.5539c4.2774,2.3676,9.5174,1.3919,13.0088,4.8917a1.6656,1.6656,0,0,1-.9579,1.8053c-4.5684,1.0225-8.8428-.9863-13.2842-1.3a0.7473,0.7473,0,0,0-.49.0416c-0.2393.6642,0.4526,0.7774,0.7634,1.1435a1.906,1.906,0,0,1,.485,1.2515c-0.4554,2.9932-5.8794,2.4651-4.6818,6.6241-1.0592,2.2563-3.2766,2.2737-5.7966,2.995C428.0776,392.2411,435.727,373.7712,444.5147,355.7048Z"/><path class="cls-21" d="M420.4353,438.0765l-0.0421-1.4613a11.3267,11.3267,0,0,1,1.3406-1.7777c8.5873-4.9158,17.8168-8.6029,26.2917-13.7474,2.0842-1.2652,4.0684-2.6475,6.0211-4.0895,1.9348-1.1158,3.331-2.8761,5.0526-4.2516,1.4153-.9277,2.9573-1.3424,4.0775.2085,1.0374,1.4362.3544,2.914-.6455,4.198-1.6238,1.3844-3.1953,2.8364-4.8087,4.238a10.83,10.83,0,0,1-1.1384.7833,22.1176,22.1176,0,0,0-5.7588,4.635c-2.0784,1.0718-4.0737,2.2982-6.1789,3.3239a31.2063,31.2063,0,0,0-8.2343,4.0724,12.66,12.66,0,0,1-2.0105.8333c-3.48,1.1833-6.5307,3.3053-9.9734,4.58A3.3075,3.3075,0,0,1,420.4353,438.0765Z"/><path class="cls-17" d="M456.11,420.9865q0.392,0.0019.7841,0.0028c2.2842-.313,3.1158-3.7236,5.9843-2.8042a1.92,1.92,0,0,1,1.0356.9746c0.1313,3.3186-2.2446,4.8889-4.5615,6.4526a188.1735,188.1735,0,0,1-28.2114,15.6657c-0.4252.2358-.8687,0.4382-1.3117,0.6365a32.54,32.54,0,0,0-5.0248,2.74,4.9273,4.9273,0,0,1-1.4268.3618,3.1579,3.1579,0,0,1-3.0034-1.8144l0.0105-1.3125c0.8463-1.6705,2.4416-2.1329,4.077-2.5294,2.9909-2.1719,6.9644-2.7137,9.4637-5.7028l2.2221-.0526a36.3014,36.3014,0,0,1,8.2594-4.0132c1.8226-1.8223,3.699-3.5412,6.5424-3.3977C451.9689,423.7631,455.1315,423.4575,456.11,420.9865Z"/><path class="cls-96" d="M423.4936,415.7246c6.6921-2.248,13.7485-3.876,17.87-10.499-0.2806-1.043.36-1.5292,1.1579-1.9257a8.0119,8.0119,0,0,1,7.19,1.5306,1.5424,1.5424,0,0,1-.5017,2.1228l-0.0322.0194c-6.4679,3.4595-12.7822,7.2233-19.4824,10.2458-2.0211.9118-4.0324,2.3564-6.38,0.7712A1.913,1.913,0,0,1,423.4936,415.7246Z"/><path class="cls-84" d="M423.4936,415.7246q0.0384,1.142.0766,2.2842c1.051,1.1236,2.545,1.5748,3.7536,2.4666a1.5386,1.5386,0,0,1,.507,1.7817c-2.0618,1.828.3243,1.97,1.0536,2.745a1.83,1.83,0,0,1,.1217,1.34c-1.6723,2.1053-5.1644,2.3044-5.7618,5.5289-0.4453,1.3712-.7329,2.8174-1.8553,3.8578q-0.4982.4447-.9959,0.8879C421.03,429.5923,421.1652,422.4959,423.4936,415.7246Z"/><path class="cls-97" d="M429.7373,409.4207c-2.4421-.4648-3.8831-1.4211-1.1611-3.4477a42.8034,42.8034,0,0,1,5.4205-2.9782c3.6563-.6546,3.0995,1.2574,2.0965,3.4413C433.78,407.0158,432.344,409.4649,429.7373,409.4207Z"/><path class="cls-98" d="M432.0664,371.57c1.7684-3.5053,2.2915-7.62,5.1771-10.5782a0.54,0.54,0,0,1,.9336-0.0316,50.1749,50.1749,0,0,1-5.1234,11.7295C432.4268,372.579,432.3763,371.96,432.0664,371.57Z"/><path class="cls-74" d="M422.635,397.9089l4.0785-12.6824c0.98-.2138,1.5123.0027,1.09,1.1354a56.3551,56.3551,0,0,1-4.2,12.664C422.9651,398.9271,422.9227,398.3118,422.635,397.9089Z"/><path class="cls-74" d="M436.0936,406.436c-0.0288-1.555.1368-3.2284-2.0963-3.4406q0.0043-.4031-0.0074-0.8048c3.3425-1.5872,6.329-1.555,8.5662,1.8842l-1.1918,1.151C439.403,404.7413,437.8613,406.0814,436.0936,406.436Z"/><path class="cls-99" d="M432.0664,371.57l0.9866,1.1193q-1.6737,4.64-3.348,9.2791c-0.9588.2061-1.5053,0.0179-1.0648-1.1137Z"/><path class="cls-100" d="M420.374,443.2016l3.094,0.9439c0.7,1.4226.0637,2.3922-1.0817,3.1895-1.2737.5553-.6028,2.579-2.1885,2.8966Q420.2857,446.7151,420.374,443.2016Z"/><path class="cls-101" d="M439.48,355.8008q0.4124-2.1675.8246-4.3352a6.2938,6.2938,0,0,1,3.2074,3.2526c-1.583-.1025-2.1206,1.367-3.1507,2.0956A1.4575,1.4575,0,0,1,439.48,355.8008Z"/><path class="cls-102" d="M439.48,355.8008l0.8811,1.0125a6.7034,6.7034,0,0,1-2.1835,4.1474q-0.4683.0015-.9344,0.0311C437.35,358.9862,438.5619,357.4568,439.48,355.8008Z"/><path class="cls-96" d="M424.531,439.8394q-2.0737,1.0259-4.1465,2.0508,0.0249-1.91.05-3.8162a5.5894,5.5894,0,0,0,4.0616.5433,0.731,0.731,0,0,1,.3247.8062A0.5032,0.5032,0,0,1,424.531,439.8394Z"/><path class="cls-103" d="M428.64,380.8547l1.0655,1.1143q-0.9522,2.1951-1.9024,4.3922l-1.09-1.1349A6.9856,6.9856,0,0,1,428.64,380.8547Z"/><path class="cls-11" d="M422.6351,397.9089l0.9675,1.1158q-0.5646,2.1695-1.1311,4.3392C420.3052,401.4805,422.441,399.7239,422.6351,397.9089Z"/><path class="cls-104" d="M411.85,355.7277c-3.6105-1.7053-4.171-5.6416-6.2141-8.4934,5.3224-1.0585,7.2714.2526,9.4184,6.3368l-0.93,1.0737A3.0025,3.0025,0,0,1,411.85,355.7277Z"/><path class="cls-73" d="M415.0542,353.5712c-2.8895-2.4842-4.2675-7.2149-9.4188-6.3368,1.673-1.0658,2.8289-3.0306,5.1533-2.9623,1.9377,1.5314,3.2621,3.6773,5.2105,5.1983Q415.5265,351.5211,415.0542,353.5712Z"/><path class="cls-66" d="M415.9989,349.4708c-3.6737.2072-4.5838-2.3537-5.2095-5.1992q0.681-.5423,1.363-1.0865c1.2105,0.627,2.6316.9215,3.4478,2.1717a5.1006,5.1006,0,0,1,1.5895,2.1422A2.0842,2.0842,0,0,1,415.9989,349.4708Z"/><path class="cls-75" d="M422.4648,339.9993q0.4645,1.15.9286,2.3027c-2.94-1.2357-3.5871,1.6829-5.1919,2.8654-0.2065-.0656-0.413-0.1313-0.6222-0.1906a12.2652,12.2652,0,0,1-2.2042-1.3847c-0.1228-.18-0.2421-0.3628-0.3608-0.5461C417.0929,341.04,419.8054,340.5848,422.4648,339.9993Z"/><path class="cls-102" d="M411.85,355.7277a2.1675,2.1675,0,0,1,2.2737-1.083,8.35,8.35,0,0,1-2.1863,4.2356l-2.2868.0411a0.8538,0.8538,0,0,1-.9784-1.2406C410.1736,357.75,411.9831,358.3194,411.85,355.7277Z"/><path class="cls-53" d="M390.8578,436.8336a2.2762,2.2762,0,0,0-.9464-2.1447c-0.9474-.9695.1823-1.5741,0.4089-2.3378a1.056,1.056,0,0,1,1.4792-.8194C391.6509,433.3283,392.6359,435.3263,390.8578,436.8336Z"/><path class="cls-84" d="M417.1892,347.4989l-2.0956-1.2856c-0.4063-1.0105.2421-1.3916,1.0132-1.7017a2.3661,2.3661,0,0,1,2.1482.7114l-0.0526-.0554A2.2748,2.2748,0,0,1,417.1892,347.4989Z"/><path class="cls-52" d="M391.7994,431.5317l-1.0151,1.1663a0.5547,0.5547,0,0,1-.9693-0.2818l-1.0473-1.9179q1.5781-.5661,3.1559-1.133Q391.862,430.4482,391.7994,431.5317Z"/><path class="cls-21" d="M438.1718,392.6918c-1.2366-.3384-3.2219-0.0477-2.92-2.0373,0.2879-1.8992,2.214-1.3818,3.4288-1.1876,3.72,0.5948,7.4029,1.4249,11.1,2.1634a6.06,6.06,0,0,1,3.39.2351c1.52,0.5295,3.0435,1.0526,4.5876,1.52a48.9851,48.9851,0,0,1,5.9644,2.3321l0.7376,2.2875c-1.256,1.37-2.8755,2.3257-4.64,1.7165C452.646,397.2449,444.9868,396.26,438.1718,392.6918Z"/><path class="cls-80" d="M429.7737,441.01c9.65-5.577,19.9512-10.0088,29.0582-16.5462,1.9974-1.4339,4.1641-2.6617,4.5917-5.4023-0.57-1.1389-.8959-2.172.9775-2.2491a19.0242,19.0242,0,0,1-.9492,8.3607q-0.5647.5411-1.1573,1.0518c-8.0363,6.5127-17.6376,10.22-26.7217,14.8461C433.7336,442.0079,431.685,442.7531,429.7737,441.01Z"/><path class="cls-105" d="M442.2664,384.2354l1.2082-1.0063c4.4578-2.0444,7.8532,2,11.8394,2.0291-2.0808-1.486-5.4105-.9623-6.8612-3.8189a2.17,2.17,0,0,1,1.1193-1.7853c3.0468-.8941,5.9374,1.5984,9.0011.4194,0.228-.0435.4565-0.0825,0.6852-0.1216,2.2185,3.15,2.6605,6.8377,3.18,10.5022a3.6825,3.6825,0,0,1-1.4089.8894C454.3116,390.2021,447.4691,389.3818,442.2664,384.2354Z"/><path class="cls-84" d="M435.0282,343.111l1.1053-1.0965a57.3078,57.3078,0,0,1,23.8486,26.6383,30.9741,30.9741,0,0,1,1.2081,3.9053q-0.4183.5724-.7853-0.0342A77.1612,77.1612,0,0,0,435.0282,343.111Z"/><path class="cls-106" d="M439.255,374.4841l1.0684-1.87c4.0776-1.938,7.5263,1.3238,11.3022,1.2211-1.7841-1.48-5.0881-.1771-6.3326-3.0239a2.408,2.408,0,0,1,1.133-1.7851c2.46-.907,5.1533.62,7.5768-0.7169,2.6258,3.4862,4.7609,7.1939,5.2555,11.6421l0.0427-.0344A44.33,44.33,0,0,1,439.255,374.4841Z"/><path class="cls-82" d="M438.1718,392.6918c6.3684,0.6676,12.4015,2.65,18.3684,4.8173,2.6433,0.96,5.2022,1.5684,7.9213.4947q-0.0266,3.0755-.0517,6.1474a1.75,1.75,0,0,1-2.1534.2016c-5.3579-4.7413-12.421-5.0584-18.7544-7.2847-2.2761-.8-5.4608-0.0784-6.4676-3.3737Z"/><path class="cls-80" d="M462.2922,435.7337q-0.3984,0-.7957.0225c0.083-2.7338-.5554-3.3278-3.2677-1.8093-4.6561,2.6067-9.627,4.6477-14.4371,6.9851a8.7306,8.7306,0,0,1-5.4971.9895,0.9828,0.9828,0,0,1,.0939-0.97c7.6481-4.2833,15.1719-8.8114,23.3756-12.0211,1.2632,0.6084,1.3765,1.5542.7939,2.7036Q462.4251,433.6842,462.2922,435.7337Z"/><path class="cls-36" d="M462.49,404.1577l1.92-.0067q-0.0045,6.33-.0085,12.6612-0.4893,1.1238-.9777,2.2481a4.5283,4.5283,0,0,1-.9751-0.2292c-0.6009-.538-1.6781-0.835-1.018-2.0112,0.8163-1.0517,2.27-2.0461,1.0705-3.5415-1.1215-1.398-2.1539.0632-3.1959,0.4608a2.7419,2.7419,0,0,1-.8632-1.2016,4.4441,4.4441,0,0,1-.0146-2.2152,3.6736,3.6736,0,0,1,.7182-1.2585c2.2376-1.0028.8477-2.5908,0.6293-3.9937a2.1053,2.1053,0,0,1,.6679-1.2877A1.6617,1.6617,0,0,1,462.49,404.1577Z"/><path class="cls-107" d="M454.0028,368.31c-1.7444,4.6763-4.9579.7656-7.4165,1.2691-1.72.8541-3.1521,0.6232-4.1859-1.11,0.0994-3.0549,2.37-2.3368,4.085-2.1944,2.1758,0.18,4.3263.6693,6.4874,1.0252Z"/><path class="cls-86" d="M461.17,390.5727l1.2683-.1186c1.0719,1.5975.996,3.4745,1.2842,5.2632-2.4487,1.2066-4.2907-.9735-6.49-1.1654a1.3734,1.3734,0,0,1,.7745-1.6869A7.7957,7.7957,0,0,0,461.17,390.5727Z"/><path class="cls-108" d="M464.497,382.0433a14.663,14.663,0,0,1,2.1,7.2111c-3.2115-1.5158-1.4075-5.0493-2.9188-7.248Q464.1208,381.287,464.497,382.0433Z"/><path class="cls-109" d="M467.7,397.7241c1.8966,1.7895.88,3.57-.0148,5.3517a3.7033,3.7033,0,0,1-.1013-5.2362Q467.64,397.7806,467.7,397.7241Z"/><path class="cls-110" d="M462.5581,431.6344a2.6037,2.6037,0,0,0-1.2328-2.2776c-0.7377-1.6674.0355-2.9412,1.08-4.1443q0.5237-.0257,1.0475-0.0393C463.1952,427.3328,464.2229,429.67,462.5581,431.6344Z"/><path class="cls-111" d="M460.4054,372.5239a7.4178,7.4178,0,0,1,.7871.0344c1.7021,0.87,1.3186,2.8823,2.2747,4.1611C460.776,376.54,460.7959,374.3818,460.4054,372.5239Z"/><path class="cls-112" d="M466.6481,390.4011c1.2614,1.0935,1.43,2.1867-.0005,3.2805C465.4113,392.5884,465.19,391.4946,466.6481,390.4011Z"/><path class="cls-113" d="M464.497,382.0433q-0.4106-.0211-0.82-0.0367c0.1992-1.4255-2.1222-2.7461-.1754-4.2446A7.161,7.161,0,0,1,464.497,382.0433Z"/><path class="cls-15" d="M418.27,336.7779l-1.1841.0385a4.4121,4.4121,0,0,1-3.1474,2.0619l-1.9027,1.05a9.4165,9.4165,0,0,0-4.3282,2.1023c-4.4832,1.5889-7.9768,5.1579-12.6675,6.3315-0.7684,1.7869-2.59,2.3557-3.9684,3.439-1.2039.9717-1.9639,2.5064-3.6438,2.8737q-0.408.0029-.816,0.0073c-2.0287,3.1939-5.3537,5.25-7.3978,8.431l-1.9848,1.9152a57.17,57.17,0,0,0-7.96,7.7444,27.3662,27.3662,0,0,1-4.793,5.8409c-3.7868,2.164-3.1634-.4276-2.87-2.6613,2.7177-3.5361,6.3353-6.3855,8.1211-10.6316l7.4895-8.6231c3.4377-.8126,5.0982-4.0849,7.9309-5.7337a80.3239,80.3239,0,0,1,7.8591-5.7852l2.1158-1.06a62.331,62.331,0,0,1,7.3357-4.6489,37.5952,37.5952,0,0,1,4.6276-2.5828,148.8057,148.8057,0,0,1,21.2621-6.994,18.8018,18.8018,0,0,1,5.6862-.3618q6.8094-.0086,13.6185-0.0167,0.0013,0.9716.0031,1.9421c-3.5536,3.3624-7.9158.83-11.8211,1.6234-1.6793-.0594-3.16,1.74-4.9642.535-1.8758,1.393-4.2184,1.3828-6.3183,2.1022A45.855,45.855,0,0,1,418.27,336.7779Z"/><path class="cls-114" d="M380.3118,347.2613c9.5744-9.2192,21.0458-15.06,33.6453-18.89a1.9053,1.9053,0,0,1-1.2789,2.02c-11.3656,4.3129-21.3368,11.0346-31.13,18.0612C380.4462,348.7712,380.1123,348.293,380.3118,347.2613Z"/><path class="cls-99" d="M434.0354,329.5313a163.671,163.671,0,0,0-27.2582,8.3805c-1.1712.3734-1.4421-.1651-1.2185-1.2036,9.1362-3.9738,18.3168-7.7943,28.4759-8.2278Q434.0257,329.0065,434.0354,329.5313Z"/><path class="cls-115" d="M380.3118,347.2613l1.2351,1.19q-4.2264,3.6471-8.4535,7.2928l-1.184-.0271A41.9445,41.9445,0,0,1,380.3118,347.2613Z"/><path class="cls-116" d="M385.4983,351.2887c-2.73,1.85-3.9348,6.0346-8.281,5.4092a35.06,35.06,0,0,1,7.5554-6.1368C385.3449,350.4741,385.6039,350.7,385.4983,351.2887Z"/><path class="cls-92" d="M402.4284,339.894a14.0335,14.0335,0,0,1-7.3053,4.2249c1.2993-3.3507,4.4329-4.0842,7.3368-5.1454a0.5075,0.5075,0,0,1,.25.6233A0.4163,0.4163,0,0,1,402.4284,339.894Z"/><path class="cls-87" d="M385.4983,351.2887q-0.3651-.3656-0.7278-0.73c2.3813-2.3522,4.5595-5.0132,8.2371-5.3807C391.2493,348.13,388.2015,349.4975,385.4983,351.2887Z"/><path class="cls-117" d="M402.4284,339.894q0.0148-.4613.0316-0.9215a3.1263,3.1263,0,0,1,3.0986-2.2638l1.2175,1.2025A6.5338,6.5338,0,0,1,402.4284,339.894Z"/><path class="cls-85" d="M416.1933,329.3663c0.6885-3.066,2.2878-2.4879,4.1075-1.0268A7.0545,7.0545,0,0,0,416.1933,329.3663Z"/><path class="cls-21" d="M462.4048,425.2127a5.4578,5.4578,0,0,1-1.0793,4.1446c-7.048,5.3421-15.2556,8.5579-23.0316,12.565q-0.1024.6685-.2056,1.3382c-2.1627-.2258-3.847,1.1757-5.788,1.7033-1.9734.5337-3.6511,1.8154-5.6671,2.2413-1.4218-.1625-2.7814,1.7288-4.2471.129l1.0817-3.1887,1.0935-.0124c1.6186-1.2885,3.6959-1.8155,5.2718-3.1749l-0.0595.052c3.2168,0.5,5.6886-1.4253,8.3743-2.6105A205.2993,205.2993,0,0,0,462.4048,425.2127Z"/><path class="cls-90" d="M426.6335,447.2051c1.4557-1.5675,3.4932-2.0586,5.3467-2.89a1.9348,1.9348,0,0,1,1.0744.932q-3.1323,1.6287-6.2638,3.2586Q426.7132,447.8565,426.6335,447.2051Z"/><path class="cls-76" d="M433.0547,445.2471q-0.538-.4673-1.0752-0.9333c2.0773-.1237,3.7143-2.7883,6.1107-1.0546Q435.5709,444.2545,433.0547,445.2471Z"/><path class="cls-118" d="M376.1224,390.4637q-0.0015.4345-.0043,0.8679-4.2316.5449-8.4632,1.0911-0.5351-.4793-1.07-0.9579C369.6175,389.7363,372.9367,390.7353,376.1224,390.4637Z"/><path class="cls-89" d="M364.4771,378.6133c0.6263-2.583,2.7325-4.1232,4.2728-6.0621a1.841,1.841,0,0,1,.9963,1.0375q-2.5765,3.2064-5.1528,6.4132Q364.5358,379.3081,364.4771,378.6133Z"/><path class="cls-101" d="M435.1175,332.6616c4.1542-.6695,8.5295.9619,12.54-1.2047,2.17,2.069,4.912.621,7.3251,1.1929a6.1682,6.1682,0,0,1,.0923.9573l-20.0049-.0008a0.5324,0.5324,0,0,1-.2316-0.6432A0.4219,0.4219,0,0,1,435.1175,332.6616Z"/><path class="cls-119" d="M389.8151,432.4162a3.4979,3.4979,0,0,0,.97.2806q-0.4384.9971-.8744,1.9918c-2.0094.6881-3.7243,2.4259-6.1243,1.7216C383.604,431.767,387.2515,432.9095,389.8151,432.4162Z"/><path class="cls-4" d="M218.1356,110.4553c10.3743-.106,19.1316,7.53,18.8345,16.4221-0.33,9.8842-11.2427,18.3177-22.0211,17.0187-10.1369-1.2216-17.2032-8.3984-16.6593-16.9194C198.8676,117.9193,207.7059,110.5616,218.1356,110.4553Z"/><path class="cls-4" d="M283.3836,110.4553c10.8568,0.0187,19.9943,8.0324,19.9211,17.4712-0.0691,8.9092-8.3995,16.0817-18.6126,16.0255-10.8576-.06-20.0623-8.1188-19.96-17.4761C264.8289,117.552,273.1123,110.4372,283.3836,110.4553Z"/><path class="cls-66" d="M408.6718,357.6807q0.49,0.62.9795,1.24c0.3139,3.4926-1.3053,3.9263-3.5319,1.834-2.658-2.4974-5.0481-5.3381-5.7191-9.1579a2.1285,2.1285,0,0,1,3.0021-.2206l0.0419,0.0371Z"/><path class="cls-85" d="M369.7462,373.5889l-0.9962-1.0374c2.4967-2.8778,4.3674-6.4616,8.4791-7.5212Q373.4881,369.3073,369.7462,373.5889Z"/><path class="cls-87" d="M379.2145,363.1129c0.9378-4.1517,4.6244-5.8911,7.3982-8.4316C385.6424,358.805,382.0132,360.5947,379.2145,363.1129Z"/><path class="cls-92" d="M418.27,336.7779c2.03-.7369,3.9866-1.9061,6.2837-1.0607C422.5789,336.78,420.6215,337.9471,418.27,336.7779Z"/><path class="cls-89" d="M387.4283,354.6748a8.3929,8.3929,0,0,1,3.431-3.1684,0.7286,0.7286,0,0,1,1.3053.0992C390.6731,352.7637,390.1411,355.402,387.4283,354.6748Z"/><path class="cls-90" d="M392.1645,351.6058l-1.3053-.0992,4.1813-3.1443C395.1512,350.3923,393.9654,351.2717,392.1645,351.6058Z"/><path class="cls-120" d="M435.1175,332.6616q-0.0429.4714-.0478,0.9446c-1.3965,1.3658-2.7953,1.6014-4.1978.0087Z"/><path class="cls-98" d="M416.2245,345.1186l-1.1314,1.0955-2.943-3.03q1.4352-.0677,2.8651-0.1376l0.0512,0.0351C415.641,343.6533,416.663,343.97,416.2245,345.1186Z"/><path class="cls-121" d="M403.4444,351.4133q-1.5226.0912-3.0444,0.1828-0.0331-.5579-0.0675-1.1178C402.0246,348.61,402.9767,349.2051,403.4444,351.4133Z"/><path class="cls-122" d="M407.7077,342.031c1.0262-1.5562,2.0959-3.0226,4.3269-2.1022A5.8163,5.8163,0,0,1,407.7077,342.031Z"/><path class="cls-122" d="M413.9387,338.8783l3.1481-2.0624C416.9357,338.8754,416.0116,339.7538,413.9387,338.8783Z"/><path class="cls-123" d="M397.2515,355.0554c1.7666,0.0755,9.4023,8.6865,9.1145,9.9849a1.3375,1.3375,0,0,1-2.36.77q-3.9651-4.0983-7.5531-8.5535A1.3408,1.3408,0,0,1,397.2515,355.0554Z"/><path class="cls-111" d="M376.98,394.6461c1.7746-.9337,3.545-1.3995,5.296.0484C380.4962,396.1563,378.7307,396.23,376.98,394.6461Z"/><path class="cls-76" d="M392.1635,360.9549l3.95,4.217c-2.8479-.0189-3.8184-2.4037-5.2708-4.1813Z"/><path class="cls-111" d="M395.262,371.4209l-1.3191.1081a3.4262,3.4262,0,0,1-2.0442-3.2016C393.93,368.3694,394.3491,370.1637,395.262,371.4209Z"/><path class="cls-82" d="M431.8158,360.8231q0.5123,0.5823,1.0239,1.164a283.7637,283.7637,0,0,0-15.8114,44.2122c-0.9849.1319-1.5606-.08-1.0286-1.2236C419.1426,389.4956,424.8428,374.9314,431.8158,360.8231Z"/><path class="cls-81" d="M431.6384,350.3912l1.2567,0.0565q-5.7254,12.6864-11.45,25.3732a1.9064,1.9064,0,0,1-.9206-1.097C423.777,366.4065,426.891,358.0258,431.6384,350.3912Z"/><path class="cls-74" d="M413.0349,425.3643c-0.1349-1.16.1587-2.4526-1.0211-3.2865,0.9173-2.8078-.6947-6.5269,3.0019-8.3325C414.5634,417.6546,414.4691,421.6239,413.0349,425.3643Z"/><path class="cls-73" d="M408.6526,422.0279l-0.4044.0014-0.4036-.0025A21.6359,21.6359,0,0,1,410,410.4656l0.7142-.0065C410.7753,414.4486,409.5673,418.2122,408.6526,422.0279Z"/><path class="cls-81" d="M410.7147,410.4591q-0.3579,0-.7158.0064c-0.4166-3.1066.78-5.8009,2.1592-8.4487l0.6105-.0013A19.5942,19.5942,0,0,1,410.7147,410.4591Z"/><path class="cls-79" d="M416,404.9759q0.515,0.6122,1.0295,1.224c-0.4887,2.2248-.5281,4.5845-1.9565,6.5293C413.1007,409.8728,415.1546,407.4965,416,404.9759Z"/><path class="cls-83" d="M412.7689,402.0156l-0.3068.003-0.3053-.0016c-0.6278-2.8462.7053-5.1158,2.1607-7.35l0.5129-.0066A17.9183,17.9183,0,0,1,412.7689,402.0156Z"/><path class="cls-121" d="M418.2246,384.3054c-1.6855-2.1968.119-3.7753,0.9783-5.5211,0.6233,0.0957.689,0.7235,1.0345,1.0842A6.3015,6.3015,0,0,1,418.2246,384.3054Z"/><path class="cls-83" d="M414.83,394.6607l-0.5148.0065c-0.4008-1.8452-.4617-3.6282.9377-5.1457,0.91-.2027,1.4663-0.0753.969,1.037A6.1089,6.1089,0,0,1,414.83,394.6607Z"/><path class="cls-111" d="M416.2225,390.5585l-0.97-1.038c0.8594-1.5316.2105-4.1,2.9734-4.3239C417.8164,387.08,417.513,389.0039,416.2225,390.5585Z"/><path class="cls-84" d="M420.2374,379.8685l-1.034-1.0836q0.6592-2.0316,1.32-4.0614,0.4613,0.5486.9211,1.0968Q420.8418,377.8449,420.2374,379.8685Z"/><path class="cls-39" d="M460.2884,405.3109c0.6674,1.2421,3.222,1.2364,2.566,3.1609-0.5579,1.6354-2.2764.6768-3.513,0.6966-1.773.4188-3.1946-.64-4.7579-1.1143-1.7117-.7326-3.8691-0.6746-4.8567-2.7035q-3.5866-.6376-7.1722-1.2757a23.6973,23.6973,0,0,0-8.5652-1.8852c-1.7909-.348-3.7622-0.361-5.2539-2.98,6.5455-1.2658,12.0688,1.7765,17.8234,1.84a20.51,20.51,0,0,1,9.8168,1.9335C457.6653,403.7794,459.3245,403.9658,460.2884,405.3109Z"/><path class="cls-65" d="M462.49,404.1577l-2.1612.1191a7.3636,7.3636,0,0,1-4.34-.891c-2.6053-1.5511-5.9588-1.2383-8.3395-3.3474-4.2119-1.0651-8.4166-2.16-12.64-3.1789-1.4421-.3479-3.7811.0545-3.4978-2.0669,0.2771-2.0747,2.542-.9561,3.9579-1.1272a10.8169,10.8169,0,0,1,1.566.028c7.5337,2.3021,15.0771,4.5763,22.5966,6.9263C461.2831,401.1358,463.8329,401.1342,462.49,404.1577Z"/><path class="cls-21" d="M461.17,390.5727c0.694,2.5292-.5641,3.1923-2.7958,2.9246-1.591-.373-3.27-0.3857-4.7614-1.167-1.3271-.48-2.7684-0.7182-3.8093-1.8027-4.0687-1.3158-8.1428-2.6153-12.2027-3.9579-1.0519-.3474-2.7206-0.2879-2.3172-2.0617,0.391-1.72,1.7464-1.1214,2.93-.8783,1.3368,0.2745,2.7027.4086,4.0547,0.6046A133.8351,133.8351,0,0,0,461.17,390.5727Z"/><path class="cls-39" d="M448.6057,381.0765c2.9076,1.0947,5.8251,2.1647,8.7164,3.301,0.794,0.312,1.7289.7907,1.56,1.8122-0.2456,1.4878-1.5586,1.2563-2.4779.9909-4.3294-1.2507-8.6231-2.6239-12.93-3.9525-2.1257-1.4585-6.1884-.1752-6.3177-4.4611,2.4026-1.4922,4.8-.1474,7.2041-0.0028C445.9457,379.2206,447.6023,379.5538,448.6057,381.0765Z"/><path class="cls-66" d="M439.255,374.4841a107.028,107.028,0,0,1,20.0461,5.4334c-0.22,2.699-2.0253,2.19-3.7078,1.7858-1.9663-.4723-3.9118-1.0316-5.8663-1.5531-1.9314.93-3.5188-.4792-5.27-0.7736-2.09-.8149-4.8974-0.0363-6.1263-2.76Z"/><path class="cls-123" d="M445.5472,370.482c3.0685,1.9914,7.4842.8562,10.8394,4.8966-6.2514.7405-10.9895-2.1951-16.0632-2.7646-1.819-2.7314.4694-2.778,2.1195-3.2421C443.4081,369.9372,444.6765,369.6534,445.5472,370.482Z"/><path class="cls-74" d="M447.6492,400.0381c2.9481,0.6554,5.9071,1.2789,8.497,2.9621a0.7435,0.7435,0,0,1,.2476.8118,0.5052,0.5052,0,0,1-.2941.3895q-4.77-1.5766-9.54-3.1527Z"/><path class="cls-84" d="M438.33,376.6164l6.231,2.4637,0.0007,0.6737c-2.6193.8072-4.871-1.1486-7.4046-.9859Q437.7434,377.6915,438.33,376.6164Z"/><path class="cls-36" d="M449.8031,390.5278l4.1212,1.1062c0.2267,0.9425.0506,1.4705-1.0632,1.0337-1.0979-.1353-2.2856-0.0044-3.08-1.0381Q449.7917,391.0794,449.8031,390.5278Z"/><path class="cls-36" d="M445.5472,370.482c-1.1314-.0995-2.3684.0978-3.1042-1.1095q-0.0105-.4535-0.0421-0.9045,2.0931,0.5551,4.1862,1.11Q446.0666,370.0308,445.5472,370.482Z"/><path class="cls-36" d="M421.389,435.7283c0.1423-1.4737-.4805-3.1474,1.1071-4.2446,10.2-5.5895,20.323-11.3368,31.3216-15.2978,0.8335,0.2084,1.477.5659,1.2356,1.6028C444.6781,425.3566,433.1638,430.787,421.389,435.7283Z"/><path class="cls-124" d="M424.531,439.8394q-0.0175-.6089-0.035-1.22,4.7158-2.4842,9.43-4.9628C432.1314,437.75,427.6882,437.8175,424.531,439.8394Z"/><path class="cls-125" d="M444.407,429.5906a21.9118,21.9118,0,0,1-8.26,4.0132A9.16,9.16,0,0,1,444.407,429.5906Z"/><path class="cls-90" d="M461.4312,416.82q0.5089,1.0059,1.018,2.0115c-2.3934-.6784-2.9205,3.4434-5.5529,2.1579A14.28,14.28,0,0,1,461.4312,416.82Z"/><path class="cls-124" d="M455.0533,417.7887l-1.0968-1.0432a4.8288,4.8288,0,0,1,5.3183-4.1985q0.0152,0.5949.0308,1.1911A9.89,9.89,0,0,1,455.0533,417.7887Z"/><path class="cls-125" d="M456.11,420.9865c-0.0491,3.3926-3.4643,3.4489-5.161,5.2069C450.9817,422.7847,454.443,422.7751,456.11,420.9865Z"/><path class="cls-77" d="M429.8335,440.9581c-1.08,2.1828-3.1172,2.7771-5.2721,3.175C425.6769,442.0085,427.7194,441.4239,429.8335,440.9581Z"/><path class="cls-39" d="M426.4883,420.866a2.7238,2.7238,0,0,1-2.919-2.859c6.6623-1.5668,12.2683-5.3978,18.203-8.5176,2.2721-1.1944,4.2752-2.9482,6.9663-3.2352,1.194,0.5369,2.4232,1.0421,2.4179,2.6669-4.2139,4.1189-9.4757,6.5539-14.6646,9.1129C433.0788,418.6976,430.2158,421.3171,426.4883,420.866Z"/><path class="cls-86" d="M450.8546,408.4072a3.6125,3.6125,0,0,1-2.1158-2.1531q0.4948-.4527.9895-0.9045c1.7311,0.8526,3.9062.4414,5.4226,1.906a2.4278,2.4278,0,0,1-1.009.8438A6.4631,6.4631,0,0,1,450.8546,408.4072Z"/><path class="cls-18" d="M459.2748,412.547q-2.6587,2.0994-5.3179,4.1987-13.0329,6.5579-26.07,13.1047c-1.6916.8453-3.3418,1.9254-5.3906,1.6335-0.1956-4.4193,3.7865-3.9448,6.2073-5.2992,0.9505-1.2138,1.7218-2.5947,3.1386-3.3775,1.63-.1368,2.8717-1.1729,4.266-1.8621a58.3712,58.3712,0,0,0,8.4066-4.1169c3.2321-1.9336,6.4743-3.8421,9.6552-5.8555,1.5725-.9955,3.226-2.1962,5.0807-0.44Z"/><path class="cls-15" d="M436.2274,421.9956c-1.4139.623-2.5379,2.3565-4.4279,1.156-0.612,1.28-1.8254,1.6526-3.0434,2.0185-1.5425-.0842-3.1457.52-4.8044-0.51,0.1881-2.303,2.2556-2.1294,3.7095-2.72,2.3005-2.6219,5.9562-3.0158,8.53-5.188q7.3316-4.1729,14.6632-8.3453c0.7309-1.1872,1.94-1.0246,3.0695-1.0861,1.8,2.157.3525,3.3746-1.2825,4.6031-2.6292,1.9756-5.52,3.5347-8.2737,5.3042C441.7915,419.0475,438.79,420.1458,436.2274,421.9956Z"/><path class="cls-85" d="M436.1914,416.7522c-2.0326,3.0619-5.5789,3.636-8.53,5.1885q-0.5859-.5369-1.1722-1.0737Q431.3393,418.8086,436.1914,416.7522Z"/><path class="cls-126" d="M428.7562,425.17l3.0445-2.0193c0.0947,2.1633-1.73,2.3651-3.0974,3.0344A9.0052,9.0052,0,0,0,428.7562,425.17Z"/><path class="cls-127" d="M416.2245,345.1186l-1.1579-2.0364c1.5368,0.0078,3.2392-.2316,3.1881,2.1411Q417.24,345.1712,416.2245,345.1186Z"/><path class="cls-111" d="M452.8609,392.6676l1.0642-1.0344q2.2226,0.9337,4.4477,1.8652-0.57.5263-1.1416,1.0546Q455.0467,393.61,452.8609,392.6676Z"/><path class="cls-128" d="M444.5615,379.754c-0.0028-.2257-0.0031-0.4513-0.0008-0.6754q2.5839,0.5362,5.167,1.07-0.5607.4642-1.1211,0.9271A6.3541,6.3541,0,0,1,444.5615,379.754Z"/><path class="cls-96" d="M443.5394,416.8615c2.6721-1.8258,5.3237-3.6824,8.0242-5.465,1.4939-.9861,2.78-2.017,2.3614-4.0759q0.6112-.0316,1.2246-0.0645a7.4451,7.4451,0,0,1,4.1915,1.9142q-0.0451.6793-.0908,1.3624c-4.1067-.2468-6.2259,3.4822-9.5646,4.7977-1.7554.6916-3.3936,1.6808-5.0842,2.5357C443.4831,418.3382,443.33,417.791,443.5394,416.8615Z"/><path class="cls-36" d="M456.1,404.2018q0.023-.6.0463-1.2009a7.3,7.3,0,0,1,4.1829,1.2751q-0.0031.518-.04,1.0341C458.8977,404.92,457.1864,405.74,456.1,404.2018Z"/><path class="cls-129" d="M218.3091,121.4407c3.4287,0.6265,6.459,1.9343,6.4244,6.4322-0.0316,4.075-3.1814,6.9167-7.6067,6.6632-3.9634-.2272-6.5967-2.2193-6.8158-6.3605C210.1146,124.46,213.9016,121.3238,218.3091,121.4407Z"/><path class="cls-129" d="M284.4936,134.5582c-4.1986.12-8.0178-2.9924-7.8145-6.6957,0.23-4.1865,3.0122-6.114,6.9017-6.3827,4.0794-.2818,7.8421,3.08,7.8652,6.7251C291.4669,131.5684,288.3146,134.449,284.4936,134.5582Z"/><path class="cls-130" d="M443.5394,416.8615l1.0613,1.0042a20.8121,20.8121,0,0,1-8.3741,4.13C437.95,419.2666,441.148,418.6382,443.5394,416.8615Z"/></g></svg>