<?xml version="1.0" encoding="UTF-8" standalone="no"?>
<!-- Created with Inkscape (http://www.inkscape.org/) -->

<svg
   xmlns:dc="http://purl.org/dc/elements/1.1/"
   xmlns:cc="http://creativecommons.org/ns#"
   xmlns:rdf="http://www.w3.org/1999/02/22-rdf-syntax-ns#"
   xmlns:svg="http://www.w3.org/2000/svg"
   xmlns="http://www.w3.org/2000/svg"
   xmlns:sodipodi="http://sodipodi.sourceforge.net/DTD/sodipodi-0.dtd"
   xmlns:inkscape="http://www.inkscape.org/namespaces/inkscape"
   width="58.099987mm"
   height="55.807735mm"
   viewBox="0 0 58.099987 55.807734"
   version="1.1"
   id="svg8"
   inkscape:version="0.92.2 (5c3e80d, 2017-08-06)"
   sodipodi:docname="consul.svg">
  <defs
     id="defs2" />
  <sodipodi:namedview
     id="base"
     pagecolor="#ffffff"
     bordercolor="#666666"
     borderopacity="1.0"
     inkscape:pageopacity="0.0"
     inkscape:pageshadow="2"
     inkscape:zoom="3.959798"
     inkscape:cx="241.35889"
     inkscape:cy="-29.902963"
     inkscape:document-units="mm"
     inkscape:current-layer="blog-consul-vertical"
     showgrid="false"
     fit-margin-left="1"
     fit-margin-top="1"
     fit-margin-right="1"
     fit-margin-bottom="1"
     inkscape:window-width="3840"
     inkscape:window-height="2066"
     inkscape:window-x="-11"
     inkscape:window-y="-11"
     inkscape:window-maximized="1" />
  <metadata
     id="metadata5">
    <rdf:RDF>
      <cc:Work
         rdf:about="">
        <dc:format>image/svg+xml</dc:format>
        <dc:type
           rdf:resource="http://purl.org/dc/dcmitype/StillImage" />
        <dc:title></dc:title>
      </cc:Work>
    </rdf:RDF>
  </metadata>
  <g
     inkscape:label="Ebene 1"
     inkscape:groupmode="layer"
     id="layer1"
     transform="translate(637.78065,-59.530044)">
    <g
       id="Page-1"
       transform="matrix(0.26458333,0,0,0.26458333,-640.48287,-53.192127)"
       style="fill:none;fill-rule:evenodd;stroke:none;stroke-width:1">
      <g
         id="Artboard"
         style="fill-rule:nonzero">
        <g
           style="fill:none;fill-rule:nonzero;stroke:none;stroke-width:1"
           transform="translate(12.999983,429.28572)"
           id="blog-consul-vertical">
          <path
             id="path851"
             d="m 104.02591,124.00362 c -12.111809,0.0131 -21.949043,-9.77174 -21.983227,-21.87346 -0.03418,-12.099091 9.747828,-21.941754 21.862267,-21.99429 12.11182,-0.05254 21.97798,9.703442 22.0516,21.80254 0.0526,5.8394 -2.24039,11.45289 -6.3583,15.60326 -4.12054,4.14248 -9.72942,6.46983 -15.57234,6.46195"
             inkscape:connector-curvature="0"
             style="fill:#961d59" />
          <path
             id="path853"
             d="m 146.75648,112.0779 c -5.59047,0 -10.12386,-4.52863 -10.12386,-10.11323 0,-5.584598 4.53339,-10.113221 10.12386,-10.113221 5.59047,0 10.12385,4.528623 10.12385,10.113221 0.008,2.68461 -1.05708,5.26151 -2.95826,7.15807 -1.89856,1.89918 -4.47817,2.96304 -7.16559,2.95516 m 37.05068,9.53533 c -1.57248,5.03297 -6.88948,7.88831 -11.95929,6.42255 -5.06982,-1.46576 -8.03861,-6.71413 -6.67912,-11.81015 1.36212,-5.09601 6.54764,-8.16938 11.6753,-6.9269 5.13293,1.25299 8.31734,6.37002 7.17348,11.51857 0,0.26268 0,0.4991 -0.21037,0.78804 m -7.15243,-26.057967 c -3.99696,0.998189 -8.19901,-0.512228 -10.63926,-3.827264 -2.44024,-3.309783 -2.63483,-7.767482 -0.49436,-11.279529 2.14311,-3.514674 6.19791,-5.384964 10.26586,-4.741395 4.06532,0.651449 7.33651,3.688043 8.28315,7.691304 0.25244,1.313406 0.25244,2.65308 0,3.966486 -0.55221,4.071558 -3.60251,7.362952 -7.62576,8.22192 m 36.23552,24.928445 c -0.96769,5.49791 -6.21631,9.17282 -11.72001,8.20878 -5.50633,-0.96666 -9.1851,-6.20453 -8.22267,-11.70507 0.96242,-5.5058 6.20579,-9.18333 11.71211,-8.22192 5.22497,0.83007 8.94055,5.52156 8.54612,10.7962 -0.12096,0.28106 -0.19196,0.58315 -0.21037,0.89311 m -8.36204,-25.369744 c -5.50107,0.911503 -10.70237,-2.805435 -11.6122,-8.300725 -0.91246,-5.490036 2.80313,-10.68587 8.30419,-11.6 5.49581,-0.91413 10.70237,2.797554 11.61746,8.290217 0.10518,0.872102 0.10518,1.754711 0,2.626812 -0.41021,4.528623 -3.82077,8.216667 -8.30945,8.983696 m -7.04726,60.416664 c -2.55068,4.57065 -8.14379,6.48823 -12.96379,4.44457 -4.8279,-2.04892 -7.33125,-7.3971 -5.81136,-12.40906 1.52515,-5.00933 6.58708,-8.06431 11.73578,-7.08451 5.14871,0.98768 8.73019,5.68705 8.30157,10.90127 -0.0789,1.47101 -0.51277,2.88949 -1.2622,4.15036 m -3.65511,-92.936595 c -4.88574,2.747645 -11.0705,1.019203 -13.82103,-3.861413 -2.75053,-4.877989 -1.02028,-11.058877 3.86547,-13.806522 4.88049,-2.747645 11.0705,-1.024456 13.82104,3.853533 1.04394,1.767844 1.48834,3.822011 1.26219,5.85779 -0.30766,3.304529 -2.2141,6.246558 -5.10137,7.880434"
             inkscape:connector-curvature="0"
             style="fill:#d62783" />
          <path
             id="path855"
             d="M 104.42035,203.88496 C 67.669436,204.476 33.45343,185.22672 14.904421,153.52899 -3.6445884,121.82862 -3.6445884,82.599819 14.904421,50.899456 33.45343,19.204348 67.669436,-0.04492754 104.42035,0.54347826 126.78224,0.5067029 148.51829,7.8985507 166.21532,21.557971 L 153.77744,37.765399 C 129.21723,18.983696 96.116158,15.752717 68.38205,29.433152 40.647942,43.11096 23.087652,71.330797 23.087652,102.22736 c 0.01578,30.89918 17.570808,59.11639 45.297028,72.81521 27.726219,13.68569 60.83255,10.49411 85.41905,-8.24819 l 12.41159,16.2337 c -17.71806,13.59638 -39.45412,20.93043 -61.79497,20.85688 z"
             inkscape:connector-curvature="0"
             style="fill:#d62783" />
        </g>
      </g>
    </g>
  </g>
</svg>
