<?xml version="1.0" encoding="UTF-8"?>
<svg width="220px" height="166px" viewBox="0 0 220 166" version="1.1" xmlns="http://www.w3.org/2000/svg" xmlns:xlink="http://www.w3.org/1999/xlink">
    <!-- Generator: Sketch 43.1 (39012) - http://www.bohemiancoding.com/sketch -->
    <title>couchbase_logo</title>
    <desc>Created with Sketch.</desc>
    <defs></defs>
    <g id="Page-1" stroke="none" stroke-width="1" fill="none" fill-rule="evenodd">
        <g id="partners_v3_06-09-2017" transform="translate(-288.000000, -5051.000000)" fill-rule="nonzero">
            <g id="couchbase_logo" transform="translate(288.000000, 5051.000000)">
                <path d="M16.4739343,165.162398 C5.50931574,165.162398 -3.01980663e-14,157.275974 -3.01980663e-14,148.526425 C-3.01980663e-14,139.830348 5.72536734,131.998477 16.5819601,131.998477 C20.7409534,131.998477 23.7116629,132.916697 26.2502691,134.537084 L23.117521,139.668309 C21.3350953,138.534038 19.3906309,137.83187 16.4739343,137.83187 C10.5865283,137.83187 7.45378012,142.530993 7.45378012,148.364386 C7.45378012,154.360358 10.4785025,159.329004 16.5819601,159.329004 C20.0387857,159.329004 22.0912759,158.141261 23.7656758,156.898424 L26.6283594,161.814138 C25.0079724,163.271946 21.1730566,165.162398 16.4739343,165.162398 Z M39.753494,145.501702 C36.2426555,145.501702 35.1083846,148.472412 35.1083846,152.793444 C35.1083846,157.114476 36.51272,160.193211 40.0235585,160.193211 C43.5884099,160.193211 44.7766936,157.276514 44.7766936,152.955482 C44.7226807,148.63445 43.3183454,145.501702 39.753494,145.501702 L39.753494,145.501702 Z M39.8615198,165.162398 C31.6515591,165.162398 28.0867077,159.004927 28.0867077,152.954942 C28.0867077,146.905497 31.6515591,140.585988 39.8615198,140.585988 C48.0714805,140.585988 51.7983706,146.689446 51.7983706,152.738891 C51.7443577,158.734863 48.1254934,165.162398 39.8615198,165.162398 Z M62.1148344,141.18067 L62.1148344,156.196256 C62.1148344,158.518811 62.9250279,159.653082 65.1400969,159.653082 C67.5161243,159.653082 69.29855,157.38454 69.7852062,156.844411 L69.7852062,141.18067 L76.37478,141.18067 L76.37478,157.708617 C76.37478,160.787353 76.6988574,163.16446 77.0229348,164.568256 L70.4868338,164.568256 C70.2713223,163.920101 70.0547306,162.40774 70.0012578,161.435507 C68.758421,163.055894 66.3278405,165.108385 62.4394519,165.108385 C57.2542136,165.108385 55.417775,161.813598 55.417775,157.492566 L55.417775,141.126657 L62.1153745,141.126657 L62.1153745,141.18067 L62.1148344,141.18067 L62.1148344,141.18067 Z M92.6321226,165.162398 C85.0703166,165.162398 80.4252073,160.246684 80.4252073,152.901469 C80.4252073,145.015586 85.6644585,140.586528 92.8481742,140.586528 C96.6290771,140.586528 98.8976189,141.720799 100.03189,142.422967 L97.9253867,146.96005 C96.8996818,146.311896 95.3873206,145.609728 93.0642258,145.609728 C89.3913486,145.609728 87.4474243,148.472412 87.4474243,152.739431 C87.4474243,157.00591 89.2833228,160.085185 93.2268046,160.085185 C95.9274496,160.085185 97.4932835,159.112953 98.1954512,158.68085 L100.193928,163.109367 C99.1136705,163.812075 96.9531545,165.162398 92.6321226,165.162398 Z M117.91016,164.622269 L117.91016,149.55267 C117.91016,147.230115 117.099966,146.095844 114.885437,146.095844 C112.50887,146.095844 110.672431,148.310373 110.186315,148.904515 L110.186315,164.568256 L103.596741,164.568256 L103.596741,130 L110.186315,130 L110.186315,143.935328 C111.374599,142.639018 113.64314,140.586528 117.478056,140.586528 C122.663835,140.586528 124.499733,143.881315 124.499733,148.202347 L124.499733,164.568256 L117.91016,164.568256 L117.91016,164.622269 L117.91016,164.622269 Z M136.490597,159.491043 C136.9227,159.653082 137.894932,159.976619 139.623345,159.976619 C143.026158,159.976619 145.132661,157.492026 145.132661,152.684878 C145.132661,148.363846 143.674313,145.771227 140.325513,145.771227 C138.381048,145.771227 136.869227,147.013523 136.490597,147.499639 L136.490597,159.491043 Z M136.490597,130.054013 L136.490597,143.017109 C137.570855,141.936851 139.623345,140.586528 142.215964,140.586528 C148.049898,140.586528 152.154338,144.583483 152.154338,152.685418 C152.154338,160.73334 146.753048,165.162938 139.623345,165.162938 C134.276608,165.162938 131.035834,163.812615 129.84701,163.272486 L129.84701,130 L136.490597,130 L136.490597,130.054013 L136.490597,130.054013 Z M167.872092,154.305805 L167.061898,154.305805 C163.443574,154.305805 160.904968,155.386063 160.904968,158.032695 C160.904968,159.707095 162.25529,160.408722 163.713638,160.408722 C165.928167,160.408722 167.224477,159.112953 167.872092,158.464258 L167.872092,154.305805 L167.872092,154.305805 Z M168.574259,164.622269 C168.358208,164.027587 168.249642,162.839303 168.196169,162.137135 C167.169924,163.379432 164.955395,165.21587 161.660068,165.21587 C157.663654,165.21641 154.584918,162.839843 154.584918,158.626837 C154.584918,152.523379 160.850415,150.30939 167.061898,150.30939 L167.872092,150.30939 L167.872092,149.012541 C167.872092,147.068076 167.061898,145.879792 164.145742,145.879792 C161.120479,145.879792 159.068529,147.446167 158.204323,148.040308 L155.341639,144.043354 C156.745974,142.747044 159.878182,140.640541 164.901382,140.640541 C171.38293,140.640541 174.461665,143.125135 174.461665,149.390631 L174.461665,157.600592 C174.461665,160.841366 174.786283,163.109367 175.10982,164.622269 L168.574259,164.622269 L168.574259,164.622269 Z M186.344503,165.162398 C182.131497,165.162398 179.430852,163.919561 177.972504,162.947329 L180.187573,158.356232 C181.105252,159.004927 183.373794,160.301237 185.966413,160.301237 C188.396993,160.301237 189.747316,159.598529 189.747316,158.302759 C189.747316,156.790398 187.101224,156.357755 183.751884,154.737368 C180.51111,153.171534 178.620659,151.389108 178.620659,147.823717 C178.620659,143.394659 182.131497,140.585988 187.478774,140.585988 C191.475188,140.585988 193.960322,141.828285 195.04058,142.422427 L192.772038,146.905497 C191.853819,146.365368 190.01684,145.447149 187.802851,145.447149 C185.588863,145.447149 184.61609,146.20333 184.61609,147.445626 C184.61609,148.957988 186.776606,149.336078 189.477251,150.416336 C193.150669,151.929237 195.796761,153.65711 195.796761,157.546039 C195.688735,162.569778 192.123883,165.162398 186.344503,165.162398 L186.344503,165.162398 Z M213.512992,150.038786 C213.458979,147.446167 212.432734,145.339663 209.624603,145.339663 C207.031444,145.339663 205.519082,147.014063 205.087519,150.038786 L213.512992,150.038786 Z M211.028398,160.301237 C214.215159,160.301237 215.943572,159.274992 217.131856,158.68085 L219.238359,162.893856 C217.671985,163.758062 215.295417,165.162398 210.434256,165.162398 C202.547833,165.162398 198.065302,160.246684 198.065302,152.739431 C198.065302,145.285651 203.196528,140.586528 209.732089,140.586528 C217.131856,140.586528 220.697247,145.717754 219.887054,154.467843 L205.140992,154.467843 C205.411057,157.978682 207.247495,160.301237 211.028398,160.301237 Z" id="Shape" fill="#000000"></path>
                <path d="M110,0 C82.4320242,0 60,22.3564955 60,50 C60,77.5679758 82.3564955,100 110,100 C137.567976,100 160,77.6435045 160,50 C160,22.3564955 137.567976,0 110,0 Z M143.761329,58.7613293 C143.761329,61.7824773 142.024169,64.4259819 138.625378,65.0302115 C132.734139,66.086858 120.347432,66.6918429 110,66.6918429 C99.652568,66.6918429 87.265861,66.086858 81.3746224,65.0302115 C77.9758308,64.4259819 76.2386707,61.7824773 76.2386707,58.7613293 L76.2386707,39.2749245 C76.2386707,36.2537764 78.5800604,33.4592145 81.3746224,33.0060423 C83.1117825,32.7039275 87.1903323,32.4018127 90.3625378,32.4018127 C91.570997,32.4018127 92.5528701,33.3081571 92.5528701,34.7432024 L92.5528701,48.4138973 L110.075529,48.0362538 L127.598187,48.4138973 L127.598187,34.7432024 C127.598187,33.3081571 128.58006,32.4018127 129.78852,32.4018127 C132.960725,32.4018127 137.039275,32.7039275 138.776435,33.0060423 C141.646526,33.4592145 143.912387,36.2537764 143.912387,39.2749245 C143.761329,45.694864 143.761329,52.265861 143.761329,58.7613293 L143.761329,58.7613293 Z" id="Shape" fill="#ED2226"></path>
            </g>
        </g>
    </g>
</svg>