<svg id="Layer_1" data-name="Layer 1" xmlns="http://www.w3.org/2000/svg" viewBox="0 0 120 115"><defs><style>.cls-1{fill:none;stroke:#0f81e0;stroke-linecap:round;stroke-linejoin:round;}.cls-1,.cls-3{stroke-width:4px;}.cls-2{fill:#c6e3f8;}.cls-3{fill:#0096e6;stroke:#fff;}.cls-4{fill:#fff;}</style></defs><title>icon-mqtt</title><g id="Page-1"><g id="g117"><path class="cls-1" d="M41.73,6.33a47.87,47.87,0,0,0-35.4,35.4" transform="translate(0.23 -4.33)"/><path id="Stroke-387" class="cls-1" d="M44.7,17.4A36.5,36.5,0,0,0,17.4,44.7M47.66,28.46A25.22,25.22,0,0,0,28.46,47.66" transform="translate(0.23 -4.33)"/><path id="Fill-388" class="cls-2" d="M57.93,41.71A16.23,16.23,0,1,1,41.71,57.93,16.23,16.23,0,0,1,57.93,41.71h0Z" transform="translate(0.23 -4.33)"/><path id="Stroke-389" class="cls-1" d="M57.93,41.71A16.23,16.23,0,1,1,41.71,57.93,16.23,16.23,0,0,1,57.93,41.71h0Z" transform="translate(0.23 -4.33)"/></g></g><rect class="cls-3" x="2" y="79.67" width="116" height="33.33" rx="12" ry="12"/><path class="cls-4" d="M44.25,91.41V111H40.67V99q0-.38,0-0.81c0-.29,0-0.58.07-0.88l-5.6,10.62a1.5,1.5,0,0,1-1.42.88H33.18a1.51,1.51,0,0,1-1.42-.88L26.13,97.24q0,0.47.07,0.91t0,0.82v12H22.65V91.41h3.54a1.21,1.21,0,0,1,.36.07,0.83,0.83,0,0,1,.28.19,1.5,1.5,0,0,1,.25.36l5.48,10.45q0.26,0.47.48,1t0.43,1q0.2-.54.42-1.05t0.48-1L39.8,92a1.39,1.39,0,0,1,.26-0.36,0.9,0.9,0,0,1,.29-0.19,1.19,1.19,0,0,1,.35-0.07h3.54Z" transform="translate(0.23 -4.33)"/><path class="cls-4" d="M68.33,114.75H65a4.18,4.18,0,0,1-1.3-.19,2.58,2.58,0,0,1-1.06-.7l-2.66-3a11.78,11.78,0,0,1-2.73.31,10.66,10.66,0,0,1-4.1-.76,9.48,9.48,0,0,1-3.17-2.1,9.27,9.27,0,0,1-2-3.17,11.32,11.32,0,0,1,0-8,9.29,9.29,0,0,1,2-3.17A9.5,9.5,0,0,1,53.14,92a11.42,11.42,0,0,1,8.21,0,9.24,9.24,0,0,1,5.2,5.28,10.7,10.7,0,0,1,.72,4,11.39,11.39,0,0,1-.26,2.48,10.13,10.13,0,0,1-.76,2.21A9.33,9.33,0,0,1,65,107.8a8.87,8.87,0,0,1-1.65,1.54Zm-17-13.55a8.8,8.8,0,0,0,.4,2.77A5.78,5.78,0,0,0,52.92,106a5.06,5.06,0,0,0,1.86,1.3,7,7,0,0,0,4.93,0,5.08,5.08,0,0,0,1.85-1.3A5.79,5.79,0,0,0,62.73,104a9.65,9.65,0,0,0,0-5.54,5.85,5.85,0,0,0-1.17-2.08A5,5,0,0,0,59.71,95a7,7,0,0,0-4.93,0,5,5,0,0,0-1.86,1.31,5.85,5.85,0,0,0-1.17,2.08A8.75,8.75,0,0,0,51.35,101.2Z" transform="translate(0.23 -4.33)"/><path class="cls-4" d="M83.53,94.68H77.81V111H73.74V94.68H68V91.41H83.53v3.27Z" transform="translate(0.23 -4.33)"/><path class="cls-4" d="M99.84,94.68H94.11V111H90V94.68H84.33V91.41H99.84v3.27Z" transform="translate(0.23 -4.33)"/></svg>