<svg xmlns="http://www.w3.org/2000/svg" viewBox="0 0 512 512"><g fill="#419eda"><path d="M234.345 237.295c0 18.454-14.97 33.394-33.394 33.394-18.43 0-33.36-14.94-33.36-33.4 0-18.38 14.94-33.37 33.37-33.37 18.43-.01 33.4 14.99 33.4 33.37zm43.162 0c0 18.477 14.946 33.4 33.394 33.4 18.43 0 33.4-14.923 33.4-33.4 0-18.386-14.97-33.37-33.39-33.37-18.442-.007-33.39 14.984-33.39 33.37z"/><path d="M504.772 273.514c-2.42.194-4.813.28-7.376.28-14.9 0-29.344-3.486-42.382-9.866 4.33-24.913 6.186-49.98 5.707-74.972-14.13-20.46-30.28-39.74-48.52-57.5 7.91-14.83 19.62-27.594 34.19-36.622l6.28-3.89-4.9-5.53c-25.15-28.31-55.16-50.21-89.23-65.08l-6.79-2.95-1.72 7.16c-4.06 16.72-12.54 31.81-24.19 43.92-22.39-11.894-45.78-21.514-69.91-28.8-24.07 7.27-47.44 16.86-69.802 28.753-11.62-12.092-20.06-27.157-24.1-43.823l-1.753-7.182-6.766 2.94c-33.61 14.643-64.47 37.14-89.225 65.055l-4.894 5.53 6.266 3.885c14.554 9 26.2 21.69 34.11 36.43-18.17 17.703-34.325 36.93-48.44 57.288-.544 24.964 1.21 50.225 5.56 75.468-12.973 6.322-27.33 9.78-42.124 9.78-2.593 0-5.03-.086-7.394-.28L0 272.934l.683 7.348c3.623 37.148 15.14 72.502 34.323 105.04l3.736 6.364 5.605-4.774c13.026-11.038 28.746-18.35 45.48-21.29 11.033 22.532 24.087 43.72 38.925 63.393 23.648 8.27 48.294 14.456 73.754 18.135 2.443 16.814.495 34.226-6.14 50.322l-2.803 6.824 7.2 1.594c18.43 4.067 37.028 6.112 55.26 6.112l55.248-6.112 7.21-1.594-2.79-6.824c-6.63-16.096-8.59-33.536-6.12-50.378 25.34-3.674 49.89-9.843 73.46-18.08 14.85-19.672 27.93-40.888 38.958-63.45 16.79 2.917 32.62 10.23 45.71 21.314l5.61 4.75 3.74-6.31c19.196-32.614 30.73-67.95 34.284-105.035l.684-7.34zm-169.778 89.782c-26.155 7.09-52.685 10.68-79.068 10.68-26.474 0-52.976-3.59-79.13-10.68-14.354-22.293-25.7-46.18-33.856-71.333-8.14-25.044-12.9-51.262-14.285-78.265 16.905-20.892 36.11-39.192 57.34-54.582 21.57-15.686 45.024-28.44 69.93-38.042 24.863 9.603 48.284 22.322 69.79 37.94 21.303 15.492 40.605 33.923 57.59 54.957-1.458 26.84-6.288 52.92-14.416 77.92-8.16 25.15-19.55 49.12-33.9 71.41z"/></g></svg>