<svg id="Layer_1" data-name="Layer 1" xmlns="http://www.w3.org/2000/svg" viewBox="0 0 121 126"><defs><style>.cls-2{fill:none;clip-path:url(#clip-path);clip-rule:evenodd}.cls-4{fill:#237a9e}</style><clipPath id="clip-path"><path fill="none" d="M0 0h121v126H0z"/></clipPath><clipPath id="clip-path-8"><path class="cls-2" d="M85.22 94.14c2-1.41 6.65 1.7 10.33 7s5 10.67 3 12.09-6.65-1.7-10.33-7-5-10.67-3-12.09z"/></clipPath><clipPath id="clip-path-9"><path class="cls-2" d="M36.78 94.14c-2-1.41-6.65 1.7-10.33 7s-5 10.67-3 12.09 6.64-1.7 10.33-7 5-10.67 3-12.09z"/></clipPath><clipPath id="clip-path-10"><path class="cls-2" d="M61 102.37c-2.48 0-4.48 5.2-4.48 11.62s2 11.62 4.48 11.62 4.47-5.2 4.47-11.62-2-11.62-4.47-11.62z"/></clipPath><clipPath id="clip-path-11"><path class="cls-2" d="M85.22 31.86c2 1.41 6.65-1.7 10.33-6.95s5-10.67 3-12.09-6.65 1.7-10.33 7-5 10.67-3 12.09z"/></clipPath><clipPath id="clip-path-12"><path class="cls-2" d="M36.78 31.86c-2 1.41-6.65-1.7-10.33-6.95s-5-10.67-3-12.09 6.64 1.7 10.33 7 5 10.67 3 12.09z"/></clipPath><clipPath id="clip-path-13"><path class="cls-2" d="M61 23.63c-2.48 0-4.48-5.2-4.48-11.62S58.5.39 61 .39s4.45 5.2 4.45 11.61-2 11.62-4.47 11.62z"/></clipPath><clipPath id="clip-path-15"><path class="cls-2" d="M.61 47.69h8.62v12.14H19V47.69h8.62v32.59H19V67.34H9.23v12.94H.61V47.69zm34.18 0h21.06v7.22H43.42V60H54v7.21H43.42v5.82h12.93v7.22H34.79V47.69zm27.87 0h8.63v25.37h12.33v7.22h-21V47.69zm26.57 0h8.92l5.12 13.54 1.8 5.31h.2l1.81-5.31L112 47.69h8.92v32.59h-8v-9.63c0-.83 0-1.75.13-2.75s.17-2 .27-3.09.22-2.08.35-3.08.25-1.9.35-2.71h-.2l-2.7 7.62-4.51 11h-3.21l-4.51-11L96.25 59h-.2c.1.81.22 1.71.35 2.71s.25 2 .35 3.08.19 2.08.28 3.09.12 1.92.12 2.75v9.63h-7.92V47.69z"/></clipPath></defs><g clip-path="url(#clip-path-8)"><path class="cls-4" transform="rotate(-35 91.885 103.66)" d="M82.41 87.04h18.95v33.23H82.41z"/></g><g clip-path="url(#clip-path-9)"><path class="cls-4" transform="rotate(-55 30.114 103.658)" d="M13.5 94.18h33.23v18.95H13.5z"/></g><g clip-path="url(#clip-path-10)"><path class="cls-4" d="M51.5 97.37h18.95v33.23H51.5z"/></g><g clip-path="url(#clip-path-11)"><path class="cls-4" transform="rotate(-55 91.88 22.34)" d="M75.26 12.86h33.23v18.95H75.26z"/></g><g clip-path="url(#clip-path-12)"><path class="cls-4" transform="rotate(-35 30.124 22.347)" d="M20.64 5.72h18.95v33.23H20.64z"/></g><g clip-path="url(#clip-path-13)"><path class="cls-4" d="M51.5-4.61h18.95v33.23H51.5z"/></g><g clip-path="url(#clip-path)"><path d="M95.5 42.16a41.22 41.22 0 0 0-69.86-1m.79 45.67a41.23 41.23 0 0 0 67.73-.06" stroke="#237a9e" stroke-miterlimit="10" stroke-width="7.16" fill="none"/></g><g clip-path="url(#clip-path-15)"><path class="cls-4" d="M-4.39 42.69h130.3v42.58H-4.39z"/></g></svg>