<?xml version="1.0" encoding="UTF-8" standalone="no"?>
<!-- Created with Inkscape (http://www.inkscape.org/) -->

<svg
   xmlns:dc="http://purl.org/dc/elements/1.1/"
   xmlns:cc="http://creativecommons.org/ns#"
   xmlns:rdf="http://www.w3.org/1999/02/22-rdf-syntax-ns#"
   xmlns:svg="http://www.w3.org/2000/svg"
   xmlns="http://www.w3.org/2000/svg"
   xmlns:sodipodi="http://sodipodi.sourceforge.net/DTD/sodipodi-0.dtd"
   xmlns:inkscape="http://www.inkscape.org/namespaces/inkscape"
   width="25.359236mm"
   height="25.653749mm"
   viewBox="0 0 25.359236 25.653749"
   version="1.1"
   id="svg8"
   inkscape:version="0.92.2 (5c3e80d, 2017-08-06)"
   sodipodi:docname="influxdb.svg">
  <defs
     id="defs2" />
  <sodipodi:namedview
     id="base"
     pagecolor="#ffffff"
     bordercolor="#666666"
     borderopacity="1.0"
     inkscape:pageopacity="0.0"
     inkscape:pageshadow="2"
     inkscape:zoom="0.49497475"
     inkscape:cx="10.124358"
     inkscape:cy="-913.41615"
     inkscape:document-units="mm"
     inkscape:current-layer="influxdb_logo"
     showgrid="false"
     fit-margin-top="1"
     fit-margin-left="1"
     fit-margin-right="1"
     fit-margin-bottom="1"
     inkscape:window-width="3440"
     inkscape:window-height="1377"
     inkscape:window-x="2872"
     inkscape:window-y="-8"
     inkscape:window-maximized="1" />
  <metadata
     id="metadata5">
    <rdf:RDF>
      <cc:Work
         rdf:about="">
        <dc:format>image/svg+xml</dc:format>
        <dc:type
           rdf:resource="http://purl.org/dc/dcmitype/StillImage" />
        <dc:title></dc:title>
      </cc:Work>
    </rdf:RDF>
  </metadata>
  <g
     inkscape:label="Ebene 1"
     inkscape:groupmode="layer"
     id="layer1"
     transform="translate(-1.2711737,-2.0309173)">
    <g
       id="influxdb_logo"
       transform="matrix(0.26458333,0,0,0.26458333,-283.54315,228.12518)">
      <linearGradient
         gradientTransform="matrix(1,0,0,-1,1072.782,1190.1413)"
         y2="1996.1277"
         x2="364.97739"
         y1="1996.1277"
         x1="53.993401"
         gradientUnits="userSpaceOnUse"
         id="symbol_1_">
        <stop
           id="stop817"
           style="stop-color:#4591ED"
           offset="0" />
        <stop
           id="stop819"
           style="stop-color:#00C9FF"
           offset="1" />
      </linearGradient>
      <path
         d="m 1168.382,-796.74998 -8.5,-37.2 c -0.4,-2 -2.4,-4 -4.4,-4.6 l -39.1,-12 c -0.5,-0.1 -1.1,-0.2 -1.6,-0.2 -1.7,0 -3.5,0.7 -4.5,1.7 l -28,26 c -1.5,1.3 -2.4,4 -1.9,6 l 9.1,39.7 c 0.4,2 2.4,4 4.4,4.6 l 36.5,11.2 c 0.6,0.1 1.1,0.2 1.7,0.2 1.7,0 3.5,-0.7 4.5,-1.7 l 29.9,-27.8 c 1.6,-1.2 2.4,-3.9 1.9,-5.9 z m -47.9,-45 26.8,8.2 c 1,0.3 1,0.8 0,1 l -14.1,3.2 c -1.1,0.2 -2.6,-0.2 -3.2,-1 l -9.9,-10.6 c -0.8,-0.7 -0.6,-1 0.4,-0.8 z m 16.7,48 c 0.2,1.1 -0.4,1.7 -1.5,1.3 l -28.9,-8.8 c -1,-0.3 -1.2,-1.2 -0.4,-1.9 l 22.2,-20.6 c 0.8,-0.8 1.7,-0.4 1.9,0.6 z m -47.6,-26.2 23.5,-21.8 c 0.8,-0.8 2,-0.7 2.8,0.1 l 11.8,12.7 c 0.8,0.8 0.7,2 -0.1,2.8 l -23.6,21.8 c -0.8,0.8 -2,0.7 -2.8,-0.1 l -11.7,-12.7 c -0.7,-0.8 -0.7,-2 0.1,-2.8 z m 5.7,34.7 -6.3,-27.2 c -0.2,-1.1 0.1,-1.2 0.9,-0.4 l 9.9,10.6 c 0.8,0.8 1.1,2.4 0.8,3.4 l -4.3,13.8 c -0.2,0.8 -0.8,0.8 -1,-0.2 z m 34.4,15.8 -30.6,-9.4 c -1,-0.3 -1.7,-1.5 -1.3,-2.5 l 5,-16.6 c 0.3,-1 1.5,-1.7 2.5,-1.3 l 30.5,9.4 c 1,0.3 1.7,1.5 1.3,2.5 l -5,16.6 c -0.3,1.1 -1.4,1.7 -2.4,1.3 z m 27.2,-22.3 -20.5,19.1 c -0.8,0.8 -1.2,0.4 -0.9,-0.6 l 4.3,-13.8 c 0.3,-1 1.5,-2.1 2.6,-2.4 l 14,-3.2 c 1,-0.2 1.3,0.3 0.5,0.9 z m 2.2,-4 -16.9,3.8 c -1.1,0.2 -2.1,-0.4 -2.4,-1.5 l -7.1,-31.2 c -0.2,-1.1 0.4,-2.1 1.5,-2.4 l 16.9,-3.8 c 1.1,-0.2 2.1,0.4 2.4,1.5 l 7.2,31.2 c 0.1,1.1 -0.6,2.2 -1.6,2.4 z"
         class="st3"
         id="symbol_2_"
         inkscape:connector-curvature="0"
         style="fill:url(#symbol_1_)" />
    </g>
  </g>
  <style
     id="style815"
     type="text/css">
	.st0{fill:#8CAFC4;}
	.st1{fill:#1777BB;}
	.st2{fill:#EB9B23;}
	.st3{fill:url(#symbol_1_);}
	.st4{fill:url(#SVGID_1_);}
	.st5{fill:url(#SVGID_2_);}
	.st6{fill:url(#SVGID_3_);}
	.st7{fill:url(#SVGID_4_);}
	.st8{fill:url(#SVGID_5_);}
	.st9{fill:url(#SVGID_6_);}
	.st10{fill:url(#SVGID_7_);}
</style>
</svg>
