<?xml version="1.0" encoding="UTF-8" standalone="no"?>
<!-- Created with Inkscape (http://www.inkscape.org/) -->

<svg
   xmlns:dc="http://purl.org/dc/elements/1.1/"
   xmlns:cc="http://creativecommons.org/ns#"
   xmlns:rdf="http://www.w3.org/1999/02/22-rdf-syntax-ns#"
   xmlns:svg="http://www.w3.org/2000/svg"
   xmlns="http://www.w3.org/2000/svg"
   xmlns:sodipodi="http://sodipodi.sourceforge.net/DTD/sodipodi-0.dtd"
   xmlns:inkscape="http://www.inkscape.org/namespaces/inkscape"
   width="15.026095mm"
   height="16.927401mm"
   viewBox="0 0 15.026095 16.9274"
   version="1.1"
   id="svg8"
   inkscape:version="0.92.2 (5c3e80d, 2017-08-06)"
   sodipodi:docname="jaeger.svg">
  <defs
     id="defs2" />
  <sodipodi:namedview
     id="base"
     pagecolor="#ffffff"
     bordercolor="#666666"
     borderopacity="1.0"
     inkscape:pageopacity="0.0"
     inkscape:pageshadow="2"
     inkscape:zoom="7.9195959"
     inkscape:cx="-12.651062"
     inkscape:cy="29.548706"
     inkscape:document-units="mm"
     inkscape:current-layer="g925"
     showgrid="false"
     fit-margin-left="1"
     fit-margin-top="1"
     fit-margin-bottom="1"
     fit-margin-right="1"
     inkscape:window-width="2038"
     inkscape:window-height="1040"
     inkscape:window-x="2984"
     inkscape:window-y="104"
     inkscape:window-maximized="0" />
  <metadata
     id="metadata5">
    <rdf:RDF>
      <cc:Work
         rdf:about="">
        <dc:format>image/svg+xml</dc:format>
        <dc:type
           rdf:resource="http://purl.org/dc/dcmitype/StillImage" />
        <dc:title></dc:title>
      </cc:Work>
    </rdf:RDF>
  </metadata>
  <g
     inkscape:label="Ebene 1"
     inkscape:groupmode="layer"
     id="layer1"
     transform="translate(66.85531,-138.91915)">
    <g
       id="g925"
       transform="matrix(0.26458333,0,0,0.26458333,-66.275339,139.45164)">
      <g
         id="g909">
        <path
           id="path817"
           d="m 29.015478,23.501411 c -2.657515,0 -4.811836,2.154335 -4.811836,4.811837 0,2.657493 2.154322,4.811813 4.811836,4.811813 2.657431,0 4.811796,-2.15432 4.811796,-4.811813 0,-2.657502 -2.154365,-4.811837 -4.811796,-4.811837 z m -0.65028,7.93302 c -0.837955,0 -1.517256,-0.679291 -1.517256,-1.51724 0,-0.83795 0.679301,-1.517239 1.517256,-1.517239 0.837935,0 1.517235,0.679289 1.517235,1.517239 0,0.837949 -0.6793,1.51724 -1.517235,1.51724 z"
           class="st0"
           inkscape:connector-curvature="0"
           style="fill:none" />
        <path
           id="path819"
           d="m 28.155352,34.907242 c -0.776648,-0.317417 -1.798043,-0.483677 -3.035777,-0.494168 l -0.543426,-0.0046 c -0.319313,-0.593315 -1.343574,-0.919342 -2.510347,-0.774433 1.166772,-0.144886 2.191013,0.181126 2.510326,0.774433 0.04481,0.08327 0.07589,0.171749 0.09138,0.264988 0.0082,0.04957 0.01189,0.0993 0.01119,0.149021 -0.0099,0.712399 -0.916378,1.424114 -2.148821,1.677758 -0.03052,0.0063 -0.06118,0.01225 -0.09208,0.01796 -0.02782,0.0051 -0.05553,0.01045 -0.08367,0.01512 -1.328546,0.220573 -2.514413,-0.169789 -2.756338,-0.879734 l -0.445531,0.15049 c -0.276658,0.09344 -2.709467,0.962131 -2.936659,2.665855 -0.07556,0.566616 0.07726,1.086269 0.441908,1.502777 0.438873,0.501293 1.155897,0.800568 1.918066,0.800568 0.412487,0 0.795299,-0.09105 1.106981,-0.263314 0.194464,-0.10746 0.402223,-0.237632 0.622166,-0.375446 0.752874,-0.471748 1.689863,-1.058842 2.824937,-1.208191 0.101584,-0.01337 0.270777,-0.02014 0.5029,-0.02014 0.252862,0 0.556537,0.0078 0.878021,0.01609 0.371073,0.0095 0.791631,0.02038 1.199501,0.02038 1.201696,0 1.923483,-0.0934 2.413463,-0.312314 1.038025,-0.46381 1.553275,-1.367198 1.37835,-2.416587 -0.0873,-0.523308 -0.565495,-0.987279 -1.346546,-1.306496 z m -0.331242,3.052833 c -0.450695,0.201355 -1.267092,0.248463 -2.114025,0.248463 -0.745033,0 -1.513672,-0.03646 -2.077522,-0.03646 -0.244072,0 -0.449831,0.0068 -0.598666,0.02642 -1.647247,0.216744 -2.882705,1.213776 -3.706413,1.668957 -0.207825,0.114849 -0.473436,0.171726 -0.751905,0.171726 -0.825184,0 -1.761982,-0.499863 -1.632305,-1.472221 0.173406,-1.300495 2.443895,-2.067387 2.443895,-2.067387 0.291641,0.360291 0.787542,0.775047 2.048143,0.775047 0.331936,0 0.716919,-0.02876 1.165129,-0.09484 2.369057,-0.349293 2.512919,-2.032624 2.512919,-2.032624 2.557575,0.02168 3.592311,0.754914 3.66443,1.187306 0.06504,0.390148 0.06504,1.170437 -0.95368,1.625625 z"
           class="st0"
           inkscape:connector-curvature="0"
           style="fill:none" />
        <path
           id="path821"
           d="m 22.314785,39.714287 c -0.616875,0.23714 -1.163673,0.57502 -1.636793,0.871307 -0.007,0.0044 -0.01442,0.009 -0.02139,0.01335 0.109045,0.505543 0.474217,1.671432 1.487898,1.369465 0.524355,-0.156189 0.534786,-0.797284 0.421486,-1.382813 -0.06731,-0.347793 -0.178255,-0.676014 -0.251198,-0.871307 z"
           class="st0"
           inkscape:connector-curvature="0"
           style="fill:none" />
        <path
           id="path823"
           d="m 24.958475,39.450825 c -0.09678,-0.0023 -0.191616,-0.0048 -0.283272,-0.0072 -0.319608,-0.0083 -0.62128,-0.016 -0.870222,-0.016 -0.2724,0 -0.401949,0.0095 -0.462835,0.01753 -0.123692,0.01628 -0.244938,0.03884 -0.364204,0.06571 0.043,0.270355 0.120025,0.686508 0.235664,1.07468 0.136358,0.457768 0.326437,0.876587 0.578203,0.971005 0.264517,0.09921 1.277607,0.187923 1.26277,-0.971005 -5.48e-4,-0.04321 -0.0021,-0.08766 -0.0056,-0.134407 -0.03484,-0.464397 -0.0654,-0.781769 -0.09048,-1.000362 z"
           class="st0"
           inkscape:connector-curvature="0"
           style="fill:none" />
        <path
           id="path825"
           d="m 17.513023,35.175919 c 0.866324,-0.87016 1.401932,-2.069809 1.401932,-3.394688 0,-2.657496 -2.154301,-4.811836 -4.811815,-4.811836 -2.657515,0 -4.8118163,2.15434 -4.8118163,4.811836 0,2.657495 2.1542993,4.811813 4.8118163,4.811813 0.888873,0 1.720821,-0.241997 2.435318,-0.662239 0.356701,-0.209793 0.684421,-0.46344 0.974565,-0.754886 z m -3.843382,-0.186806 c -0.837956,0 -1.517255,-0.679302 -1.517255,-1.517246 0,-0.837944 0.679299,-1.517245 1.517255,-1.517245 0.837934,0 1.517234,0.679301 1.517234,1.517245 0,0.837944 -0.6793,1.517246 -1.517234,1.517246 z"
           class="st0"
           inkscape:connector-curvature="0"
           style="fill:none" />
        <path
           id="path827"
           d="M 13.898477,52.704529 C 13.074832,52.892792 10.650999,54.210594 8.5566168,54.610653 6.462234,55.010708 4.65024,55.2225 4.0148606,55.457817 c -0.6353794,0.235317 -1.1295536,0.705971 0.1176639,1.176624 1.2472172,0.470635 7.2950385,0.635376 7.8362945,0 0.541236,-0.635372 -0.373287,-0.910747 -1.694351,-0.894237 -0.9412885,0.01177 -0.8258376,-0.316223 -0.8236251,-0.352986 0,0 0.058843,-0.411811 1.5060651,-0.611846 1.444904,-0.199696 7.836295,-0.800095 7.718631,-1.482541 -0.117664,-0.68243 -3.953438,-0.776569 -4.777062,-0.588302 z"
           class="st1"
           inkscape:connector-curvature="0"
           style="fill:#221f1f" />
        <ellipse
           id="ellipse829"
           ry="0.3647483"
           rx="1.2531022"
           cy="57.740459"
           cx="9.7508821"
           class="st1"
           transform="rotate(-12.278345,9.7508796,57.740466)"
           style="fill:#221f1f" />
        <ellipse
           id="ellipse831"
           ry="0.35297629"
           rx="1.3178128"
           cy="57.575729"
           cx="6.8505211"
           class="st1"
           transform="rotate(-4.5512795,6.8505077,57.575717)"
           style="fill:#221f1f" />
        <ellipse
           id="ellipse833"
           ry="0.27650741"
           rx="0.88246739"
           cy="57.28746"
           cx="4.5325766"
           class="st1"
           transform="rotate(-7.7577642,4.5325721,57.287471)"
           style="fill:#221f1f" />
        <ellipse
           id="ellipse835"
           ry="0.223555"
           rx="0.85305369"
           cy="57.02272"
           cx="2.8206005"
           class="st1"
           transform="rotate(-8.2604432,2.8205917,57.022702)"
           style="fill:#221f1f" />
        <ellipse
           id="ellipse837"
           ry="0.223555"
           rx="0.8530429"
           cy="56.540306"
           cx="2.4323137"
           class="st1"
           transform="rotate(-8.2604432,2.4323049,56.540286)"
           style="fill:#221f1f" />
        <ellipse
           id="ellipse839"
           ry="0.1943475"
           rx="0.74158782"
           cy="55.994808"
           cx="2.3308308"
           class="st1"
           transform="rotate(-8.2611377,2.3308397,55.994795)"
           style="fill:#221f1f" />
        <path
           id="path841"
           d="m 26.464752,53.36343 c -1.435463,0.07059 -4.682941,-0.09412 -5.130054,0.658913 -0.447113,0.753029 1.317798,1.035415 4.094642,0.800098 2.776802,-0.235313 6.706723,-0.541248 6.871445,-1.388416 0.164726,-0.847164 -0.729502,-0.68243 -0.823624,-1.223675 -0.09414,-0.541252 0.98835,-0.541252 1.200135,-1.341351 0.211788,-0.800094 -1.459002,-0.70597 -2.941548,-0.70597 -1.482523,0 -3.953438,0.141193 -4.188764,0.917762 -0.235327,0.776574 1.129552,0.776574 2.094383,0.964833 0.964828,0.188251 0.682461,0.541237 0.682461,0.541237 -0.04708,0.494178 -0.423594,0.70597 -1.859076,0.776569 z"
           class="st1"
           inkscape:connector-curvature="0"
           style="fill:#221f1f" />
        <ellipse
           id="ellipse843"
           ry="0.40593201"
           rx="1.2442774"
           cy="55.428394"
           cx="22.626032"
           class="st1"
           style="fill:#221f1f" />
        <ellipse
           id="ellipse845"
           ry="0.37063611"
           rx="0.82951468"
           cy="55.340149"
           cx="25.829388"
           class="st1"
           style="fill:#221f1f" />
        <ellipse
           id="ellipse847"
           ry="0.30003899"
           rx="0.9089371"
           cy="55.075409"
           cx="28.414999"
           class="st1"
           style="fill:#221f1f" />
        <ellipse
           id="ellipse849"
           ry="0.317687"
           rx="0.66183931"
           cy="54.740074"
           cx="30.409365"
           class="st1"
           style="fill:#221f1f" />
        <ellipse
           id="ellipse851"
           ry="0.3088617"
           rx="0.6706804"
           cy="54.378262"
           cx="32.13018"
           class="st1"
           style="fill:#221f1f" />
        <path
           id="path853"
           d="m 2.8672664,45.700794 c 0,0.401264 0.8752167,0.780674 2.4297125,1.118332 -0.1107087,-0.805141 -0.042298,-1.617184 0.061434,-2.249836 -1.5928738,0.340958 -2.4911468,0.725018 -2.4911465,1.131504 z"
           class="st1"
           inkscape:connector-curvature="0"
           style="fill:#221f1f" />
        <path
           id="path855"
           d="m 48.737293,44.661121 c -0.02358,0.06519 -0.04862,0.129548 -0.07564,0.19273 -0.191196,0.447182 -0.465473,0.842064 -0.815342,1.173436 -0.702167,0.665123 -1.317737,1.063579 -1.867675,1.208927 C 49.016624,46.8092 50.82,46.277431 50.82,45.700794 c 0,-0.370376 -0.745919,-0.722156 -2.082707,-1.039673 z"
           class="st1"
           inkscape:connector-curvature="0"
           style="fill:#221f1f" />
        <path
           id="path857"
           d="m 43.54081,43.817169 c -0.193177,-1.416073 -0.797215,-2.051319 -1.330105,-2.611908 -0.496178,-0.521984 -0.964997,-1.014988 -0.81408,-1.920131 0.139542,-0.836793 0.805268,-1.351655 1.89301,-1.485596 -0.660626,-4.465389 -1.628742,-10.098972 -2.873242,-14.904999 -0.621429,-2.400196 -1.604339,-4.067375 -2.92258,-5.175781 -1.50853,0.77178 -3.323117,1.620094 -5.34869,2.498419 -1.463618,0.63462 -2.974657,1.256332 -4.411658,1.821319 -1.156824,1.241106 -2.42086,2.464335 -3.195505,2.812947 -0.551521,0.248167 -1.041628,0.346963 -1.467623,0.346963 -0.922214,0 -1.544843,-0.462577 -1.846242,-0.874015 -0.349408,0.09234 -0.628529,0.152212 -0.818354,0.172222 -0.227045,0.0239 -0.561596,0.05229 -0.980024,0.08249 0.160762,0.420986 0.09676,0.913879 -0.211577,1.28531 -0.339123,0.408556 -0.885628,0.613799 -1.660126,0.613799 -1.114442,0 -2.701161,-0.425074 -4.822689,-1.28195 -0.312126,-0.12604 -0.598708,-0.238104 -0.861939,-0.337937 -0.162449,8.11e-4 -0.324855,0.0014 -0.48722,0.0014 h -0.0015 c -2.0268996,-3.6e-5 -3.6109007,-0.06374 -4.8526595,-0.165436 -1.3600335,2.81535 -0.7690182,5.937977 -0.2711973,8.517496 0.4770188,2.472012 2.1321707,6.870518 3.6673403,10.649681 0.5695615,1.402035 1.1224295,2.718399 1.5927255,3.819946 4.155973,0.367608 9.484472,0.588437 15.294498,0.588437 6.914102,0 13.142053,-0.313195 17.527662,-0.813855 -0.319523,-1.315033 -0.724338,-3.144767 -0.793888,-3.610195 -0.0015,-0.0094 -0.0032,-0.02036 -0.0043,-0.02861 z M 9.2913237,31.781231 c 0,-2.657496 2.1542993,-4.811836 4.8118163,-4.811836 2.657516,0 4.811815,2.15434 4.811815,4.811836 0,1.324879 -0.535608,2.524528 -1.401932,3.394688 -0.290144,0.291446 -0.617864,0.545093 -0.974565,0.754886 -0.714497,0.420242 -1.546445,0.662239 -2.435318,0.662239 -2.657517,0 -4.8118163,-2.15432 -4.8118163,-4.811813 z M 22.144497,41.968407 c -1.013682,0.301967 -1.378853,-0.863922 -1.487898,-1.369465 0.007,-0.0044 0.01435,-0.009 0.02139,-0.01335 0.47312,-0.296287 1.019918,-0.634167 1.636793,-0.871307 0.07294,0.195293 0.183884,0.523514 0.251198,0.871307 0.1133,0.585529 0.102869,1.226624 -0.421486,1.382813 z m 1.647312,-0.411808 c -0.251766,-0.09442 -0.441845,-0.513237 -0.578203,-0.971005 -0.115639,-0.388172 -0.192669,-0.804325 -0.235665,-1.07468 0.119267,-0.02687 0.240513,-0.04944 0.364205,-0.06571 0.06089,-0.008 0.190435,-0.01753 0.462835,-0.01753 0.248942,0 0.550614,0.0077 0.870222,0.016 0.09166,0.0024 0.186495,0.0048 0.283272,0.0072 0.02508,0.218593 0.05564,0.535965 0.09048,1.000362 0.0035,0.04675 0.0051,0.09119 0.0056,0.134407 0.01484,1.158928 -0.998253,1.07021 -1.26277,0.971005 z m 4.331739,-2.926274 c -0.48998,0.218911 -1.211767,0.312313 -2.413463,0.312313 -0.407869,0 -0.828428,-0.01083 -1.199501,-0.02037 -0.321484,-0.0083 -0.625158,-0.01609 -0.878021,-0.01609 -0.232123,0 -0.401316,0.0068 -0.5029,0.02014 -1.135074,0.149349 -2.072063,0.736443 -2.824937,1.208191 -0.219942,0.137814 -0.427702,0.267986 -0.622166,0.375446 -0.311682,0.172264 -0.694494,0.263314 -1.106981,0.263314 -0.762169,0 -1.479193,-0.299275 -1.918066,-0.800568 -0.364645,-0.416508 -0.517464,-0.936161 -0.441908,-1.502777 0.227192,-1.703724 2.660002,-2.572415 2.936659,-2.665856 l 0.445531,-0.150489 c -0.01471,-0.04315 -0.02637,-0.08734 -0.03391,-0.132794 -0.131678,-0.793186 0.904049,-1.62587 2.313377,-1.859852 0.06325,-0.0105 0.12603,-0.01913 0.18854,-0.0269 1.166772,-0.144909 2.191034,0.181118 2.510347,0.774433 l 0.543426,0.0046 c 1.237734,0.01049 2.259129,0.176751 3.035777,0.494168 0.781051,0.319217 1.25925,0.783188 1.346546,1.306495 0.174925,1.049389 -0.340325,1.952778 -1.37835,2.416588 z m 0.89193,-5.505264 c -2.657515,0 -4.811836,-2.15432 -4.811836,-4.811813 0,-2.657502 2.154322,-4.811837 4.811836,-4.811837 2.657431,0 4.811796,2.154335 4.811796,4.811837 0,2.657493 -2.154365,4.811813 -4.811796,4.811813 z"
           class="st2"
           inkscape:connector-curvature="0"
           style="fill:#67cfe3" />
        <path
           id="path859"
           d="m 35.178288,12.100723 -0.03598,-0.06268 -0.0475,-0.0603 c -0.04474,-0.07164 -0.220955,-0.182307 -0.234673,-0.183445 l -0.01808,-0.0097 -0.0091,-0.0048 -0.0344,-0.01494 -0.003,-0.0011 -0.0061,-0.0022 -0.04879,-0.01722 -0.09836,-0.03369 c -0.06479,-0.02416 -0.138676,-0.03247 -0.208519,-0.04695 -0.07086,-0.01255 -0.146138,-0.01218 -0.219353,-0.0168 -0.07385,0.0026 -0.149002,0.0076 -0.222408,0.0181 -0.295624,0.05213 -0.556431,0.195226 -0.755066,0.365573 -0.201714,0.16982 -0.352951,0.364471 -0.475712,0.557447 -0.243843,0.388124 -0.380917,0.77512 -0.471542,1.108938 -0.08885,0.33475 -0.126599,0.619172 -0.142258,0.819155 -0.01022,0.09932 -0.0095,0.179183 -0.01168,0.232604 -8.43e-4,0.05383 8.24e-4,0.08273 8.24e-4,0.08273 0,0 0.05477,-0.09951 0.150623,-0.273632 0.09575,-0.172222 0.229935,-0.416596 0.395333,-0.697904 0.166706,-0.279475 0.365783,-0.599757 0.607097,-0.890049 0.120888,-0.14397 0.253639,-0.278109 0.393666,-0.381842 0.141162,-0.102474 0.285465,-0.17276 0.429283,-0.195875 0.03627,-0.0045 0.07241,-0.0079 0.108982,-0.01105 0.03724,0.004 0.07378,-1.89e-4 0.111782,0.0066 0.03802,0.0093 0.07574,0.0088 0.114986,0.02151 l 0.09229,0.02496 0.02911,0.01337 c -0.0013,-0.0012 -0.0028,-0.0022 -0.0039,-0.0036 0.0013,5.06e-4 0.0028,8.33e-4 0.005,9.02e-4 8.2e-4,0.0017 0.0021,0.0032 0.0032,0.0047 l 0.0039,0.0018 0.0084,0.004 -0.004,-4.53e-4 c -0.002,-3.74e-4 -0.0038,-0.0011 -0.0056,-0.0019 0.0045,0.0029 0.0087,0.0098 0.01262,0.01899 0.01986,0.03549 0.03444,0.10575 0.04156,0.183466 0.009,0.160547 -0.01029,0.345825 -0.04046,0.521203 -0.02911,0.176517 -0.06648,0.347575 -0.103714,0.506262 -0.07505,0.317805 -0.146748,0.58826 -0.19408,0.779914 -0.04913,0.191027 -0.0752,0.303638 -0.0752,0.303638 0,0 0.08236,-0.08132 0.206497,-0.238242 0.12508,-0.156505 0.293579,-0.387422 0.461044,-0.690359 0.08329,-0.151811 0.166725,-0.321346 0.240322,-0.512531 0.07231,-0.191717 0.138737,-0.403134 0.159393,-0.659558 0.0081,-0.129793 0.0043,-0.274201 -0.05122,-0.439747 -0.01332,-0.04102 -0.03001,-0.08254 -0.05517,-0.125299 z"
           inkscape:connector-curvature="0" />
        <polygon
           id="polygon861"
           points="34.574055,12.449557 34.569778,12.447581 34.574963,12.452418 34.576691,12.452987 34.575741,12.452033 " />
        <path
           id="path863"
           d="m 5.3341346,21.296383 h 0.066093 c -0.022024,-0.03918 -0.044048,-0.07885 -0.066093,-0.119001 z"
           class="st1"
           inkscape:connector-curvature="0"
           style="fill:#221f1f" />
        <path
           id="path865"
           d="m 5.9235487,19.431663 c 0.1420898,0.285119 0.2928629,0.498917 0.4055314,0.643324 0.054269,0.07313 0.1043863,0.126278 0.1360412,0.163477 0.03273,0.03668 0.051804,0.05508 0.051804,0.05508 0,0 -0.019326,-0.103979 -0.055429,-0.279705 -0.034163,-0.176195 -0.086324,-0.425022 -0.1337862,-0.714601 -0.023351,-0.144487 -0.044743,-0.299719 -0.055323,-0.456898 -0.00866,-0.154424 -0.00864,-0.319734 0.025248,-0.441128 0.016945,-0.06026 0.039158,-0.107004 0.060634,-0.130636 0.020885,-0.0212 0.037914,-0.02825 0.068179,-0.03903 l 0.022508,-0.0045 0.036671,-0.0074 c 0.010538,-0.0016 -0.00291,0.0059 -0.00388,0.0068 -0.00398,0.0022 -0.00826,0.0032 -0.01235,0.0031 -0.00207,-6.3e-5 -0.00407,-4e-4 -0.00596,-10e-4 l 0.00464,0.0025 c 0.00647,0.003 0.01254,0.0033 0.020001,0.0041 0.03547,0.0133 0.089718,0.04204 0.1466846,0.0852 0.1185484,0.08599 0.2412701,0.219449 0.3588285,0.354758 0.1161461,0.138565 0.2301426,0.284395 0.3379221,0.430073 0.2150526,0.292484 0.4139404,0.57835 0.588634,0.823808 0.1745667,0.245718 0.3257613,0.451634 0.4359431,0.594778 0.1087914,0.143797 0.1766119,0.224989 0.1766119,0.224989 0,0 -0.00295,-0.02613 -0.00847,-0.07511 -0.00769,-0.04816 -0.015259,-0.120625 -0.034058,-0.20929 C 8.4573308,20.28492 8.3990365,20.03211 8.3020479,19.737228 8.2055647,19.442116 8.071315,19.104763 7.8846719,18.75643 7.7902758,18.582718 7.6844141,18.404915 7.5547797,18.231676 7.4254405,18.057236 7.2784187,17.885719 7.0742833,17.728634 6.9683587,17.653147 6.8462693,17.580042 6.6894895,17.532902 c -0.041497,-0.0099 -0.084997,-0.01792 -0.1276741,-0.02458 l -0.032288,-0.0044 -0.0435,-5.7e-4 c -0.029105,1.7e-4 -0.058379,0.0015 -0.087357,0.004 -0.025817,0.0022 -0.064659,0.0066 -0.078464,0.01008 l -0.036102,0.0098 -0.03606,0.0098 -0.047715,0.01404 -0.014036,0.0062 -0.028009,0.0126 c -0.1482019,0.0608 -0.2934318,0.182802 -0.3758154,0.324449 -0.084512,0.140642 -0.1174951,0.282362 -0.1292129,0.408146 -0.02411,0.253784 0.025691,0.457251 0.07585,0.642649 0.054985,0.183271 0.1239443,0.343735 0.1944413,0.486667 z"
           class="st1"
           inkscape:connector-curvature="0"
           style="fill:#221f1f" />
        <path
           id="path867"
           d="m 8.1425076,48.990822 c 1.1280994,0 1.9223654,-0.614075 2.4797664,-1.410973 C 9.9844075,46.100445 8.9346238,43.607651 7.9392992,40.984165 7.6698509,41.213451 7.3585473,41.559517 7.021721,42.081573 6.1831337,43.381306 5.4924947,46.40546 6.3623372,48.00161 c 0.3626012,0.665737 0.9450177,0.989212 1.7801704,0.989212 z"
           class="st3"
           inkscape:connector-curvature="0"
           style="fill:#dfcaa3" />
        <path
           id="path869"
           d="M 47.968445,41.497623 C 47.30714,39.786659 45.900867,38.572025 44.548676,38.543827 l -0.04839,-0.0042 c -0.0021,-3.82e-4 -0.262009,-0.03912 -0.611122,-0.03912 -0.736477,0 -1.640484,0.157226 -1.765331,0.905769 -0.0866,0.51944 0.140613,0.785503 0.621174,1.29097 0.54916,0.577476 1.301002,1.368438 1.526294,3.020344 0.257943,1.891807 0.719853,2.851177 1.372639,2.851303 h 1.26e-4 c 0.304813,0 0.860821,-0.182755 1.779919,-1.053353 1.131828,-1.072269 1.023376,-2.77853 0.54446,-4.017933 z"
           class="st3"
           inkscape:connector-curvature="0"
           style="fill:#dfcaa3" />
        <circle
           id="circle871"
           r="1.5172451"
           cy="33.471867"
           cx="13.669636"
           class="st1"
           style="fill:#221f1f" />
        <circle
           id="circle873"
           r="1.5172424"
           cy="29.917191"
           cx="28.365194"
           class="st1"
           style="fill:#221f1f" />
        <path
           id="path875"
           d="m 9.5538597,16.522013 c 1.1839483,0.319538 2.5226123,0.481561 3.9788333,0.481561 2.339785,0 7.30762,-0.454586 14.29009,-3.49908 l 0.157138,-0.06852 c -0.02183,-0.354556 0.0069,-0.743444 0.09631,-1.150408 0.154903,-0.704254 0.461592,-1.300997 0.838188,-1.696318 -0.07267,-0.27009 -0.132397,-0.467445 -0.174105,-0.567606 -0.805689,-0.4295202 -7.44836,-2.9038854 -10.912555,-2.9038854 -0.3461,0 -0.648362,0.02578 -0.898295,0.076835 -3.070381,0.6266279 -7.7355116,5.9641044 -7.9030188,6.7207774 -0.050285,0.327348 -0.03507,1.355118 0.00169,2.464744 z"
           class="st4"
           inkscape:connector-curvature="0"
           style="fill:#648c1a" />
        <path
           id="path877"
           d="m 9.4939423,24.101599 c -0.1677809,-0.03496 -0.2617559,-0.04578 -0.3003654,-0.04899 -0.6401005,0.03949 -1.226964,-0.408182 -1.3451967,-1.057413 -0.012013,-0.066 -0.017092,-0.131515 -0.018884,-0.196575 -0.3482909,0.197601 -0.6967926,0.411285 -1.0229335,0.63707 L 6.2264854,23.837294 5.7997309,23.275436 C 5.6711084,23.1061 5.0773951,22.305027 4.5302159,21.251186 c -1.0276542,0.484875 -1.8305402,1.014967 -2.026562,1.517188 -0.037072,0.09512 -0.022087,0.146431 0.016396,0.202823 0.1677808,0.245506 1.1626841,0.996189 6.9738924,1.130402 z"
           class="st4"
           inkscape:connector-curvature="0"
           style="fill:#648c1a" />
        <path
           id="path879"
           d="m 21.560183,22.456205 c 0.510297,-0.324871 1.1622,-0.246128 1.581558,0.152907 0.06464,-0.01016 0.174503,-0.03772 0.337311,-0.110998 0.636158,-0.30239 2.930799,-2.752112 4.674024,-4.849919 0.06272,-0.07546 0.132563,-0.141205 0.207338,-0.198234 -3.983785,1.721437 -9.550331,3.602722 -14.850524,3.602722 -0.851907,0 -1.660694,-0.04967 -2.411588,-0.146837 l 0.116379,0.342643 -0.66282,0.253851 c -0.0048,0.0019 -0.118738,0.04583 -0.309323,0.125015 0.85313,0.19932 2.006478,0.591168 3.455007,1.176198 2.651403,1.070749 3.66538,1.11164 3.919127,1.096529 0.360556,-0.191058 0.796141,-0.198513 1.169049,-0.01635 0.687773,-0.04407 1.22275,-0.08675 1.54282,-0.120433 0.145483,-0.01531 0.361757,-0.0606 0.636938,-0.131665 -0.03035,-0.455511 0.182365,-0.913087 0.594704,-1.175434 z"
           class="st4"
           inkscape:connector-curvature="0"
           style="fill:#648c1a" />
        <path
           id="path881"
           d="m 36.993084,14.582471 c -0.193073,1.150623 -0.564102,2.413785 -0.8102,2.75834 l -0.23088,0.322958 c 1.045528,-0.509054 1.978172,-0.991921 2.769848,-1.435831 2.752777,-1.543447 3.095039,-2.219344 3.134407,-2.389779 0.02577,-0.111637 -0.0016,-0.146053 -0.01334,-0.160784 -0.02997,-0.03759 -0.223271,-0.225175 -1.092713,-0.225175 -0.950142,0 -2.280289,0.217276 -3.668438,0.518554 -0.02409,0.198203 -0.05347,0.401928 -0.08868,0.611717 z"
           class="st4"
           inkscape:connector-curvature="0"
           style="fill:#648c1a" />
        <path
           id="path883"
           d="m 35.919781,17.679417 -0.396893,-0.03231 c -0.0072,-5.85e-4 -0.736099,-0.05902 -1.724403,-0.05902 -1.026791,0 -2.380608,0.06199 -3.491574,0.324967 0.212124,0.440948 0.164093,0.983491 -0.169065,1.384374 -0.272316,0.327711 -0.732201,0.873858 -1.283089,1.500349 0.977095,-0.396522 1.98534,-0.818367 2.996977,-1.257011 1.48402,-0.6435 2.852081,-1.270012 4.068047,-1.861349 z"
           class="st4"
           inkscape:connector-curvature="0"
           style="fill:#648c1a" />
        <path
           id="path885"
           d="m 28.117458,14.180337 c -2.790142,1.216553 -8.903528,3.560521 -14.584765,3.560521 -1.43837,0 -2.848922,-0.150227 -4.1709567,-0.50703 0.1379175,0.208728 0.2745485,0.431453 0.4097681,0.668947 0.4913926,0.86314 0.8508326,1.715769 1.0466016,2.21899 0.686887,0.107453 1.583369,0.193628 2.691784,0.193628 3.263347,0 8.363916,-0.746952 15.362781,-3.897033 0.109972,-0.345146 0.256193,-0.777428 0.437525,-1.25763 -0.01416,5.91e-4 -0.02826,0.0031 -0.04243,0.0031 -0.07442,0 -0.148856,-0.008 -0.220974,-0.02388 -0.434363,-0.09546 -0.755825,-0.449747 -0.929339,-0.959581 z"
           class="st3"
           inkscape:connector-curvature="0"
           style="fill:#dfcaa3" />
        <path
           id="path887"
           d="m 5.4002271,21.296383 c 0.5040588,0.897371 0.9866629,1.533125 0.9866629,1.533125 1.6906209,-1.170441 3.901466,-2.015761 3.901466,-2.015761 0,0 -0.0568,-0.166849 -0.163186,-0.439289 -0.01987,-0.05095 -0.04148,-0.105466 -0.06481,-0.163461 -0.0091,-0.02249 -0.01842,-0.04556 -0.02799,-0.06903 -0.01834,-0.045 -0.037493,-0.09152 -0.057683,-0.139851 C 9.958269,19.962776 9.941136,19.922226 9.923517,19.88087 9.909291,19.84751 9.894706,19.81358 9.879722,19.779023 9.859638,19.732643 9.839026,19.685533 9.817571,19.637158 9.798519,19.594268 9.778856,19.550498 9.75877,19.506198 9.73778,19.459928 9.716114,19.412868 9.694006,19.365245 9.668336,19.310005 9.642139,19.254157 9.614994,19.197349 9.601295,19.168719 9.587322,19.139809 9.573265,19.110849 9.539123,19.040459 9.503843,18.969112 9.4675092,18.89705 9.4580492,18.87826 9.4485832,18.85949 9.4389942,18.84062 9.3956212,18.7554 9.3506672,18.669289 9.3044069,18.582678 c -0.0051,-0.0096 -0.010222,-0.01911 -0.015364,-0.02868 -0.1704788,-0.317328 -0.3599463,-0.640444 -0.5662317,-0.94974 -0.6786041,-1.017469 -1.538794,-1.88315 -2.5020423,-1.882896 -0.3035693,7.8e-5 -0.6177816,0.08616 -0.9393067,0.280565 -1.7697592,1.070095 -0.8563333,3.520514 0.052667,5.175455 0.022044,0.04015 0.044069,0.07982 0.066092,0.119002 z m 0.2530303,-2.994036 c 0.011718,-0.125784 0.044701,-0.267504 0.1292129,-0.408146 0.082384,-0.141647 0.2276134,-0.263647 0.3758154,-0.324449 l 0.028009,-0.0126 0.014036,-0.0062 0.047715,-0.01404 0.03606,-0.0098 0.036102,-0.0098 c 0.013804,-0.0035 0.052646,-0.0078 0.078464,-0.01008 0.028978,-0.0025 0.058252,-0.0038 0.087357,-0.004 l 0.0435,5.7e-4 0.032288,0.0044 c 0.042677,0.0067 0.086177,0.01464 0.1276741,0.02458 0.1567798,0.04714 0.2788692,0.120245 0.3847938,0.195732 0.2041354,0.157085 0.3511572,0.328602 0.4804964,0.503042 0.1296344,0.173239 0.235496,0.351042 0.3298922,0.524754 0.1866431,0.348333 0.3208928,0.685686 0.417376,0.980798 0.096989,0.294882 0.155283,0.547692 0.1881189,0.727089 0.018799,0.08866 0.026365,0.161127 0.034058,0.20929 0.00552,0.04898 0.00847,0.07511 0.00847,0.07511 0,0 -0.06782,-0.08119 -0.1766119,-0.224989 C 8.2459031,20.380585 8.0947085,20.174669 7.9201418,19.928951 7.7454482,19.683493 7.5465604,19.397627 7.3315078,19.105142 7.2237283,18.959465 7.1097318,18.813635 6.9935857,18.67507 6.8760272,18.53976 6.7533055,18.406305 6.6347572,18.320312 c -0.056967,-0.04315 -0.1112146,-0.0719 -0.1466846,-0.0852 -0.00746,-7.97e-4 -0.01353,-0.0012 -0.020001,-0.0041 l -0.00464,-0.0025 c 0.0019,6.22e-4 0.0039,9.59e-4 0.00596,0.001 0.00409,1.26e-4 0.00837,-9e-4 0.01235,-0.0031 9.694e-4,-8.64e-4 0.014415,-0.0084 0.00388,-0.0068 l -0.036671,0.0074 -0.022508,0.0045 c -0.030264,0.01078 -0.047293,0.01783 -0.068179,0.03903 -0.021476,0.02363 -0.043689,0.07038 -0.060634,0.130636 -0.033889,0.121394 -0.03391,0.286704 -0.025248,0.441128 0.01058,0.157179 0.031972,0.312411 0.055323,0.456898 0.047462,0.289579 0.099623,0.538406 0.1337862,0.714601 0.036102,0.175726 0.055429,0.279705 0.055429,0.279705 0,0 -0.019074,-0.01841 -0.051804,-0.05508 -0.031655,-0.0372 -0.081772,-0.09034 -0.1360412,-0.163477 -0.112663,-0.144373 -0.2634361,-0.358171 -0.4055259,-0.64329 -0.070497,-0.142932 -0.1394558,-0.303396 -0.1944413,-0.486667 -0.050159,-0.185398 -0.09996,-0.388865 -0.07585,-0.642649 z"
           class="st2"
           inkscape:connector-curvature="0"
           style="fill:#67cfe3" />
        <polygon
           id="polygon889"
           points="6.2211742,15.721361 6.2211742,15.352669 6.2211533,15.352669 "
           class="st2"
           style="fill:#67cfe3" />
        <path
           id="path891"
           d="m 29.933519,10.077396 c 0.07442,0 0.148835,0.008 0.220976,0.02388 0.540983,0.119055 0.906576,0.639721 1.029593,1.362089 1.031385,-1.448593 2.156175,-2.1809915 3.358438,-2.1809915 0.506737,0 0.951596,0.1194181 1.324669,0.3501081 0.634304,-0.771431 1.037899,-1.303462 1.037899,-1.303462 -0.476829,0.086694 -1.473904,0.2167444 -1.473904,0.2167444 3.771431,-1.3871841 3.467988,-5.1586151 3.467988,-5.1586151 0,0.6502478 -1.950734,2.2108395 -1.950734,2.2108395 0.0867,-0.5635543 -0.216758,-1.3004904 -0.216758,-1.3004904 0.08672,0.7369361 -2.254177,2.6443276 -2.254177,2.6443276 0.173389,-0.3467999 0.04335,-0.9536905 0.04335,-0.9536905 -0.130059,0.6935945 -1.170441,0.9536905 -1.170441,0.9536905 0.650238,-0.780293 1.864029,-4.8985243 0.953701,-5.1586208 -0.91037,-0.260096 -2.167492,2.6876848 -2.167492,2.6876848 -0.04335,-0.6935892 -0.4335,-0.6935892 -0.4335,-0.6935892 0.173408,2.1674824 -1.560585,3.9014769 -1.560585,3.9014769 -0.130057,-0.4335036 -0.823668,-0.6502481 -0.823668,-0.6502481 0.222641,0.4823885 -0.03098,2.6785116 -0.108705,3.3014458 0.230037,-0.162458 0.476007,-0.252577 0.723346,-0.252577 z"
           class="st3"
           inkscape:connector-curvature="0"
           style="fill:#dfcaa3" />
        <path
           id="path893"
           d="m 29.006689,14.294376 c 9.92e-4,0.0011 0.002,0.0018 0.003,0.0029 0.01861,0.0203 0.03785,0.03846 0.05766,0.05417 0.0072,0.0057 0.01484,0.0095 0.02217,0.01464 0.01437,0.0099 0.02866,0.02016 0.04356,0.02763 0.02342,0.01176 0.0474,0.02072 0.07197,0.02611 l 1.89e-4,2.7e-5 c 0.0149,0.0033 0.03033,0.0049 0.04584,0.0059 0.02436,0.0016 0.0494,3.48e-4 0.07509,-0.0036 0.113533,-0.01761 0.238552,-0.0882 0.363487,-0.20461 0.114164,-0.26655 0.236929,-0.538785 0.36865,-0.811837 0.121056,-0.250934 0.243758,-0.490282 0.367955,-0.718496 0.185062,-0.980172 -0.06411,-1.785271 -0.430128,-1.865821 -0.02044,-0.0046 -0.04101,-0.0067 -0.06259,-0.0067 -0.376194,0 -0.92293,0.654695 -1.137182,1.629171 -0.155474,0.707393 -0.08359,1.335981 0.09971,1.687276 2.32e-4,4.32e-4 4.42e-4,8.74e-4 6.54e-4,0.0013 0.03326,0.0635 0.07014,0.117879 0.109991,0.161995 z"
           inkscape:connector-curvature="0" />
        <ellipse
           id="ellipse895"
           ry="0.0049660001"
           rx="0.0014656"
           cy="12.446488"
           cx="34.570141"
           class="st2"
           transform="rotate(-68.466596,34.570141,12.44649)"
           style="fill:#67cfe3" />
        <polygon
           id="polygon897"
           points="34.58234,12.454852 34.586323,12.455305 34.577911,12.451323 34.574055,12.449557 34.575741,12.452033 34.576374,12.452782 "
           class="st2"
           style="fill:#67cfe3" />
        <path
           id="path899"
           d="m 34.542526,10.01966 c -2.146965,0 -3.726518,3.231766 -4.551935,5.427284 -0.07132,0.189678 -0.136946,0.371474 -0.196863,0.542921 -0.0093,0.0266 -0.01853,0.05306 -0.02755,0.07913 -0.06721,0.194399 -0.126579,0.373802 -0.178213,0.53476 -0.08137,0.253795 -0.143397,0.461355 -0.184767,0.604772 0.103731,0.02106 0.205231,0.05628 0.30283,0.103491 1.250969,-0.374412 2.86985,-0.461212 4.092453,-0.461212 1.034546,0 1.784446,0.06146 1.784446,0.06146 0.325131,-0.455173 2.210846,-6.892609 -1.040405,-6.892609 z m 0.74215,2.646109 c -0.02066,0.256424 -0.08709,0.467841 -0.159394,0.659558 -0.0736,0.191185 -0.157032,0.36072 -0.240322,0.512531 -0.167465,0.302937 -0.335964,0.533854 -0.461044,0.690359 -0.124134,0.156927 -0.206497,0.238241 -0.206497,0.238241 0,0 0.02607,-0.11261 0.0752,-0.303637 0.04733,-0.191654 0.11903,-0.462109 0.19408,-0.779914 0.03724,-0.158687 0.07461,-0.329745 0.103714,-0.506262 0.03018,-0.175378 0.04948,-0.360656 0.04046,-0.521203 -0.0071,-0.07772 -0.02171,-0.14798 -0.04156,-0.183466 -0.0039,-0.0092 -0.0081,-0.01612 -0.01262,-0.01899 l -0.0017,-5.69e-4 c -0.0022,-0.0011 -0.0034,-0.0032 -0.0052,-0.0048 l -0.02911,-0.01337 -0.09229,-0.02496 c -0.03924,-0.01266 -0.07697,-0.01217 -0.114986,-0.02151 -0.038,-0.0068 -0.07454,-0.0026 -0.111782,-0.0066 -0.03657,0.0032 -0.07271,0.0066 -0.108982,0.01105 -0.143818,0.02311 -0.288121,0.0934 -0.429283,0.195875 -0.140026,0.103733 -0.272778,0.237872 -0.393666,0.381842 -0.241314,0.290292 -0.440391,0.610574 -0.607097,0.890049 -0.165398,0.281308 -0.299587,0.525682 -0.395333,0.697904 -0.09585,0.174124 -0.150623,0.273632 -0.150623,0.273632 0,0 -0.0017,-0.0289 -8.24e-4,-0.08273 0.0022,-0.05342 0.0015,-0.133281 0.01168,-0.232604 0.01566,-0.199983 0.05341,-0.484405 0.142258,-0.819155 0.09063,-0.333818 0.227699,-0.720814 0.471542,-1.108938 0.122761,-0.192976 0.273998,-0.387627 0.475712,-0.557447 0.198635,-0.170347 0.459442,-0.313443 0.755066,-0.365573 0.07341,-0.01045 0.148559,-0.01549 0.222408,-0.0181 0.07322,0.0046 0.148495,0.0042 0.219353,0.0168 0.06984,0.01448 0.14373,0.02279 0.208519,0.04695 l 0.09836,0.03369 0.04879,0.01722 0.0061,0.0022 0.003,0.0011 0.0344,0.01494 0.0091,0.0048 0.01808,0.0097 c 0.01372,0.0011 0.18993,0.111804 0.234673,0.183445 l 0.0475,0.0603 0.03598,0.06268 c 0.02516,0.04276 0.04185,0.08427 0.05517,0.125299 0.05553,0.165546 0.05929,0.309954 0.05122,0.439747 z"
           class="st2"
           inkscape:connector-curvature="0"
           style="fill:#67cfe3" />
        <path
           id="path901"
           d="m 23.070358,24.418119 c 0.351031,0 0.73711,-0.0936 1.147467,-0.278257 0.855343,-0.384941 2.943487,-2.48148 5.319942,-5.341166 0.087,-0.104648 0.128012,-0.237112 0.11545,-0.372749 -0.01246,-0.135635 -0.07709,-0.25832 -0.181753,-0.345314 -0.117222,-0.09741 -0.241545,-0.117857 -0.325235,-0.117857 -0.152542,0 -0.295792,0.06705 -0.393076,0.184151 -1.034546,1.244993 -3.938685,4.580423 -4.939068,5.055919 l -0.01473,0.0069 c -0.194821,0.08763 -0.37529,0.144908 -0.536454,0.170183 l -0.380241,0.05982 -0.278763,-0.265308 c -0.09349,-0.0889 -0.221754,-0.139824 -0.352316,-0.139824 -0.09612,0 -0.190246,0.02768 -0.272547,0.08001 -0.114923,0.07303 -0.194419,0.186564 -0.224031,0.319535 -0.02946,0.132974 -0.0055,0.2695 0.0677,0.384433 0.03899,0.06134 0.405763,0.599573 1.247659,0.599573 z"
           inkscape:connector-curvature="0" />
        <path
           id="path903"
           d="m 18.221828,24.530262 c -0.08369,0 -0.16662,0.02058 -0.239772,0.05931 l -0.149741,0.07937 -0.169277,0.01003 c -0.03265,0.0019 -0.07303,0.0034 -0.121921,0.0034 -0.476134,0 -1.646574,-0.150114 -4.135802,-1.155328 -2.744873,-1.108595 -3.8322559,-1.274205 -4.2361226,-1.274205 -0.07684,0 -0.1220474,0.0062 -0.1426163,0.0099 -0.133997,0.02439 -0.2504597,0.09944 -0.3280592,0.21146 -0.077473,0.111883 -0.1068096,0.247399 -0.082404,0.381127 0.043415,0.239147 0.2580462,0.419361 0.4989796,0.419361 0.010032,0 0.02019,-2.58e-4 0.030475,-8.89e-4 l 0.056397,-0.0036 0.056251,0.0047 c 0.3026419,0.02514 1.2754785,0.192282 3.7653405,1.197749 2.012842,0.812933 3.537115,1.225177 4.530502,1.225177 0.520329,0 0.876818,-0.111631 1.05971,-0.331977 0.087,-0.104777 0.127884,-0.237114 0.115303,-0.37275 -0.01256,-0.135635 -0.07722,-0.25832 -0.18186,-0.345188 -0.117348,-0.09728 -0.241671,-0.117731 -0.325383,-0.117731 z"
           inkscape:connector-curvature="0" />
        <path
           id="path905"
           d="m 25.11336,35.147144 c 0,0 -0.143862,1.683331 -2.512919,2.032624 -0.44821,0.06608 -0.833193,0.09484 -1.165129,0.09484 -1.260601,0 -1.756502,-0.414756 -2.048143,-0.775047 0,0 -2.270489,0.766892 -2.443895,2.067387 -0.129677,0.972358 0.807121,1.472221 1.632305,1.472221 0.278469,0 0.54408,-0.05688 0.751905,-0.171726 0.823708,-0.455181 2.059166,-1.452213 3.706413,-1.668957 0.148835,-0.01958 0.354594,-0.02642 0.598666,-0.02642 0.56385,0 1.332489,0.03646 2.077522,0.03646 0.846933,0 1.66333,-0.04711 2.114025,-0.248463 1.018719,-0.455188 1.018719,-1.235477 0.95368,-1.625625 -0.07212,-0.432392 -1.106855,-1.165627 -3.66443,-1.187306 z"
           class="st3"
           inkscape:connector-curvature="0"
           style="fill:#dfcaa3" />
        <path
           id="path907"
           d="m 22.354134,36.533314 c 0.02814,-0.0047 0.05585,-0.01 0.08367,-0.01512 0.0309,-0.0057 0.06156,-0.01168 0.09208,-0.01796 1.232442,-0.253642 2.138872,-0.965358 2.148821,-1.677757 6.94e-4,-0.04972 -0.003,-0.09945 -0.01119,-0.149021 -0.01549,-0.09324 -0.04658,-0.181717 -0.09138,-0.264988 -0.319313,-0.593307 -1.343553,-0.919319 -2.510326,-0.774433 -0.06251,0.0078 -0.125292,0.0164 -0.18854,0.0269 -1.409328,0.233983 -2.445055,1.066666 -2.313377,1.859852 0.0075,0.04545 0.0192,0.08964 0.03391,0.132794 0.241924,0.709945 1.427791,1.100307 2.756338,0.879734 z"
           class="st1"
           inkscape:connector-curvature="0"
           style="fill:#221f1f" />
      </g>
    </g>
  </g>
  <style
     id="style815"
     type="text/css">
	.st0{fill:none;}
	.st1{fill:#221F1F;}
	.st2{fill:#67CFE3;}
	.st3{fill:#DFCAA3;}
	.st4{fill:#648C1A;}
</style>
</svg>
