<?xml version="1.0" encoding="iso-8859-1"?>
<!-- Generator: Adobe Illustrator 20.1.0, SVG Export Plug-In . SVG Version: 6.00 Build 0)  -->
<!DOCTYPE svg PUBLIC "-//W3C//DTD SVG 1.1//EN" "http://www.w3.org/Graphics/SVG/1.1/DTD/svg11.dtd">
<svg version="1.1" xmlns="http://www.w3.org/2000/svg" xmlns:xlink="http://www.w3.org/1999/xlink" x="0px" y="0px"
         viewBox="0 0 540 304" style="enable-background:new 0 0 540 304;" xml:space="preserve">
<g id="Keycloak_x5F_color_Logo_above">
        <g>
                <path style="fill:#124574;" d="M113.396,225.469c-6.503,8.615-12.31,16.308-17.97,23.806c6.362,9.482,12.923,19.26,20.092,29.945
                        c-6.138,0-11.407,0.13-16.658-0.121c-0.94-0.045-2.019-1.535-2.668-2.584c-3.856-6.237-7.599-12.543-11.392-18.819
                        c-2.475-4.095-2.484-4.089-7.521-3.112c0,8.005,0,16.023,0,24.354c-5.005,0-9.997,0-15.516,0c0-2.757,0-5.411,0-8.065
                        c0-15.733,0.098-31.467-0.073-47.199c-0.04-3.651,0.758-6.66,3.043-9.501c2.341-2.911,4.146-6.265,6.578-9.086
                        c1.296-1.503,3.422-2.29,5.948-3.892c0,15.123,0,28.707,0,42.555c2.784,1.379,5.049,0.876,6.986-2.012
                        c3.085-4.599,6.222-9.186,9.687-13.497c1.111-1.382,3.276-2.499,5.051-2.651C103.376,225.217,107.825,225.469,113.396,225.469z"/>
                <path style="fill:#124574;" d="M440.282,201.135c0,15.363,0,29.063,0,42.794c3.281,1.227,5.373,0.153,7.184-2.645
                        c2.844-4.396,6.158-8.488,8.994-12.888c1.488-2.308,3.205-3.117,5.887-2.985c4.264,0.211,8.547,0.056,13.929,0.056
                        c-6.493,8.553-12.324,16.234-17.994,23.704c6.395,9.584,12.928,19.374,20.031,30.019c-6.104,0-11.396,0.134-16.669-0.125
                        c-0.935-0.046-1.985-1.612-2.648-2.682c-3.859-6.234-7.796-12.432-11.337-18.846c-1.759-3.186-3.861-4.267-7.371-3.094
                        c0,8.097,0,16.246,0,24.587c-5.139,0-10.007,0-15.422,0c0-1.964,0-3.714,0-5.464c0-16.781-0.138-33.565,0.126-50.342
                        c0.048-3.036,1.345-6.254,2.781-9.016c1.711-3.292,3.991-6.359,6.424-9.179C435.477,203.545,437.607,202.793,440.282,201.135z"/>
                <path style="fill:#124574;" d="M362.271,252.316c-0.442,3.702-0.73,7.431-1.358,11.102c-1.533,8.96-6.73,14.897-15.821,15.812
                        c-7.489,0.754-15.237,0.828-22.666-0.229c-7.983-1.136-13.211-6.87-14.169-14.837c-0.899-7.473-0.969-15.209-0.13-22.687
                        c1.07-9.537,6.499-15.099,15.731-16.464c6.271-0.927,12.863-1.105,19.138-0.29c12.099,1.572,17.933,8.528,18.728,20.824
                        c0.145,2.236,0.021,4.49,0.021,6.736C361.921,252.294,362.096,252.305,362.271,252.316z M345.834,252.174
                        c-0.323-3.055-0.515-6.051-0.979-9.004c-0.823-5.226-4.332-7.804-10.338-7.807c-6.223-0.003-10.05,2.684-10.428,8.158
                        c-0.4,5.786-0.408,11.646,0.012,17.429c0.393,5.411,3.876,7.8,10.097,7.845c6.609,0.048,9.87-2.269,10.677-7.756
                        C345.308,258.082,345.525,255.092,345.834,252.174z"/>
                <path style="fill:#124574;" d="M370.125,236.095c-0.358-2.717-0.778-5.908-1.272-9.66c12.896-1.704,25.255-4.265,37.778-1.372
                        c6.127,1.416,10.297,5.863,10.525,12.024c0.513,13.867,0.161,27.765,0.161,41.907c-3.944,0-7.765,0-11.717,0
                        c-0.602-2.496-1.181-4.895-1.906-7.902c-1.465,1.248-2.572,2.158-3.644,3.109c-6.159,5.461-13.465,7.029-21.346,5.79
                        c-7.417-1.166-11.834-6.276-12.445-13.748c-0.17-2.085-0.241-4.195-0.133-6.282c0.445-8.603,5.232-13.357,13.963-13.667
                        c5.687-0.202,11.391,0.045,17.076-0.179c1.675-0.066,3.315-1.052,4.971-1.616c-1.051-2.476-1.66-5.328-3.324-7.282
                        c-0.957-1.125-3.618-1.048-5.519-1.076C385.816,236.031,378.338,236.095,370.125,236.095z M393.452,255.181
                        c0,0.056,0,0.112,0,0.168c-2.235,0-4.489-0.185-6.701,0.04c-4.095,0.418-5.385,3.076-5.24,6.908
                        c0.149,3.929,2.066,6.719,5.911,6.271c4.15-0.484,8.226-2.08,12.188-3.577c3.751-1.418,2.984-5.013,2.332-7.708
                        c-0.251-1.036-3.151-1.573-4.923-2.047C395.904,254.939,394.645,255.181,393.452,255.181z"/>
                <path style="fill:#124574;" d="M129.544,256.889c0.774,7.933,3.314,10.724,9.68,10.863c5.971,0.13,11.956-0.329,17.934-0.536
                        c1.62-0.056,3.24-0.141,5.143-0.224c0.54,3.213,1.028,6.115,1.653,9.831c-4.111,0.972-8.082,2.565-12.11,2.724
                        c-7.719,0.304-15.576,0.524-23.179-0.58c-7.872-1.143-12.934-6.594-14.784-14.464c-1.981-8.427-1.895-16.96,0.068-25.357
                        c1.478-6.324,5.214-11.114,11.628-13.164c9.523-3.045,19.199-3.252,28.674-0.057c9.932,3.35,14.691,16.512,8.838,25.209
                        c-1.825,2.712-5.816,5.182-9.037,5.499C146.079,257.415,137.978,256.889,129.544,256.889z M129.093,248.104
                        c5.049,0,9.786-0.062,14.521,0.021c3.415,0.059,5.844-0.927,6.16-4.792c0.315-3.849-0.821-6.716-4.91-7.814
                        C134.918,232.848,129.349,237.03,129.093,248.104z"/>
                <path style="fill:#124574;" d="M177.219,302c-0.3-1.772-0.328-2.523-0.559-3.206c-1.543-4.557-0.699-7.248,4.614-8.731
                        c4.804-1.341,8.454-4.956,10.456-10.685c-7.164,1-8.153-4.23-9.826-9.077c-4.581-13.275-9.359-26.482-14.034-39.725
                        c-0.537-1.52-0.92-3.094-1.506-5.091c5.046,0,9.685-0.189,14.287,0.138c1.093,0.078,2.65,1.714,2.999,2.921
                        c3.525,12.192,6.839,24.446,10.229,36.677c0.309,1.115,0.738,2.197,1.55,4.585c0.989-2.24,1.667-3.395,2.024-4.643
                        c3.411-11.918,6.84-23.832,10.09-35.795c0.787-2.897,1.994-4.236,5.217-3.977c3.989,0.321,8.023,0.077,12.757,0.077
                        c-1.438,4.11-2.66,7.595-3.876,11.082c-4.868,13.967-9.695,27.948-14.615,41.896c-3.212,9.106-7.567,17.531-17.207,21.237
                        C185.948,301.172,181.533,301.253,177.219,302z"/>
                <path style="fill:#124574;" d="M271.368,227.377c-0.468,2.949-0.953,6.008-1.497,9.437c-6.124,0-12.096-0.299-18.025,0.079
                        c-6.831,0.436-9.311,2.89-10.18,9.637c-0.436,3.386-0.487,6.894-0.157,10.293c0.761,7.844,4.05,10.792,11.95,10.974
                        c5.644,0.131,11.294,0.025,17.326,0.025c-0.199-0.294,0.054-0.076,0.109,0.183c2.376,11.113,1.476,9.885-7.258,11.161
                        c-7.131,1.042-14.584,0.783-21.802,0.107c-8.924-0.836-14.682-6.394-15.717-15.236c-0.892-7.621-1.191-15.541-0.14-23.105
                        c1.419-10.21,6.761-14.553,16.946-16.303C253.146,222.874,263.782,223.85,271.368,227.377z"/>
                <path style="fill:#124574;" d="M303.189,267.965c0.609,3.387,1.185,6.589,1.84,10.227c-6.946,2.67-13.884,3.317-20.81,0.437
                        c-3.985-1.657-6.658-4.995-6.743-9.326c-0.328-16.587-0.38-33.179-0.389-49.77c-0.001-1.34,0.934-2.797,1.734-4
                        c2.398-3.608,4.776-7.254,7.511-10.6c1.196-1.464,3.24-2.236,4.898-3.322c0.435,0.314,0.87,0.628,1.306,0.943
                        c0,1.575,0,3.15,0,4.725c0,16.448,0,32.897,0,49.345C292.536,266.457,292.948,266.918,303.189,267.965z"/>
        </g>
        <g>
                <path style="fill:#124574;" d="M264.561,2c7.722,4.228,15.606,8.187,23.131,12.739c15.625,9.453,16.094,35.202,1.026,45.766
                        c-1.192,0.835-2.276,1.824-4.295,3.458c2.114,0.199,3.118,0.485,4.065,0.353c10.247-1.425,18.856,1.918,27.207,7.822
                        c6.937,4.905,14.553,9.157,22.412,12.371c8.996,3.679,18.205,2.172,26.785-2.528c2.008-1.1,4.103-2.042,6.158-3.056
                        c0.49,0.42,0.981,0.84,1.471,1.259c-1.203,2.604-2.405,5.21-3.611,7.813c-0.742,1.601-1.835,3.127-2.181,4.808
                        c-2.262,11.003-9.181,16.612-20.08,17.899c-1.505,0.178-3.061,0.675-4.391,1.396c-2.054,1.114-3.935,2.549-5.889,3.849
                        c1.396,1.791,3.028,3.447,4.133,5.403c1.737,3.074,4.776,6.705,4.19,9.441c-0.6,2.803-4.665,5.197-7.668,7.022
                        c-1.685,1.024-4.287,0.605-6.482,0.713c-8.924,0.44-10.318,2.15-9.356,11.139c0.514,4.801-2.295,8.146-6.526,8.473
                        c-6.468,0.499-13.082,0.002-19.556-0.746c-5.835-0.674-11.564-2.254-16.899-3.344c-0.879,1.12-1.425,1.51-1.375,1.795
                        c2.151,12.323-7.636,17.812-14.48,24.839c-1.132,1.162-4.901,1.671-5.804,0.792c-3.02-2.943-6.378-6.319-7.558-10.159
                        c-1.288-4.191-0.293-9.083-0.293-14.172c-15.441,1.517-29.895,2.172-37.218-14.476c0-1.327,0-2.654,0-3.981
                        c1.564-1.816,1.78-6.102,5.977-2.265c5.506,5.033,11.006,3.535,12.241-3.851c1.059-6.335,0.732-13.166-0.372-19.538
                        c-1.76-10.16-5.597-20.006-6.854-30.195c-1.416-11.483,3.391-16.028,14.936-16.994c1.132-0.095,2.23-0.58,4.661-1.243
                        c-2.764-2.006-4.458-3.281-6.198-4.491c-13.925-9.683-13.806-35.699,0.482-44.663C244.165,10.547,252.487,6.456,260.58,2
                        C261.907,2,263.234,2,264.561,2z M339.62,107.402c-9.546-1.199-15.363-6.387-20.342-12.832c-1.753-2.269-3.623-4.449-5.348-6.738
                        c-8.377-11.113-19.731-12.987-32.553-10.76c-3.381,0.587-4.945,1.912-4.924,5.563c0.117,20.962,0.002,41.926,0.172,62.887
                        c0.013,1.545,1.445,4.231,2.569,4.435c10.358,1.872,20.766,3.569,31.222,4.756c4.362,0.495,6.918-1.623,6.026-6.895
                        c-1.36-8.039,2.378-12.247,10.676-12.992c3.055-0.274,6.208-0.331,9.118-1.173c5.59-1.617,6.17-5.111,1.782-8.983
                        C329.744,117.37,329.829,114.692,339.62,107.402z M294.471,38.525c0.892-9.443-1.915-16.474-10.664-21.563
                        C260.168,3.214,264.29,3.44,240.269,17.841c-13.49,8.087-13.732,30.813-0.812,39.802c2.53,1.76,5.333,4.497,6.008,7.27
                        c1.397,5.744,6.285,8.08,10.165,9.402c11.054,3.766,19.474-0.797,24.574-11.336c0.816-1.687,2.262-3.464,3.881-4.302
                        C292.44,54.35,295.456,47.435,294.471,38.525z M253.038,78.794c-0.224,1.622-0.499,2.692-0.5,3.762
                        c-0.027,28.523-0.197,57.048,0.198,85.565c0.047,3.396,3.201,6.75,5.02,10.329c10.631-7.874,15.941-15.609,15.194-28.177
                        c-1.245-20.931-0.33-41.99-0.324-62.995c0.001-2.346,0-4.692,0-7.547c-2.869,0.383-4.847,0.647-7.456,0.996
                        c3.2,4.302,7.292,7.88,1.98,12.691c-1.773-4.156-3.317-7.773-5.424-12.711c-1.376,5.522-2.299,9.223-3.221,12.924
                        c-0.809-0.115-1.618-0.231-2.426-0.346c0.285-4.237,0.571-8.474,0.903-13.408C256.424,79.723,254.865,79.295,253.038,78.794z
                         M217.009,143.158c4.132,8.396,12.133,11.517,24.572,10.368c4.929-0.455,7.278-2.031,7.184-7.671
                        c-0.342-20.51-0.085-41.029-0.187-61.544c-0.016-3.227,1.415-7.41-4.078-8.205c-5.4-0.782-10.391-0.545-12.826,5.248
                        c-1.081,2.571-1.868,5.618-1.602,8.333c0.684,6.971,2.34,13.846,3.029,20.817c0.705,7.132,1.735,14.468,0.795,21.469
                        C232.582,141.774,227.395,144.733,217.009,143.158z"/>
                <path style="fill:#DFE0E1;" d="M339.62,107.402c-9.791,7.291-9.876,9.968-1.602,17.27c4.387,3.872,3.808,7.366-1.782,8.983
                        c-2.91,0.842-6.063,0.899-9.118,1.173c-8.298,0.744-12.036,4.953-10.676,12.992c0.892,5.272-1.664,7.39-6.026,6.895
                        c-10.457-1.187-20.864-2.884-31.222-4.756c-1.125-0.203-2.557-2.89-2.569-4.435c-0.17-20.961-0.055-41.925-0.172-62.887
                        c-0.02-3.652,1.543-4.976,4.924-5.563c12.822-2.227,24.176-0.353,32.553,10.76c1.725,2.289,3.595,4.469,5.348,6.738
                        C324.256,101.015,330.073,106.203,339.62,107.402z"/>
                <path style="fill:#E6F4FC;" d="M294.471,38.525c0.985,8.909-2.031,15.825-10.386,20.151c-1.619,0.838-3.064,2.615-3.881,4.302
                        c-5.1,10.54-13.52,15.102-24.574,11.336c-3.881-1.322-8.768-3.657-10.165-9.402c-0.675-2.773-3.478-5.51-6.008-7.27
                        c-12.921-8.989-12.678-31.715,0.812-39.802c24.021-14.401,19.899-14.627,43.538-0.878
                        C292.556,22.051,295.363,29.083,294.471,38.525z M284.101,24.461c-14.318,5.725-28.921,5.715-43.531,0.735
                        c-0.934,3.42-1.543,5.648-2.193,8.028c2.511,1.357,4.832,2.237,6.711,3.689c11.906,9.193,23.306,8.764,35.74,0.228
                        C286.077,33.537,288.149,31.074,284.101,24.461z"/>
                <path style="fill:#E5F2FC;" d="M253.038,78.794c1.828,0.502,3.387,0.929,3.943,1.082c-0.332,4.934-0.618,9.171-0.903,13.408
                        c0.809,0.115,1.618,0.231,2.426,0.346c0.922-3.701,1.845-7.401,3.221-12.924c2.107,4.938,3.65,8.555,5.424,12.711
                        c5.312-4.811,1.22-8.389-1.98-12.691c2.609-0.349,4.587-0.613,7.456-0.996c0,2.855,0.001,5.201,0,7.547
                        c-0.005,21.005-0.92,42.064,0.324,62.995c0.747,12.568-4.563,20.302-15.194,28.177c-1.819-3.579-4.973-6.933-5.02-10.329
                        c-0.395-28.517-0.225-57.042-0.198-85.565C252.538,81.485,252.814,80.416,253.038,78.794z"/>
                <path style="fill:#FFFFFF;" d="M217.009,143.158c10.387,1.575,15.573-1.384,16.889-11.185c0.94-7.001-0.09-14.337-0.795-21.469
                        c-0.689-6.971-2.345-13.846-3.029-20.817c-0.266-2.715,0.521-5.762,1.602-8.333c2.435-5.793,7.425-6.03,12.826-5.248
                        c5.493,0.795,4.062,4.978,4.078,8.205c0.102,20.515-0.155,41.034,0.187,61.544c0.094,5.641-2.256,7.216-7.184,7.671
                        C229.142,154.674,221.141,151.553,217.009,143.158z"/>
                <path style="fill:#124574;" d="M284.101,24.461c4.049,6.612,1.977,9.076-3.273,12.68c-12.434,8.537-23.834,8.965-35.74-0.228
                        c-1.88-1.451-4.201-2.332-6.711-3.689c0.65-2.38,1.259-4.609,2.193-8.028C255.18,30.176,269.782,30.186,284.101,24.461z"/>
        </g>
</g>
<g id="Layer_1">
</g>
</svg>
