<?xml version="1.0" encoding="UTF-8" standalone="no"?>
<!-- Generator: Adobe Illustrator 16.0.4, SVG Export Plug-In . SVG Version: 6.00 Build 0)  -->

<svg
   xmlns:dc="http://purl.org/dc/elements/1.1/"
   xmlns:cc="http://creativecommons.org/ns#"
   xmlns:rdf="http://www.w3.org/1999/02/22-rdf-syntax-ns#"
   xmlns:svg="http://www.w3.org/2000/svg"
   xmlns="http://www.w3.org/2000/svg"
   xmlns:sodipodi="http://sodipodi.sourceforge.net/DTD/sodipodi-0.dtd"
   xmlns:inkscape="http://www.inkscape.org/namespaces/inkscape"
   version="1.1"
   id="Layer_1"
   x="0px"
   y="0px"
   width="45.826279"
   height="26.101698"
   viewBox="0 0 45.826279 26.101698"
   enable-background="new 0 0 37 35"
   xml:space="preserve"
   sodipodi:docname="kiali.svg"
   inkscape:version="0.92.2 (5c3e80d, 2017-08-06)"><metadata
     id="metadata4833"><rdf:RDF><cc:Work
         rdf:about=""><dc:format>image/svg+xml</dc:format><dc:type
           rdf:resource="http://purl.org/dc/dcmitype/StillImage" /><dc:title></dc:title></cc:Work></rdf:RDF></metadata><defs
     id="defs4831" /><sodipodi:namedview
     pagecolor="#ffffff"
     bordercolor="#666666"
     borderopacity="1"
     objecttolerance="10"
     gridtolerance="10"
     guidetolerance="10"
     inkscape:pageopacity="0"
     inkscape:pageshadow="2"
     inkscape:window-width="2880"
     inkscape:window-height="1526"
     id="namedview4829"
     showgrid="false"
     inkscape:zoom="6.7428571"
     inkscape:cx="-40.758471"
     inkscape:cy="8.0084748"
     inkscape:window-x="-11"
     inkscape:window-y="-11"
     inkscape:window-maximized="1"
     inkscape:current-layer="Layer_1" /><linearGradient
     id="SVGID_1_"
     gradientUnits="userSpaceOnUse"
     x1="231.89549"
     y1="-269.55469"
     x2="231.89549"
     y2="-301.71991"
     gradientTransform="matrix(1,0,0,-1,-213.5,-268.5)"><stop
       offset="0"
       style="stop-color:#60EFFF"
       id="stop4821" /><stop
       offset="1"
       style="stop-color:#1F89C7"
       id="stop4823" /></linearGradient><rect
     style="opacity:1;fill:#36363f;fill-opacity:0.94117647;stroke:#6c655f;stroke-width:0;stroke-linecap:round;stroke-linejoin:round;stroke-miterlimit:4;stroke-dasharray:none;stroke-opacity:1;paint-order:stroke fill markers"
     id="rect847"
     width="45.826279"
     height="26.101696"
     x="0"
     y="5e-007" /><g
     id="g4007"
     transform="matrix(2.9522076,0,0,2.782949,4.7570626,0.98070402)"><path
       class="st1"
       d="M 7.8,0 C 5.4,0 3.5,1.9 3.5,4.3 3.5,6.7 5.4,8.6 7.8,8.6 10.2,8.6 12,6.6 12,4.3 12,2 10.1,0 7.8,0 Z m 0,7.9 c -2,0 -3.6,-1.6 -3.6,-3.6 0,-2 1.6,-3.6 3.6,-3.6 2,0 3.6,1.6 3.6,3.6 0,0 0,0 0,0 0,2 -1.6,3.6 -3.6,3.6 z"
       id="path4001"
       inkscape:connector-curvature="0"
       style="fill:#d7f7ff" /><path
       class="st2"
       d="M 6.3,1 C 4.5,1.8 3.6,4 4.5,5.8 4.9,6.6 5.5,7.3 6.3,7.6 8.1,6 8.3,3.2 6.7,1.3 6.6,1.2 6.4,1.1 6.3,1 Z"
       id="path4003"
       inkscape:connector-curvature="0"
       style="fill:#0093dd" /><path
       class="st2"
       d="m 3.5,4.3 c 0,-1 0.3,-1.9 1,-2.7 C 4.1,1.4 3.7,1.3 3.2,1.3 c -1.6,0 -2.9,1.3 -2.9,3 0,1.7 1.3,3 2.9,3 C 3.6,7.3 4,7.2 4.4,7 3.8,6.2 3.5,5.3 3.5,4.3 Z"
       id="path4005"
       inkscape:connector-curvature="0"
       style="fill:#0093dd" /></g></svg>