<?xml version="1.0" encoding="utf-8"?>
<!-- Generator: Adobe Illustrator 21.1.0, SVG Export Plug-In . SVG Version: 6.00 Build 0)  -->
<svg version="1.1" id="linkerd-logo" xmlns="http://www.w3.org/2000/svg" xmlns:xlink="http://www.w3.org/1999/xlink" x="0px"
	 y="0px" viewBox="0 0 138.9 129.2" style="enable-background:new 0 0 138.9 129.2;" xml:space="preserve">
<style type="text/css">
	.st0{fill:#007EFF;}
	.st1{fill:#40A0B4;}
	.st2{fill:#338090;}
	.st3{fill:#45C1A8;}
	.st4{fill:#7CE1C0;}
	.st5{fill:url(#Fill-13_1_);}
	.st6{fill:url(#Fill-14_1_);}
	.st7{fill:url(#Fill-15_1_);}
	.st8{fill:url(#Fill-16_1_);}
	.st9{fill:url(#Fill-17_1_);}
	.st10{fill:url(#Fill-18_1_);}
	.st11{fill:#A2EACF;}
</style>
<g id="Logo-Symbol-72px" transform="translate(11.000000, 0.000000)">
	<g id="reverse-2_5_" transform="translate(0.000000, 12.500000)">
		<polygon id="Fill-1_5_" class="st1" points="115,62.1 124.1,67.4 124.1,17.7 115,12.4 		"/>
		<polygon id="Fill-2_5_" class="st1" points="-7.9,17.7 -7.9,67.4 1.3,62.1 1.3,12.4 		"/>
		<polygon id="Fill-3_5_" class="st1" points="32.5,106.6 41.7,111.9 63.5,99.3 54.3,94 		"/>
		<polygon id="shadow_11_" class="st2" points="45.3,99.2 54.5,104.5 63.5,99.3 54.3,94 		"/>
	</g>
	<g id="reverse-1_5_" transform="translate(24.500000, 37.500000)">
		<polygon id="Fill-5_5_" class="st3" points="54.7,66.3 54.7,55.7 15.3,32.9 12.6,34.5 12.6,34.5 12.6,41.9 		"/>
		<polygon id="Fill-6_5_" class="st3" points="12.6,65.2 50.1,86.9 59.3,81.6 12.6,54.6 		"/>
	</g>
	<g id="top-2_5_">
		<polygon id="Fill-7_5_" class="st4" points="92.5,37.9 101.7,43.2 124.1,30.2 115,24.9 		"/>
		<polygon id="Fill-8_5_" class="st4" points="62.8,65.6 53.6,60.4 32.5,72.6 41.6,77.9 		"/>
		<polygon id="Fill-9_5_" class="st4" points="104,18.6 94.8,13.3 72.4,26.2 81.6,31.5 		"/>
		<polygon id="Fill-10_5_" class="st4" points="42.6,54 33.5,48.7 12.3,60.9 21.5,66.2 		"/>
		<polygon id="Fill-11_5_" class="st4" points="52.2,14.6 61.4,19.9 83.8,6.9 74.7,1.6 		"/>
		<polygon id="Fill-12_5_" class="st4" points="-7.8,49.3 1.3,54.6 22.5,42.4 13.3,37.1 		"/>
	</g>
	<g id="gradient_5_" transform="translate(0.000000, 26.000000)">
		
			<linearGradient id="Fill-13_1_" gradientUnits="userSpaceOnUse" x1="-269.5696" y1="288.0777" x2="-269.5696" y2="286.2443" gradientTransform="matrix(5 0 0 -28.291 1467.4115 8173.2773)">
			<stop  offset="0" style="stop-color:#4AD8AC"/>
			<stop  offset="1" style="stop-color:#4076C4"/>
		</linearGradient>
		<polygon id="Fill-13_5_" class="st5" points="115,28.6 115,75.1 124.1,69.8 124.1,23.3 		"/>
		
			<linearGradient id="Fill-14_1_" gradientUnits="userSpaceOnUse" x1="-271.4031" y1="287.8906" x2="-271.4031" y2="286.0572" gradientTransform="matrix(5 0 0 -28.291 1456.4114 8179.6279)">
			<stop  offset="0" style="stop-color:#4AD8AC"/>
			<stop  offset="1" style="stop-color:#4076C4"/>
		</linearGradient>
		<polygon id="Fill-14_5_" class="st6" points="104,81.5 104,34.9 94.8,40.2 94.8,86.8 		"/>
		
			<linearGradient id="Fill-15_1_" gradientUnits="userSpaceOnUse" x1="-273.2439" y1="287.7036" x2="-273.2439" y2="285.8703" gradientTransform="matrix(5.0005 0 0 -28.2915 1445.5848 8186.1255)">
			<stop  offset="0" style="stop-color:#4AD8AC"/>
			<stop  offset="1" style="stop-color:#4076C4"/>
		</linearGradient>
		<polygon id="Fill-15_5_" class="st7" points="74.6,51.9 74.6,98.4 83.8,93.1 83.8,46.6 		"/>
		
			<linearGradient id="Fill-16_1_" gradientUnits="userSpaceOnUse" x1="-277.0693" y1="287.7035" x2="-277.0693" y2="285.8701" gradientTransform="matrix(5 0 0 -28.291 1422.4156 8185.978)">
			<stop  offset="0" style="stop-color:#4AD8AC"/>
			<stop  offset="1" style="stop-color:#4076C4"/>
		</linearGradient>
		<polygon id="Fill-16_5_" class="st8" points="32.5,93.1 41.7,98.4 41.7,51.9 32.5,46.6 		"/>
		
			<linearGradient id="Fill-17_1_" gradientUnits="userSpaceOnUse" x1="-278.9027" y1="287.8906" x2="-278.9027" y2="286.0572" gradientTransform="matrix(5 0 0 -28.291 1411.4156 8179.6279)">
			<stop  offset="0" style="stop-color:#4AD8AC"/>
			<stop  offset="1" style="stop-color:#4076C4"/>
		</linearGradient>
		<polygon id="Fill-17_5_" class="st9" points="21.5,40.2 21.5,86.8 12.3,81.5 12.3,34.9 		"/>
		
			<linearGradient id="Fill-18_1_" gradientUnits="userSpaceOnUse" x1="-280.7361" y1="288.0777" x2="-280.7361" y2="286.2443" gradientTransform="matrix(5 0 0 -28.291 1400.4155 8173.2769)">
			<stop  offset="0" style="stop-color:#4AD8AC"/>
			<stop  offset="1" style="stop-color:#4076C4"/>
		</linearGradient>
		<polygon id="Fill-18_5_" class="st10" points="-7.8,69.8 1.3,75.1 1.3,28.6 -7.8,23.3 		"/>
	</g>
	<g id="shadow_10_" transform="translate(7.000000, 19.000000)">
		<polygon id="Fill-19_5_" class="st3" points="38.3,46.1 47.5,51.4 55.8,46.6 46.6,41.4 		"/>
		<polygon id="Fill-20_5_" class="st3" points="-2,22.9 7.2,28.2 15.5,23.4 6.3,18.1 		"/>
		<polygon id="Fill-21_5_" class="st3" points="18.2,34.5 27.3,39.8 35.6,35 26.5,29.7 		"/>
	</g>
	<g id="top-1_5_">
		<polygon id="Fill-22_5_" class="st11" points="41.6,1.6 32.5,6.9 115,54.6 124.1,49.3 		"/>
		<polygon id="Fill-23_5_" class="st11" points="21.5,13.3 12.3,18.6 94.8,66.2 104,60.9 		"/>
		<polygon id="Fill-24_5_" class="st11" points="-7.9,30.2 74.6,77.9 83.8,72.6 1.3,24.9 		"/>
	</g>
</g>
</svg>
