<?xml version="1.0" encoding="utf-8"?>
<!-- Generator: Adobe Illustrator 21.0.2, SVG Export Plug-In . SVG Version: 6.00 Build 0)  -->
<svg version="1.1" id="Layer_1" xmlns="http://www.w3.org/2000/svg" xmlns:xlink="http://www.w3.org/1999/xlink" x="0px" y="0px"
	 viewBox="0 0 28 45" style="enable-background:new 0 0 28 45;" xml:space="preserve">
<style type="text/css">
	.st0{fill:#4D4E4E;}
	.st1{fill:#F05B26;}
</style>
<g>
	<g>
		<g>
			<path class="st0" d="M14.56,43.06l-2.99,1.88V25.53c-0.32-0.11-0.63-0.21-0.91-0.3c-4.2-1.4-6.87-3.77-7.53-6.67
				c-0.54-2.36,0.33-4.84,2.36-6.8c1.86-1.8,4.46-3.86,6.55-5.53c0.76-0.6,1.41-1.12,1.93-1.55c0.49-0.41,0.34-1.04,0.12-1.31
				c-0.37-0.44-0.97-0.37-1.38-0.07c-0.02,0.02-1.19,0.93-1.19,0.93l-1.8-2.43c0,0,1.18-0.87,1.22-0.9c1.76-1.29,4.1-1.05,5.44,0.57
				c0.87,1.05,1.14,2.45,0.69,3.8c-0.24,0.71-0.71,1.31-1.29,1.79c-0.53,0.43-1.16,0.94-1.89,1.52c-2.04,1.62-4.58,3.64-6.33,5.34
				c-1.29,1.24-1.83,2.66-1.53,4c0.42,1.84,2.38,3.43,5.53,4.49v-9.71c8.46,2.86,14.44,12.86,16.42,18.4c0,0-8.77-2.97-13.44-4.54
				V43.06z M14.56,23.38c2.6,0.87,5.66,1.91,7.94,2.68c-2.51-4.43-5.82-7.14-7.94-8.53V23.38z"/>
		</g>
	</g>
	<polygon points="14.56,28.47 11.58,27.46 11.58,25.51 14.56,26.51 	"/>
	<path class="st1" d="M0.18,11.43c-0.05,0.04-0.12,0.03-0.15-0.02C-0.01,11.37,0,11.3,0.04,11.26c1.03-0.95,5.12-5,9.69-9.47
		l1.8,2.42C11.53,4.21,0.32,11.33,0.18,11.43z"/>
</g>
</svg>
