<?xml version="1.0" encoding="utf-8"?>
<!-- Generator: Adobe Illustrator 17.0.0, SVG Export Plug-In . SVG Version: 6.00 Build 0)  -->
<!DOCTYPE svg PUBLIC "-//W3C//DTD SVG 1.0//EN" "http://www.w3.org/TR/2001/REC-SVG-20010904/DTD/svg10.dtd">
<svg version="1.0" id="Layer_1" xmlns="http://www.w3.org/2000/svg" xmlns:xlink="http://www.w3.org/1999/xlink" x="0px" y="0px"
	 width="1200px" height="1200px" viewBox="0 0 1200 1200" enable-background="new 0 0 1200 1200" xml:space="preserve">
<path fill="#0072C6" d="M1031.086,702.183c-0.769,0-1.512-0.1-2.277-0.115c-22.186,59.867-63.348,110.478-116.152,144.66
	c0.091,1.846,0.28,3.668,0.28,5.537c0,61.725-50.038,111.763-111.763,111.763c-22.386,0-43.189-6.65-60.671-17.984v-52.591l0,0
	v-51.592l0,0v-83.376c17.482-11.334,38.285-17.984,60.671-17.984c42.241,0,78.987,23.447,97.991,58.023
	c37.681-26.527,67.466-63.48,85.151-106.699c-38.335-17.714-64.992-56.403-64.992-101.406c0-42.197,23.401-78.906,57.919-97.927
	c-19.789-39.972-50.263-73.681-87.694-97.451c-17.828,38.043-56.356,64.455-101.147,64.455c-17.167,0-33.365-3.984-47.898-10.9
	v-90.46l0,0v-51.592l0,0V246.87c14.534-6.916,30.732-10.9,47.898-10.9c60.991,0,110.482,48.877,111.653,109.588
	c53.045,30.667,95.58,77.411,120.981,133.605c3.317-0.296,6.658-0.508,10.052-0.508c61.725,0,111.763,50.038,111.763,111.763
	S1092.811,702.183,1031.086,702.183z M57.151,165.721v868.558l645.032,114.956l6.387-1098.47L57.151,165.721z M466.176,749.16
	c-24.827,24.49-58.535,36.733-101.129,36.733c-24.627,0-46.091-2.897-64.39-8.682c-18.304-5.785-35.44-13.132-51.413-22.04v-95.373
	h8.385c15.839,16.922,33.575,29.921,53.21,39.004c19.632,9.083,38.5,13.625,56.604,13.625c4.658,0,10.782-0.534,18.369-1.603
	c7.587-1.068,13.777-2.847,18.569-5.343c5.856-3.206,10.682-7.214,14.476-12.022c3.794-4.809,5.69-11.93,5.69-21.372
	c0-8.724-2.764-16.25-8.286-22.574c-5.525-6.32-13.611-11.174-24.259-14.56c-11.181-3.56-22.995-6.9-35.44-10.019
	c-12.448-3.114-24.128-7.08-35.041-11.888c-25.027-10.861-43.027-25.601-54.008-44.214c-10.982-18.609-16.472-41.717-16.472-69.326
	c0-37.042,12.41-67.276,37.236-90.698c24.824-23.418,56.736-35.131,95.738-35.131c19.567,0,38.9,2.538,58.001,7.614
	c19.099,5.076,35.64,11.446,49.616,19.101v91.633h-8.186c-11.98-12.823-26.655-23.55-44.025-32.191
	c-17.371-8.636-35.109-12.957-53.209-12.957c-6.39,0-12.748,0.581-19.068,1.737c-6.323,1.16-12.414,3.339-18.269,6.546
	c-5.191,2.671-9.653,6.724-13.377,12.155c-3.728,5.435-5.591,11.621-5.591,18.566c0,10.511,2.996,18.567,8.985,24.177
	c5.99,5.61,17.302,10.732,33.942,15.362c10.912,3.03,21.395,5.969,31.447,8.816c10.049,2.851,20.864,6.771,32.444,11.755
	c22.762,9.977,39.564,23.556,50.415,40.741c10.847,17.19,16.273,39.497,16.273,66.922
	C503.413,692.838,490.999,724.675,466.176,749.16z"/>
</svg>
