<?xml version="1.0" encoding="utf-8"?>
<!-- Generator: Adobe Illustrator 19.1.0, SVG Export Plug-In . SVG Version: 6.00 Build 0)  -->
<svg version="1.1" id="Layer_1" xmlns="http://www.w3.org/2000/svg" xmlns:xlink="http://www.w3.org/1999/xlink" x="0px" y="0px"
	 viewBox="65.3 430.9 43.4 43.4" style="enable-background:new 65.3 430.9 43.4 43.4;" xml:space="preserve">
<style type="text/css">
	.st0{fill:#2E3238;}
	.st1{fill:#CF3327;}
	.st2{fill:#891F0A;}
	.st3{fill:#C40022;}
	.st4{fill:#FFFFFF;}
	.st5{fill:#F1511B;}
	.st6{fill:#80CC28;}
	.st7{fill:#00ADEF;}
	.st8{fill:#FBBC09;}
	.st9{fill:#201C1D;}
	.st10{fill:#F7A80D;}
</style>
<g>
	<g>
		<path class="st1" d="M80.5,467.1c-1.2,0.1-2-0.8-2-1.9v-0.9l-5.9,0.5v7.3c-0.2,0.8,0.5,1.4,1.4,1.4l30.9-2.7
			c0.9-0.1,1.7-0.9,1.7-1.8v-7.1l-5.9,0.5v1c0,1.1-0.9,2-2,2.1"/>
		<path class="st1" d="M74,439.4c-0.9,0.1-1.7,0.9-1.7,1.8v6.9l5.9-0.5v-0.8c0-1.1,0.9-2,2-2l18.2-1.6c1.2-0.1,2,0.8,2,1.9v0.7
			l6-0.7v-7c0-0.9-0.7-1.5-1.6-1.4"/>
		<polyline class="st1" points="72.4,451.3 72.4,461.5 78.3,461.1 78.3,450.8 		"/>
		<polyline class="st1" points="100.6,448.9 100.6,459.1 106.5,458.6 106.5,448.4 		"/>
	</g>
	<path class="st2" d="M74,473.5l30.9-2.7c0.9-0.1,1.7-0.9,1.7-1.8v-7.1l-5.9,0.5v1c0,1.1-0.9,2-2,2.1l-18.2,1.6
		c-1.2,0.1-2-0.8-2-1.9v-0.9l-5.9,0.5v7.3C72.4,473,73.1,473.5,74,473.5z M106.5,445.1v-7c0-0.9-0.7-1.5-1.6-1.4L74,439.4
		c-0.9,0.1-1.7,0.9-1.7,1.8v6.9l5.9-0.5v-0.8c0-1.1,0.9-2,2-2l18.2-1.6c1.2-0.1,2,0.8,2,1.9v0.7L106.5,445.1z M72.4,451.3v10.2
		l5.9-0.5v-10.2L72.4,451.3z M100.6,448.9v10.2l5.9-0.5v-10.2L100.6,448.9z M94.9,444.2l-14.5,1.3c-0.7,0.1-1.3,0.7-1.3,1.4v1.5
		l-1.7,0.2l1.7,1.7v11.1l14.6-1.3c0.7-0.1,1.3-0.7,1.3-1.4v-1.8l1.6-0.1l-1.6-1.7L94.9,444.2z M66.8,436.3c0-1.3,1.1-2.4,2.3-2.5
		L100,431c0.7-0.1,1.3,0.2,1.8,0.6l1,1l3.9,3.9c0.4,0.4,0.6,0.9,0.6,1.6v7.8l-1.7,0.1l1.7,1.6v11.8l-1.6,0.1l1.6,1.6v8
		c0,1.3-1.1,2.4-2.3,2.5L74,474.2c-0.7,0.1-1.3-0.2-1.8-0.6l-4.9-4.9c-0.4-0.4-0.6-1-0.6-1.6v-8l1.6-0.1l-1.6-1.6v-11.8l1.7-0.2
		l-1.7-1.7V436.3z"/>
</g>
</svg>
