<?xml version="1.0" encoding="UTF-8" standalone="no"?>
<!-- Generator: Adobe Illustrator 16.0.4, SVG Export Plug-In . SVG Version: 6.00 Build 0)  -->

<svg
   xmlns:dc="http://purl.org/dc/elements/1.1/"
   xmlns:cc="http://creativecommons.org/ns#"
   xmlns:rdf="http://www.w3.org/1999/02/22-rdf-syntax-ns#"
   xmlns:svg="http://www.w3.org/2000/svg"
   xmlns="http://www.w3.org/2000/svg"
   xmlns:sodipodi="http://sodipodi.sourceforge.net/DTD/sodipodi-0.dtd"
   xmlns:inkscape="http://www.inkscape.org/namespaces/inkscape"
   version="1.1"
   id="Layer_1"
   x="0px"
   y="0px"
   width="151.64311"
   height="152.13628"
   viewBox="3.48 11.02 150.13881 133.94908"
   enable-background="new 0 0 500 176"
   xml:space="preserve"
   sodipodi:docname="open-service-broker-api.svg"
   inkscape:version="0.92.2 (5c3e80d, 2017-08-06)"><metadata
     id="metadata5305"><rdf:RDF><cc:Work
         rdf:about=""><dc:format>image/svg+xml</dc:format><dc:type
           rdf:resource="http://purl.org/dc/dcmitype/StillImage" /><dc:title></dc:title></cc:Work></rdf:RDF></metadata><defs
     id="defs5303" /><sodipodi:namedview
     pagecolor="#ffffff"
     bordercolor="#666666"
     borderopacity="1"
     objecttolerance="10"
     gridtolerance="10"
     guidetolerance="10"
     inkscape:pageopacity="0"
     inkscape:pageshadow="2"
     inkscape:window-width="3440"
     inkscape:window-height="1377"
     id="namedview5301"
     showgrid="false"
     fit-margin-left="1"
     fit-margin-top="1"
     fit-margin-bottom="1"
     fit-margin-right="1"
     inkscape:zoom="0.732"
     inkscape:cx="241.37145"
     inkscape:cy="75.86769"
     inkscape:window-x="2872"
     inkscape:window-y="-8"
     inkscape:window-maximized="1"
     inkscape:current-layer="g5298" /><g
     id="g5298"
     transform="translate(-8.5429569,-11.615045)"><path
       d="m 38.319,57.053 c -5.827,-0.021 -10.4,-4.587 -10.313,-10.369 0.074,-4.908 3.515,-10.18 10.44,-10.348 5.593,-0.136 10.377,4.857 10.331,10.475 -0.05,6.065 -5.25,10.564 -10.458,10.242 z"
       id="path5210"
       inkscape:connector-curvature="0"
       style="clip-rule:evenodd;fill:#63863d;fill-rule:evenodd" /><path
       d="m 56.024,137.279 c -0.028,5.763 -4.768,10.454 -10.46,10.354 -5.567,-0.099 -10.221,-4.772 -10.284,-10.331 -0.065,-5.653 4.729,-10.445 10.41,-10.495 6.159,-0.053 10.788,5.689 10.334,10.472 z"
       id="path5212"
       inkscape:connector-curvature="0"
       style="clip-rule:evenodd;fill:#63863d;fill-rule:evenodd" /><path
       d="m 128.532,49.792 c -5.698,-0.015 -10.431,-4.811 -10.366,-10.504 0.063,-5.533 4.779,-10.254 10.301,-10.314 5.675,-0.061 10.472,4.701 10.479,10.4 0.005,5.764 -4.663,10.434 -10.414,10.418 z"
       id="path5214"
       inkscape:connector-curvature="0"
       style="clip-rule:evenodd;fill:#63863d;fill-rule:evenodd" /><path
       d="M 81.912,13.983 C 87.655,13.801 92.227,18.7 92.343,24.324 92.458,29.888 87.545,34.793 81.984,34.808 76.391,34.823 71.613,30.042 71.558,24.378 71.504,18.693 76.181,13.997 81.912,13.983 Z"
       id="path5216"
       inkscape:connector-curvature="0"
       style="clip-rule:evenodd;fill:#8ec642;fill-rule:evenodd" /><path
       d="m 23.228,83.196 c 5.667,-0.279 10.521,4.402 10.521,10.196 0,6.009 -4.192,10.263 -10.233,10.56 C 17.89,104.228 13.123,99.326 13.015,93.666 12.893,87.35 18.481,82.854 23.228,83.196 Z"
       id="path5218"
       inkscape:connector-curvature="0"
       style="clip-rule:evenodd;fill:#8ec642;fill-rule:evenodd" /><path
       d="m 135.948,119.56 c 5.878,0.012 10.295,4.508 10.243,10.425 -0.049,5.629 -4.648,10.454 -10.18,10.303 -5.95,-0.161 -10.426,-4.314 -10.466,-10.402 -0.045,-6.866 5.774,-10.718 10.403,-10.326 z"
       id="path5220"
       inkscape:connector-curvature="0"
       style="clip-rule:evenodd;fill:#63863d;fill-rule:evenodd" /><path
       d="m 102.601,152.152 c 0.416,5.07 -4.132,10.467 -10.183,10.473 -5.735,0.004 -10.612,-4.435 -10.479,-10.252 0.149,-6.481 4.51,-10.5 10.538,-10.492 5.767,0.007 10.294,4.837 10.124,10.271 z"
       id="path5222"
       inkscape:connector-curvature="0"
       style="clip-rule:evenodd;fill:#8ec642;fill-rule:evenodd" /><path
       d="m 161.141,83.047 c 0.352,5.961 -5.116,10.451 -10.242,10.442 -5.288,-0.01 -10.195,-4.707 -10.293,-10.182 -0.089,-4.99 3.637,-10.518 10.184,-10.607 6.74,-0.092 10.777,5.621 10.351,10.347 z"
       id="path5224"
       inkscape:connector-curvature="0"
       style="clip-rule:evenodd;fill:#8ec642;fill-rule:evenodd" /><path
       d="m 105.4,40.333 c -0.452,4.673 -3.124,7.287 -7.627,7.468 -3.779,0.151 -7.023,-3.417 -7.079,-7.358 -0.055,-3.907 3.46,-7.364 7.437,-7.317 3.838,0.046 7.266,3.445 7.269,7.207 z"
       id="path5250"
       inkscape:connector-curvature="0"
       style="clip-rule:evenodd;fill:#8ec642;fill-rule:evenodd" /><path
       d="m 128.492,69.478 c -4,-0.036 -7.396,-3.563 -7.255,-7.536 0.135,-3.831 3.634,-7.192 7.411,-7.119 3.97,0.077 7.36,3.623 7.244,7.578 -0.114,3.865 -3.509,7.112 -7.4,7.077 z"
       id="path5252"
       inkscape:connector-curvature="0"
       style="clip-rule:evenodd;fill:#63863d;fill-rule:evenodd" /><path
       d="m 45.628,107.135 c 4.045,-0.024 7.383,3.316 7.361,7.367 -0.021,3.913 -3.216,7.149 -7.187,7.28 -3.847,0.127 -7.372,-3.419 -7.383,-7.427 -0.012,-3.873 3.308,-7.196 7.209,-7.22 z"
       id="path5256"
       inkscape:connector-curvature="0"
       style="clip-rule:evenodd;fill:#63863d;fill-rule:evenodd" /><path
       d="m 61.279,39.575 c 3.915,0.063 7.166,3.355 7.145,7.234 -0.021,3.958 -3.476,7.256 -7.526,7.185 -3.884,-0.069 -7.205,-3.42 -7.133,-7.27 0.079,-4.193 3.784,-7.537 7.514,-7.149 z"
       id="path5258"
       inkscape:connector-curvature="0"
       style="clip-rule:evenodd;fill:#63863d;fill-rule:evenodd" /><path
       d="m 113.342,137.039 c -4.179,0.05 -7.201,-2.811 -7.296,-6.907 -0.1,-4.289 2.865,-7.466 7.022,-7.521 4.104,-0.055 7.4,3.18 7.39,7.254 -0.01,4.025 -3.086,7.126 -7.116,7.174 z"
       id="path5260"
       inkscape:connector-curvature="0"
       style="clip-rule:evenodd;fill:#63863d;fill-rule:evenodd" /><path
       d="m 69.096,136.018 c 0.037,-3.889 3.34,-7.397 7.152,-7.229 4.447,0.196 7.329,3.572 7.239,7.484 -0.09,3.912 -3.313,7.216 -7.201,7.189 -4.555,-0.027 -7.611,-4.123 -7.19,-7.444 z"
       id="path5262"
       inkscape:connector-curvature="0"
       style="clip-rule:evenodd;fill:#8ec642;fill-rule:evenodd" /><path
       d="m 134.873,92.079 c 4.256,0.009 7.114,2.819 7.141,7.023 0.028,4.291 -2.99,7.395 -7.187,7.391 -3.966,-0.003 -7.15,-3.163 -7.195,-7.14 -0.047,-4.256 2.964,-7.282 7.241,-7.274 z"
       id="path5264"
       inkscape:connector-curvature="0"
       style="clip-rule:evenodd;fill:#8ec642;fill-rule:evenodd" /><path
       d="m 46.541,77.529 c -0.042,4.215 -2.895,6.863 -7.147,7.031 -4.491,0.177 -7.439,-4.077 -7.27,-7.332 0.204,-3.901 3.384,-7.088 7.299,-7.116 4.123,-0.03 7.16,3.135 7.118,7.417 z"
       id="path5268"
       inkscape:connector-curvature="0"
       style="clip-rule:evenodd;fill:#8ec642;fill-rule:evenodd" /><path
       d="m 97.49,133.981 c -2.315,-0.012 -4.157,-1.862 -4.149,-4.171 0.007,-2.249 1.971,-4.179 4.223,-4.15 2.212,0.027 4.225,2.056 4.191,4.224 -0.034,2.221 -1.999,4.109 -4.265,4.097 z"
       id="path5282"
       inkscape:connector-curvature="0"
       style="clip-rule:evenodd;fill:#63863d;fill-rule:evenodd" /><path
       d="m 128.52,82.041 c -2.305,-0.022 -4.155,-1.904 -4.13,-4.2 0.025,-2.266 1.979,-4.166 4.245,-4.126 2.216,0.039 4.222,2.077 4.173,4.241 -0.05,2.226 -2.025,4.106 -4.288,4.085 z"
       id="path5284"
       inkscape:connector-curvature="0"
       style="clip-rule:evenodd;fill:#63863d;fill-rule:evenodd" /><path
       d="m 45.773,102.894 c -2.351,0.018 -4.101,-1.727 -4.137,-4.124 -0.037,-2.404 1.644,-4.159 4.028,-4.202 2.213,-0.04 4.224,1.897 4.26,4.104 0.035,2.184 -1.95,4.205 -4.151,4.222 z"
       id="path5286"
       inkscape:connector-curvature="0"
       style="clip-rule:evenodd;fill:#63863d;fill-rule:evenodd" /><path
       d="m 69.213,125.073 c -0.014,2.442 -1.604,4.068 -4.021,4.112 -2.155,0.039 -4.191,-1.886 -4.275,-4.043 -0.085,-2.211 2.072,-4.329 4.369,-4.289 2.347,0.043 3.942,1.756 3.927,4.22 z"
       id="path5288"
       inkscape:connector-curvature="0"
       style="clip-rule:evenodd;fill:#8ec642;fill-rule:evenodd" /><path
       d="m 80.974,46.817 c -0.073,2.242 -2.05,4.166 -4.247,4.13 -2.335,-0.037 -4.071,-1.848 -4.047,-4.224 0.024,-2.4 1.757,-4.111 4.147,-4.091 2.231,0.017 4.218,2.023 4.147,4.185 z"
       id="path5290"
       inkscape:connector-curvature="0"
       style="clip-rule:evenodd;fill:#63863d;fill-rule:evenodd" /><path
       d="m 46.583,67.764 c -0.23,-0.974 -0.177,-1.949 -0.055,-2.854 0.453,-1.122 1.227,-1.849 2.089,-2.375 3.2,-1.043 5.31,0.644 5.901,2.477 0.648,2.012 -0.314,4.16 -2.357,5.113 -2.101,0.978 -3.623,0.333 -5.578,-2.361 z"
       id="path5292"
       inkscape:connector-curvature="0"
       style="clip-rule:evenodd;fill:#8ec642;fill-rule:evenodd" /><path
       d="m 113.271,51.571 c 0.002,2.209 -1.963,4.174 -4.171,4.168 -2.218,-0.006 -4.151,-1.963 -4.141,-4.193 0.011,-2.401 1.737,-4.125 4.134,-4.133 2.23,-0.005 4.175,1.931 4.178,4.158 z"
       id="path5294"
       inkscape:connector-curvature="0"
       style="clip-rule:evenodd;fill:#8ec642;fill-rule:evenodd" /><path
       d="m 123.675,106.03 c 2.458,0.452 3.916,1.706 4.314,4.103 -0.178,1.702 -0.868,3.149 -2.623,4.027 -0.972,0.286 -2.045,0.226 -3.123,0.043 -0.934,-0.419 -1.608,-1.119 -2.156,-1.96 -0.687,-4.011 -0.252,-4.782 3.588,-6.213 z"
       id="path5296"
       inkscape:connector-curvature="0"
       style="clip-rule:evenodd;fill:#8ec642;fill-rule:evenodd" /></g></svg>