<?xml version="1.0" encoding="UTF-8" standalone="no"?>
<!-- Created with Inkscape (http://www.inkscape.org/) -->

<svg
   xmlns:dc="http://purl.org/dc/elements/1.1/"
   xmlns:cc="http://creativecommons.org/ns#"
   xmlns:rdf="http://www.w3.org/1999/02/22-rdf-syntax-ns#"
   xmlns:svg="http://www.w3.org/2000/svg"
   xmlns="http://www.w3.org/2000/svg"
   xmlns:xlink="http://www.w3.org/1999/xlink"
   xmlns:sodipodi="http://sodipodi.sourceforge.net/DTD/sodipodi-0.dtd"
   xmlns:inkscape="http://www.inkscape.org/namespaces/inkscape"
   version="1.1"
   width="744.09448"
   height="1052.3622"
   id="svg2"
   inkscape:version="0.48.1 r9760"
   sodipodi:docname="open_ldap_plain.svg">
  <sodipodi:namedview
     pagecolor="#ffffff"
     bordercolor="#666666"
     borderopacity="1"
     objecttolerance="10"
     gridtolerance="10"
     guidetolerance="10"
     inkscape:pageopacity="0"
     inkscape:pageshadow="2"
     inkscape:window-width="1600"
     inkscape:window-height="844"
     id="namedview92"
     showgrid="false"
     inkscape:zoom="0.46093946"
     inkscape:cx="76.25105"
     inkscape:cy="600.16618"
     inkscape:window-x="0"
     inkscape:window-y="30"
     inkscape:window-maximized="1"
     inkscape:current-layer="svg2" />
  <defs
     id="defs4">
    <linearGradient
       inkscape:collect="always"
       id="linearGradient3916">
      <stop
         style="stop-color:#212121;stop-opacity:1;"
         offset="0"
         id="stop3918" />
      <stop
         style="stop-color:#212121;stop-opacity:0;"
         offset="1"
         id="stop3920" />
    </linearGradient>
    <linearGradient
       id="linearGradient3952">
      <stop
         id="stop3954"
         style="stop-color:#6600cc;stop-opacity:1"
         offset="0" />
      <stop
         id="stop3956"
         style="stop-color:#6600cc;stop-opacity:0"
         offset="1" />
    </linearGradient>
    <linearGradient
       id="linearGradient5274">
      <stop
         id="stop5276"
         style="stop-color:#6d5744;stop-opacity:1"
         offset="0" />
      <stop
         id="stop5278"
         style="stop-color:#6d5744;stop-opacity:0"
         offset="1" />
    </linearGradient>
    <linearGradient
       id="linearGradient5261">
      <stop
         id="stop5263"
         style="stop-color:#6d5744;stop-opacity:1"
         offset="0" />
      <stop
         id="stop5265"
         style="stop-color:#6d5744;stop-opacity:0"
         offset="1" />
    </linearGradient>
    <linearGradient
       id="linearGradient4437">
      <stop
         id="stop4439"
         style="stop-color:#666666;stop-opacity:1"
         offset="0" />
      <stop
         id="stop4441"
         style="stop-color:#666666;stop-opacity:0"
         offset="1" />
    </linearGradient>
    <linearGradient
       id="linearGradient4429">
      <stop
         id="stop4431"
         style="stop-color:#666666;stop-opacity:1"
         offset="0" />
      <stop
         id="stop4433"
         style="stop-color:#666666;stop-opacity:0"
         offset="1" />
    </linearGradient>
    <linearGradient
       id="linearGradient4409">
      <stop
         id="stop4411"
         style="stop-color:#006600;stop-opacity:1"
         offset="0" />
      <stop
         id="stop4413"
         style="stop-color:#006600;stop-opacity:0"
         offset="1" />
    </linearGradient>
    <linearGradient
       id="linearGradient4661">
      <stop
         id="stop4663"
         style="stop-color:#66cc33;stop-opacity:1"
         offset="0" />
      <stop
         id="stop4665"
         style="stop-color:#66cc33;stop-opacity:0"
         offset="1" />
    </linearGradient>
    <linearGradient
       id="linearGradient4524">
      <stop
         id="stop4526"
         style="stop-color:#000000;stop-opacity:1"
         offset="0" />
      <stop
         id="stop4528"
         style="stop-color:#20e500;stop-opacity:1"
         offset="1" />
    </linearGradient>
    <linearGradient
       id="linearGradient4502">
      <stop
         id="stop4504"
         style="stop-color:#ffffff;stop-opacity:1"
         offset="0" />
      <stop
         id="stop4506"
         style="stop-color:#ffffff;stop-opacity:0"
         offset="1" />
    </linearGradient>
    <linearGradient
       x1="102.55804"
       y1="128.4756"
       x2="123.87628"
       y2="151.81042"
       id="linearGradient4653"
       xlink:href="#linearGradient4661"
       gradientUnits="userSpaceOnUse" />
    <linearGradient
       x1="246.02458"
       y1="146.485"
       x2="245.47948"
       y2="135.58293"
       id="linearGradient4325"
       xlink:href="#linearGradient4409"
       gradientUnits="userSpaceOnUse" />
    <linearGradient
       x1="-3.0067859"
       y1="380.5603"
       x2="47.249493"
       y2="474.2002"
       id="linearGradient5267"
       xlink:href="#linearGradient5261"
       gradientUnits="userSpaceOnUse" />
    <linearGradient
       x1="8.5350018"
       y1="384.81253"
       x2="77.015152"
       y2="465.08826"
       id="linearGradient5272"
       xlink:href="#linearGradient5261"
       gradientUnits="userSpaceOnUse"
       gradientTransform="matrix(1.9236383,0,0,1.9236383,258.03187,-56.096565)" />
    <linearGradient
       x1="-41.914913"
       y1="163.64455"
       x2="100.23132"
       y2="197.66245"
       id="linearGradient5280"
       xlink:href="#linearGradient5274"
       gradientUnits="userSpaceOnUse"
       gradientTransform="matrix(1.9236383,0,0,1.9236383,258.03187,-56.096565)" />
    <linearGradient
       x1="80.915512"
       y1="129.22954"
       x2="89.429306"
       y2="129.22954"
       id="linearGradient3960"
       xlink:href="#linearGradient3952"
       gradientUnits="userSpaceOnUse" />
    <linearGradient
       x1="80.915512"
       y1="129.22954"
       x2="89.429306"
       y2="129.22954"
       id="linearGradient3960-8"
       xlink:href="#linearGradient3952-8"
       gradientUnits="userSpaceOnUse" />
    <linearGradient
       id="linearGradient3952-8">
      <stop
         id="stop3954-7"
         style="stop-color:#6600cc;stop-opacity:1"
         offset="0" />
      <stop
         id="stop3956-7"
         style="stop-color:#6600cc;stop-opacity:0"
         offset="1" />
    </linearGradient>
    <linearGradient
       x1="80.915512"
       y1="129.22954"
       x2="89.429306"
       y2="129.22954"
       id="linearGradient3977"
       xlink:href="#linearGradient3952-8"
       gradientUnits="userSpaceOnUse" />
    <linearGradient
       inkscape:collect="always"
       xlink:href="#linearGradient3952-8"
       id="linearGradient3069"
       gradientUnits="userSpaceOnUse"
       x1="80.915512"
       y1="129.22954"
       x2="89.429306"
       y2="129.22954"
       gradientTransform="matrix(1.9236383,0,0,1.9236383,244.83233,-81.692651)" />
    <linearGradient
       inkscape:collect="always"
       xlink:href="#linearGradient3952"
       id="linearGradient3078"
       gradientUnits="userSpaceOnUse"
       x1="80.915512"
       y1="129.22954"
       x2="89.429306"
       y2="129.22954"
       gradientTransform="matrix(1.9236383,0,0,1.9236383,216.55889,-73.966835)" />
    <linearGradient
       inkscape:collect="always"
       xlink:href="#linearGradient5261"
       id="linearGradient3099"
       gradientUnits="userSpaceOnUse"
       gradientTransform="matrix(1.9236383,0,0,1.9236383,267.17949,-40.494565)"
       x1="8.5350018"
       y1="384.81253"
       x2="77.015152"
       y2="465.08826" />
    <linearGradient
       inkscape:collect="always"
       xlink:href="#linearGradient5274"
       id="linearGradient3102"
       gradientUnits="userSpaceOnUse"
       gradientTransform="matrix(1.9236383,0,0,1.9236383,267.17949,-40.494565)"
       x1="-41.914913"
       y1="163.64455"
       x2="100.23132"
       y2="197.66245" />
    <linearGradient
       inkscape:collect="always"
       xlink:href="#linearGradient3916"
       id="linearGradient3922"
       x1="420.16644"
       y1="220.21698"
       x2="416.50983"
       y2="202.04758"
       gradientUnits="userSpaceOnUse" />
  </defs>
  <metadata
     id="metadata7">
    <rdf:RDF>
      <cc:Work
         rdf:about="">
        <dc:format>image/svg+xml</dc:format>
        <dc:type
           rdf:resource="http://purl.org/dc/dcmitype/StillImage" />
        <dc:title />
      </cc:Work>
    </rdf:RDF>
  </metadata>
  <path
     inkscape:connector-curvature="0"
     style="fill:#ffff99;fill-opacity:1;fill-rule:nonzero;stroke:#816647;stroke-width:2.5007298;stroke-miterlimit:4;stroke-opacity:1;stroke-dasharray:none;stroke-dashoffset:0"
     id="path3881-5"
     d="m 416.92977,357.28106 c -13.92722,2.15795 -29.99578,7.10634 -40.07351,15.50246 4.96555,23.73183 26.30191,-3.86314 41.70914,1.11396 19.57508,-1.99396 11.26706,-20.95342 -1.63563,-16.61642 z" />
  <path
     inkscape:connector-curvature="0"
     style="fill:#ffff99;fill-opacity:1;fill-rule:nonzero;stroke:#816647;stroke-width:2.5007298;stroke-miterlimit:4;stroke-opacity:1;stroke-dasharray:none;stroke-dashoffset:0"
     id="path3881-8"
     d="m 405.02123,320.44369 c -14.08655,-0.43938 -30.79098,1.47041 -42.24057,7.87057 0.51772,24.24022 26.56381,1.03839 40.79334,8.76332 19.608,1.63898 14.92736,-18.52475 1.44723,-16.63389 z" />
  <path
     inkscape:connector-curvature="0"
     style="fill:#ffff99;fill-opacity:1;fill-rule:nonzero;stroke:#816647;stroke-width:2.5007298;stroke-miterlimit:4;stroke-opacity:1;stroke-dasharray:none;stroke-dashoffset:0"
     id="path3881"
     d="m 445.2544,394.58637 c -13.8699,2.49999 -29.81184,7.84227 -39.67991,16.48381 5.54799,23.60246 26.19888,-4.50917 41.72391,0.0873 19.5201,-2.47501 10.74808,-21.22431 -2.044,-16.57114 z" />
  <path
     inkscape:connector-curvature="0"
     style="fill:#ffff99;fill-opacity:1;fill-rule:nonzero;stroke:#816647;stroke-width:2.5007298;stroke-miterlimit:4;stroke-opacity:1;stroke-dasharray:none;stroke-dashoffset:0"
     id="path3879"
     d="m 469.88255,440.79264 c -14.48411,-5.12246 -45.33443,19.40807 -19.27692,22.57366 8.31932,-8.55734 21.10285,-5.33767 32.54125,-7.27039 13.79137,-10.40076 -3.58766,-17.60777 -13.26433,-15.30327 z" />
  <path
     inkscape:connector-curvature="0"
     style="fill:#ffff99;fill-opacity:1;fill-rule:nonzero;stroke:#816647;stroke-width:2.5007298;stroke-miterlimit:4;stroke-opacity:1;stroke-dasharray:none;stroke-dashoffset:0"
     id="path3877"
     d="m 511.36098,603.70076 c -19.37839,6.1904 0.0229,20.3852 12.16532,15.99024 8.79237,0.10927 17.76667,-0.41843 26.33299,0.71187 14.80698,-8.2997 -3.01101,-20.3305 -13.62801,-16.70211 -8.2901,0 -16.58021,0 -24.8703,0 z" />
  <path
     inkscape:connector-curvature="0"
     style="fill:#ffff99;fill-opacity:1;fill-rule:nonzero;stroke:#816647;stroke-width:2.5007298;stroke-miterlimit:4;stroke-opacity:1;stroke-dasharray:none;stroke-dashoffset:0"
     id="path3875"
     d="m 543.52181,678.00129 c -16.55789,-7.78612 -30.68167,18.89376 -7.97223,16.24284 11.17016,-3.07623 30.46437,6.06758 35.01879,-8.24762 -1.65885,-13.08834 -18.78534,-5.97977 -27.04656,-7.99522 z" />
  <path
     inkscape:connector-curvature="0"
     style="fill:#ffff99;fill-opacity:1;fill-rule:nonzero;stroke:#816647;stroke-width:2.5007298;stroke-miterlimit:4;stroke-opacity:1;stroke-dasharray:none;stroke-dashoffset:0"
     id="path3873"
     d="m 510.94018,752.36193 c -23.06394,11.22722 20.12101,24.63877 19.41682,29.15515 5.01504,8.05898 5.4222,11.55796 9.59267,13.6869 18.95317,4.06778 9.71987,-18.67757 0.80672,-25.0483 -8.26842,-8.39268 -17.80991,-15.75915 -29.81621,-17.79375 z" />
  <path
     inkscape:connector-curvature="0"
     style="fill:#ffff99;fill-opacity:1;fill-rule:nonzero;stroke:#816647;stroke-width:2.5007298;stroke-miterlimit:4;stroke-opacity:1;stroke-dasharray:none;stroke-dashoffset:0"
     id="path3871"
     d="m 536.12782,790.23356 0.06,0.24046 z" />
  <path
     inkscape:connector-curvature="0"
     style="fill:#ffff99;fill-opacity:1;fill-rule:nonzero;stroke:#816647;stroke-width:2.5007298;stroke-miterlimit:4;stroke-opacity:1;stroke-dasharray:none;stroke-dashoffset:0"
     id="path4272"
     d="m 458.58117,832.25304 c -21.03806,7.3703 4.8131,20.57777 14.9082,23.6847 -2.96154,12.5921 14.92464,29.91229 18.09411,9.73842 1.79444,-20.17077 -15.98034,-29.58748 -33.00231,-33.42312 z" />
  <g
     style="stroke:#015a01"
     id="g5904"
     transform="matrix(1.9236383,0,0,1.9236383,215.32622,-72.117835)">
    <path
       inkscape:connector-curvature="0"
       style="fill:#66cc33;fill-opacity:1;stroke:#015a01;stroke-width:0.89999998;stroke-miterlimit:4;stroke-opacity:1;stroke-dasharray:none;stroke-dashoffset:0"
       id="path4269"
       transform="translate(-132.54789,5.7985194)"
       d="M 155.98477,488.00549 A 31.121872,36.497059 0 1 1 154.7556,423.52571" />
    <path
       inkscape:connector-curvature="0"
       style="fill:#66cc33;fill-opacity:1;stroke:#015a01;stroke-width:0.88405359;stroke-miterlimit:4;stroke-opacity:1;stroke-dasharray:none;stroke-dashoffset:0"
       id="path4267"
       transform="matrix(1.0018875,-0.18061689,0.18061689,1.0018875,-218.90624,35.240163)"
       d="m 135.801,445.27458 a 33.986176,36.899277 0 1 1 9.73692,39.54611" />
    <path
       inkscape:connector-curvature="0"
       style="fill:#66cc33;fill-opacity:1;stroke:#015a01;stroke-width:0.84894264;stroke-miterlimit:4;stroke-opacity:1;stroke-dasharray:none;stroke-dashoffset:0"
       id="path4265"
       transform="matrix(0.96989209,0.51946098,-0.56662046,0.85531627,129.03654,-34.44257)"
       d="m 167.8976,478.32931 a 43.69651,33.986176 0 1 1 38.3465,11.55918" />
    <path
       inkscape:connector-curvature="0"
       style="fill:#66cc33;fill-opacity:1;stroke:#015a01;stroke-width:0.86545146;stroke-miterlimit:4;stroke-opacity:1;stroke-dasharray:none;stroke-dashoffset:0"
       id="path4227-5-0"
       transform="matrix(0.94680943,0.3871827,-0.36995509,0.99089928,-4.71679,-49.065115)"
       d="m 205.36145,406.04582 a 50.381359,30.213987 0 1 1 75.36797,24.90221" />
    <path
       inkscape:connector-curvature="0"
       style="fill:#66cc33;fill-opacity:1;stroke:#015a01;stroke-width:0.82037425;stroke-miterlimit:4;stroke-opacity:1;stroke-dasharray:none;stroke-dashoffset:0"
       id="path4227-5"
       transform="matrix(1.0372522,0.24761658,-0.23671362,1.1038077,-65.13222,-75.480876)"
       d="m 221.38086,425.53043 a 50.381359,28.41054 0 1 1 67.77281,0.43838" />
    <path
       inkscape:connector-curvature="0"
       style="fill:#66cc33;fill-opacity:1;stroke:#015a01;stroke-width:0.77966321;stroke-miterlimit:4;stroke-opacity:1;stroke-dasharray:none;stroke-dashoffset:0"
       id="path4227"
       transform="matrix(1.0638571,0,0,1.2525285,-157.93186,-98.496468)"
       d="m 206.03803,409.52897 a 50.381359,28.41054 0 1 1 86.24009,14.73312" />
    <path
       inkscape:connector-curvature="0"
       style="fill:#66cc33;fill-opacity:1;stroke:#015a01;stroke-width:0.80599844;stroke-miterlimit:4;stroke-opacity:1;stroke-dasharray:none;stroke-dashoffset:0"
       id="path4225-2"
       transform="matrix(1.120934,0,0,1.1123375,-158.46356,-18.128121)"
       d="m 225.38626,391.99512 a 46.972092,26.895311 0 1 1 62.78438,-15.17608" />
    <path
       inkscape:connector-curvature="0"
       style="fill:#66cc33;fill-opacity:1;stroke:#015a01;stroke-width:0.89999998;stroke-miterlimit:4;stroke-opacity:1;stroke-dasharray:none;stroke-dashoffset:0"
       id="path3418-9"
       d="m 157.50664,375.63965 c 4.93831,-9.01029 1.65259,-17.35421 -7.625,-24.46876 6.07725,-17.64607 -8.65381,-60.14378 -35.03125,-91.8125 -1.38074,-1.65771 -3.29342,-2.98466 -5.625,-4 -6.18817,-22.42429 -26.147621,-28.54048 -43.875,-23.59375 -23.7922,6.63909 -44.71875,13.08743 -44.71875,29.25 0,8.4362 5.45909,16.03428 14.1875,21.375 -0.31026,0.68092 -0.59427,1.36227 -0.84375,2.0625 -6.48028,27.80081 16.10265,65.35314 26.03125,76.75 0.14487,0.1663 0.29268,0.30837 0.4375,0.46875 -5.57447,13.41538 6.61055,27.52726 29.75,32.96875" />
    <path
       inkscape:connector-curvature="0"
       style="fill:#66cc33;fill-opacity:1;stroke:#015a01;stroke-width:0.75960594;stroke-miterlimit:4;stroke-opacity:1;stroke-dasharray:none;stroke-dashoffset:0"
       id="path3418-54"
       transform="matrix(1.1756839,-0.14689236,0.14689236,1.1756839,-199.57948,52.103761)"
       d="m 165.10033,192.1825 a 35.714287,25.422823 0 1 1 60.36438,-7.45776" />
    <path
       inkscape:connector-curvature="0"
       style="fill:#66cc33;fill-opacity:1;stroke:#015a01;stroke-width:0.75960588;stroke-miterlimit:4;stroke-opacity:1;stroke-dasharray:none;stroke-dashoffset:0"
       id="path3418-5"
       transform="matrix(1.1848249,0,0,1.1848249,-180.57219,-7.7238066)"
       d="m 165.17871,192.64227 a 35.714287,26.025686 0 1 1 58.89241,-5.40412" />
    <path
       inkscape:connector-curvature="0"
       style="fill:#66cc33;fill-opacity:1;stroke:#015a01;stroke-width:0.75960588;stroke-miterlimit:4;stroke-opacity:1;stroke-dasharray:none;stroke-dashoffset:0"
       id="path3418"
       transform="matrix(1.1848249,0,0,1.1848249,-178.0722,-33.131677)"
       d="m 178.07841,200.01035 a 35.714287,26.581854 0 1 1 43.23883,-9.10138" />
    <path
       inkscape:connector-curvature="0"
       style="fill:#66cc33;fill-opacity:1;stroke:#015a01;stroke-width:0.89999998;stroke-miterlimit:4;stroke-opacity:1;stroke-dasharray:none;stroke-dashoffset:0"
       id="path3416"
       transform="matrix(0.90359812,-0.42838119,0.42838119,0.90359812,-206.61738,119.72202)"
       d="m 194.64101,164.2213 a 50.528069,44.243557 0 1 1 42.77207,22.37281" />
  </g>
  <path
     inkscape:connector-curvature="0"
     style="fill:url(#linearGradient3102);fill-opacity:1;stroke:none"
     id="path5079"
     d="m 345.15907,123.48256 c -18.44513,2.41608 -36.23113,9.63883 -51.15676,20.73922 3.66986,10.43875 8.55152,19.43913 7.76414,31.24486 6.17005,3.42508 6.97359,0.76021 8.70702,8.67075 -5.47237,1.34756 12.14568,3.99128 16.64922,3.19666 12.84273,-6.38702 1.96577,-24.00329 5.47262,-35.17716 -1.15711,-12.63907 4.17808,-18.61337 12.56376,-28.67433 z m -11.66206,17.07229 c -1.079,1.83011 2.05935,0.045 0,0 z M 279.034,157.80749 c -14.10304,14.68625 -23.00731,34.32788 -24.5865,54.64336 5.54802,6.70109 10.0639,14.05471 23.74491,12.7441 12.8298,-0.61243 25.12972,13.58583 38.05415,3.77058 0.55824,-10.67606 -11.81966,-20.20378 -21.37715,-24.2022 -10.80732,-5.47787 -9.33709,-17.82561 -11.3244,-24.48859 -4.48421,-7.63304 -1.20839,-4.5369 -4.03,-14.41211 -0.42064,-2.66193 -0.52783,-5.3643 -0.48101,-8.05514 z m -39.19413,77.00565 c -12.08785,13.66682 -14.62238,34.87424 -6.49228,51.15676 -8.44677,11.86084 -13.27526,28.94748 -6.38667,42.52683 8.68417,9.3758 15.53532,18.78108 23.9226,27.83578 5.14831,4.23154 29.9491,1.32727 22.89924,-9.39224 3.61963,-9.73892 11.57288,-4.66973 20.46001,-5.54554 -0.88247,-6.94415 -13.12987,-21.4015 -3.72705,-21.28025 -5.30788,-0.46722 -10.44147,0.91186 -16.63443,-0.66296 -2.31566,1.17849 -11.74847,3.96471 -16.78879,7.15524 -2.81255,-4.36957 -9.52774,-9.02594 -14.00639,-13.28513 6.32867,-6.94137 12.56797,-11.39379 18.63524,-22.3623 -1.41854,-11.02677 1.40999,-23.9374 -4.95225,-34.52621 -4.38895,-7.98146 -9.53774,-16.25826 -16.92923,-21.61998 z m 21.0398,29.57594 c -2.57858,2.06843 2.6481,1.2222 0,0 z m 33.06253,1.26239 c -7.96215,8.59412 -13.59824,-0.63713 -22.60265,6.85296 -7.39112,6.56299 -7.95675,18.17074 0.76732,23.4903 4.0606,2.44808 8.13947,13.00489 11.97678,4.82325 3.50724,-0.20831 6.09993,-0.73004 12.38333,-6.25144 8.12552,-2.64329 16.84957,-9.20572 7.935,-11.72227 -1.72958,2.5665 -1.67366,-1.99383 -4.26768,-3.90777 -2.25405,2.35394 -1.05383,-11.23909 -6.1921,-13.28503 z m 9.67831,15.14865 c -4.60204,4.34177 3.14916,1.21851 0,0 z m -11.96263,20.43866 c 6.23576,3.02982 17.2288,-0.0281 4.41916,0.28595 -1.48192,0.20384 -2.94527,-0.17409 -4.41916,-0.28595 z m 12.20308,0.48091 c -0.5951,3.29011 1.89571,0.63285 0,0 z m -56.02597,14.90819 c -0.85071,0.90406 1.54336,0.18967 0,0 z m 43.70266,3.4866 c -2.57292,1.48335 1.95982,-0.001 0,0 z m 0.4208,0.12023 c -0.56136,0.63662 1.27904,0.29689 0,0 z m -13.64581,20.91956 c -1.30153,0.20939 0.81141,1.1377 0,0 z m 3.90739,0.4208 c -3.40424,3.40715 4.72163,0.29281 0,0 z m -38.71322,20.13809 c -16.79867,2.28416 -10.95653,31.49553 2.80503,33.35433 5.63886,9.28582 19.75728,13.69403 24.5467,24.65538 12.72,4.11246 22.55955,-7.89513 20.43866,-20.01786 8.73112,1.28355 22.70678,-6.82589 20.37854,-18.33458 -11.92608,-0.22364 -22.74554,-2.60337 -33.62018,2.75735 -15.887,2.69234 -25.95282,-11.89892 -34.54875,-22.41462 z m 45.02516,14.96831 c -2.29527,3.0545 1.94568,1.47966 0,0 z m -0.78148,1.50284 c -1.04071,-3.20759 -2.88888,3.58874 0,0 z m 2.645,-1.50284 c -3.14911,1.91879 5.56449,0.92096 0,0 z m 0.84159,1.68318 c -1.51684,1.51891 3.67006,0.68611 0,0 z m 22.3623,4.26807 c -2.08113,2.17258 2.79959,3.94617 0,0 z m 1.92364,42.44027 c -1.06095,2.52161 4.02229,2.28171 0,0 z m -60.83506,0.48091 c -3.12922,19.34469 11.04568,36.91151 26.69048,46.46789 -7.27249,14.96804 24.86389,4.59098 22.52884,-7.43126 -3.51972,-4.40629 -3.59586,-8.42633 -6.65883,-12.22592 10.33858,0.22491 18.67436,-0.72332 29.33549,-7.57432 10.54517,-0.48228 -9.43143,-19.03254 -14.57349,-17.47393 -7.49151,6.70375 -18.90798,3.17391 -26.72462,11.46256 -8.8854,-6.56163 -19.78033,-11.22114 -30.59787,-13.22502 z m 50.61573,27.23151 c -2.0162,0.84174 3.15055,1.79458 0,0 z m -0.78148,8.23558 c -5.88347,2.5487 3.09335,1.19444 0,0 z" />
  <path
     inkscape:connector-curvature="0"
     style="fill:url(#linearGradient3099);fill-opacity:1;stroke:none"
     id="path5255"
     d="m 376.05751,624.62098 c -5.87606,3.04152 -21.75743,3.70524 -21.12022,7.53482 6.70644,3.03598 -9.72703,2.30969 -3.04548,-1.52345 -6.0552,3.62933 -4.38755,-1.10532 -6.97319,4.50853 -4.34419,-0.5876 -1.78976,-8.58268 -9.23508,-2.74486 -12.23692,6.27502 -3.70814,20.15186 2.65335,27.60182 2.66508,6.13343 15.76204,-6.60402 17.04141,4.53883 8.02109,-2.47976 15.79484,-2.17317 24.88707,-5.53046 7.49565,-0.57342 12.59439,10.91134 15.56945,5.95125 7.22144,-1.06513 4.55356,7.08773 9.32393,0.25154 5.22543,-7.08405 10.89399,-21.60565 4.85592,-21.06036 -2.71298,-2.06045 -4.29629,-9.43231 0.008,-2.9963 4.30625,-2.72168 0.14408,-4.499 6.85173,-4.49221 4.60361,-4.48854 -10.70572,2.53543 -3.84605,-2.48098 -8.93995,0.79795 7.61224,-4.56256 -4.70254,-3.54605 -8.25872,-1.49301 -26.33631,1.19677 -28.37667,-1.91775 6.60724,-4.34325 -4.68554,1.95066 -3.89052,-4.09437 z m -30.17707,6.85296 c -0.38239,-2.59654 -2.78266,-0.59019 0,0 z m 38.41265,-5.35012 c -5.5472,4.10922 3.6607,3.36039 0,0 z m -35.16652,3.24614 c -5.57106,2.01207 3.46234,2.66784 0,10e-5 z m -4.50852,2.04387 c -3.59546,1.38842 5.34654,4.04358 0,0 z m -1.68319,0.54102 c -0.85203,1.15921 0.95448,2.00241 0,0 z m 69.79201,10.27944 c -3.37385,1.0807 2.56444,1.76594 0,0 z m 0.78148,12.44354 c 1.64309,4.14784 3.2862,8.29569 4.92932,12.44354 -1.21032,-4.27531 -1.66016,-9.10911 -4.92932,-12.44354 z m -65.76439,27.59219 c -5.276,5.04426 -13.38437,8.07772 -14.40988,16.23035 -5.03989,9.28584 0.7307,20.86855 9.09108,22.71767 4.20261,9.59487 17.53109,7.67026 22.51068,16.33628 10.90286,2.65091 26.67173,0.47343 27.79309,-13.26121 6.01815,-16.30969 13.06247,9.71608 22.88245,9.7722 4.92834,-1.52216 7.33366,-2.06045 10.61497,1.27785 3.22686,-2.62402 8.77311,-1.22051 12.58967,-5.9441 2.41057,-1.37017 5.57617,-10.13096 -1.49042,-13.0204 -6.04763,-4.78245 -11.19803,-22.28612 -19.28155,-11.59819 -2.18523,-3.09105 -10.74579,-6.5889 -9.79961,-0.39683 -5.93875,4.8397 -10.63724,0.0173 -5.7973,-4.9212 -11.97458,1.7572 -23.05319,-0.58733 -34.99354,-0.39733 -5.4776,1.50384 -14.34723,1.28053 -6.78548,-4.47188 -3.45545,-4.98651 -10.87818,-6.37869 -12.92416,-12.32321 z m 17.79365,13.10478 c -10.60542,2.30831 7.36215,2.82664 0,0 z m 51.15676,4.8091 c -1.85335,2.24592 4.14471,1.68653 0,0 z m 2.16409,1.3225 c -2.21691,4.01132 3.01229,0.56457 0,0 z m -77.06576,20.85945 c -2.94155,1.25389 1.56309,2.38508 0,0 z m 102.19329,2.28432 c 0.70007,2.9919 4.89,1.72456 0,0 z m -125.9382,6.67262 c -8.11531,5.51281 -20.70735,9.84066 -24.88707,18.09413 5.36238,7.53734 9.85992,15.71109 12.55101,23.68645 3.71043,1.48297 12.26883,11.9365 10.23199,7.15197 -2.54813,-3.39418 10.37397,6.40245 2.55713,2.02904 -3.48529,5.54775 6.90524,14.75988 12.92094,6.70484 3.36718,-2.55405 11.62765,-6.88649 5.26115,0.0427 -6.15331,14.27188 11.75894,23.91533 21.88139,23.32402 -1.58743,5.03865 13.15628,3.34288 10.15931,-3.78726 9.78386,6.20553 10.03508,-12.58126 12.15055,-18.92208 1.03943,-4.43292 2.07887,-8.86583 3.11833,-13.29876 -1.89071,2.53103 -9.142,0.33385 -9.00286,1.83451 -4.93084,-4.10916 -13.48847,3.43939 -16.66569,-0.15139 -6.93764,-1.53996 -9.06143,-7.51721 -9.73851,-12.98455 -8.09419,0.5672 -3.69845,0.62023 -1.57562,-4.51349 -5.86954,-0.31527 -13.83654,-1.75992 -12.14056,-7.1015 -11.40073,-4.6558 -2.20832,-15.07076 -10.81829,-21.2896 -1.93093,-0.64788 -3.98493,-0.76872 -6.0032,-0.8191 z m -44.96504,12.86434 c -8.59063,-0.99564 -7.51395,5.96741 -13.22502,2.94537 -10.15013,5.7453 -20.13606,-2.75093 -30.92543,-1.38686 -29.13656,0.25348 -51.07136,29.09231 -55.87199,56.42084 -7.32556,13.75505 5.33906,-0.47789 13.637,-2.20109 -2.17385,-12.19518 15.5802,-25.18754 15.59659,-13.9785 -2.57136,4.95723 0.56193,35.90505 9.37171,42.41547 5.65109,7.41128 15.86355,7.43849 16.82891,-3.36904 2.96454,-7.94153 10.06021,-14.31291 13.02844,-18.1478 -6.70238,3.54461 -3.78932,-6.90338 -7.88018,-9.21852 6.73869,-6.2414 -3.48902,-25.47486 0.9672,-30.57675 1.88799,0.82197 19.2132,-10.2428 18.07401,3.76964 1.16009,3.55511 -8.11783,5.14052 -2.02365,8.43335 -7.65797,4.66445 3.4546,5.38876 -3.42648,9.49796 3.25254,5.39863 6.00921,9.83285 2.16419,15.02842 5.35104,2.8796 -0.84527,4.95597 2.46456,9.85865 1.77733,3.92786 6.24506,0.77777 1.38262,5.41023 -1.36105,8.39197 12.41922,11.33071 9.27747,18.59106 8.51624,3.13811 17.25517,14.92965 21.64653,1.17516 4.39021,-6.64252 8.9883,-13.1575 13.43991,-19.76622 -3.41583,1.67226 -6.97798,-2.01399 -10.39967,-3.30625 3.1831,-7.44221 -7.56744,-10.66942 -4.3883,-18.69536 2.02638,-5.57655 -2.94184,-14.98583 1.39696,-15.44197 -3.63423,-2.88951 2.34546,0.64869 -0.43524,-4.33544 3.82396,-1.81787 -1.30184,-7.13267 5.59057,-7.09341 -4.77404,-7.51298 7.28644,-4.69012 3.06044,-10.75256 -6.32931,-3.21269 11.08275,-14.41974 -1.01694,-12.03358 -3.59216,-0.46385 -14.70958,-3.28728 -18.33421,-3.2428 z m 68.40939,12.56376 c -5.59383,0.81602 -1.0622,2.67093 0,0 z m -106.58159,10.76035 c -3.12399,2.50748 2.53074,1.99329 0,0 z m -0.18025,2.16409 c -2.70677,0.23051 3.60244,2.23275 0,0 z m 116.32001,1.98376 c -0.61191,2.05902 1.53606,0.48789 0,0 z m -33.12265,9.2575 c -1.10899,1.04856 0.89934,0.70854 0,0 z m -75.74326,29.8164 c 0.20716,1.66645 -0.15966,0.54064 0,0 z m 1.3225,0.06 c 0.48713,1.0641 -0.18928,0.14504 0,0 z m 112.7733,2.16409 c -3.79132,1.32402 3.06707,2.71027 0,0 z" />
  <g
     style="stroke:#015a01"
     id="g5899"
     transform="matrix(1.9236383,0,0,1.9236383,215.32622,-72.117835)">
    <path
       inkscape:connector-curvature="0"
       style="fill:#66cc33;stroke:#015a01;stroke-width:1px;stroke-linecap:butt;stroke-linejoin:miter;stroke-opacity:1"
       id="path3355"
       d="m 117.94658,147.91238 c 2.06155,13.14662 -6.64283,16.93198 -10.97083,15.99584" />
    <path
       inkscape:connector-curvature="0"
       style="fill:#66cc33;fill-opacity:1;stroke:#015a01;stroke-opacity:1"
       id="path4593"
       transform="matrix(1.0749732,0,0,1,-156.26261,4.789631)"
       d="m 247.45199,144.66269 a 14.908366,15.412514 0 0 1 -28.86998,1.40915" />
    <path
       inkscape:connector-curvature="0"
       style="fill:#66cc33;fill-opacity:1;stroke:#015a01;stroke-opacity:1"
       id="path4595"
       transform="matrix(0.87876193,0,0,1,-107.75348,4.789631)"
       d="m 254.40494,122.13668 a 13.756029,14.188155 0 0 1 -9.59562,26.55821" />
  </g>
  <path
     inkscape:connector-curvature="0"
     style="fill:url(#linearGradient3922);fill-opacity:1;stroke:#333333;stroke-width:1.431;stroke-miterlimit:4;stroke-opacity:1;stroke-dasharray:none;stroke-dashoffset:0"
     id="path4619"
     d="m 427.41853,204.03162 a 13.577169,11.914657 0 1 1 -20.9031,3.6512" />
  <path
     inkscape:connector-curvature="0"
     style="fill:none;stroke:#015a01;stroke-width:1.73127449;stroke-linecap:butt;stroke-linejoin:miter;stroke-miterlimit:4;stroke-opacity:1;stroke-dasharray:none"
     id="path4564"
     d="m 280.53931,469.64237 c 8.63306,3.93922 25.10504,1.99927 46.41679,-3.57053" />
  <path
     inkscape:connector-curvature="0"
     style="fill:none;stroke:#015a01;stroke-width:1.73127449;stroke-linecap:butt;stroke-linejoin:miter;stroke-miterlimit:4;stroke-opacity:1;stroke-dasharray:none"
     id="path4564-1"
     d="m 257.11665,414.69718 c 8.63305,3.93922 28.89214,5.78638 50.2039,0.2166" />
  <path
     inkscape:connector-curvature="0"
     style="fill:none;stroke:#015a01;stroke-width:1.73127449;stroke-linecap:butt;stroke-linejoin:miter;stroke-miterlimit:4;stroke-opacity:1;stroke-dasharray:none"
     id="path4564-7"
     d="m 241.99065,350.59172 c 12.42019,7.72633 15.90103,10.80179 32.10897,11.81545" />
  <g
     style="opacity:0.45;stroke:#015a01"
     id="g3342"
     transform="matrix(1.9236383,0,0,1.9236383,336.92555,-40.976545)">
    <path
       inkscape:connector-curvature="0"
       style="opacity:0.33000004;fill:#006600;fill-opacity:1;stroke:#015a01"
       id="path3320"
       transform="matrix(0.99454656,-0.56690654,0.6446135,0.87465581,-323.17607,128.30965)"
       d="m 238.75529,154.03174 a 10.902069,13.627585 0 1 1 -21.80413,0 10.902069,13.627585 0 1 1 21.80413,0 z" />
    <path
       inkscape:connector-curvature="0"
       style="opacity:0.33000004;fill:#006600;fill-opacity:1;stroke:#015a01"
       id="path3320-7"
       d="m -2.4673009,124.52045 c -10.3965151,7.8672 3.17398769,25.7937 15.4022339,20.06039 11.488132,-7.46475 -3.2008491,-26.93975 -15.4022339,-20.06039 z" />
  </g>
  <path
     inkscape:connector-curvature="0"
     style="opacity:0.56960006;fill:#015a01;fill-opacity:1;fill-rule:nonzero;stroke:#015a01;stroke-width:1.92363833999999989"
     id="path4211-6"
     d="m 403.27594,150.64361 c -7.69175,0.50109 -14.79305,4.68456 -15.08854,13.5857 0.0687,1.12486 0.23539,2.22932 0.48091,3.30625 -3.31837,-3.52334 -7.43533,-6.31334 -11.36149,-7.81478 -11.24942,-6.31114 -32.09408,-3.90164 -32.64174,12.08285 1.27214,20.20011 29.98429,34.11094 46.28755,21.70105 4.54392,-4.37707 5.4815,-9.50203 4.26807,-14.4874 8.64839,8.68809 23.31023,12.13571 32.94231,4.56864 10.54117,-10.47989 -1.25414,-25.96162 -11.78229,-30.11697 -3.64177,-2.10865 -8.48974,-3.12599 -13.10478,-2.82534 z" />
  <path
     inkscape:connector-curvature="0"
     style="fill:#474747;fill-opacity:1;stroke:#424242;stroke-width:1.92363833999999989;stroke-opacity:1"
     id="rect3395"
     d="m 352.95883,116.33969 c 1.9377,-0.88782 4.2488,0.0369 5.18186,2.07334 0,0 3.18281,13.71326 11.45624,25.00372 2.14526,6.46219 -6.44503,8.71266 -8.76294,4.01503 0,0 -0.96847,-10.61676 -11.45625,-25.00372 -10.48777,-14.38695 0.64827,-4.74461 3.58109,-6.08837 z" />
  <path
     inkscape:connector-curvature="0"
     style="fill:#474747;fill-opacity:1;stroke:#3c3c3c;stroke-width:2.843;stroke-miterlimit:4;stroke-opacity:1;stroke-dasharray:none"
     id="path3415"
     d="m 362.22832,112.62774 a 11.734069,11.734069 0 1 1 -23.46812,0 11.734069,11.734069 0 1 1 23.46812,0 z" />
  <path
     inkscape:connector-curvature="0"
     style="fill:#eeeeee;fill-opacity:1;fill-rule:nonzero;stroke:#015a01;stroke-width:1.92363834"
     id="path4211"
     d="m 392.01034,189.00721 c -3.47927,7.06691 -14.96292,8.53063 -25.64947,3.2693 -10.68652,-5.26134 -16.52919,-15.25534 -13.04992,-22.32224 3.47927,-7.06691 12.92391,-3.3404 25.64945,-3.26928 11.9113,0.0666 16.52919,15.25533 13.04994,22.32222 z" />
  <path
     inkscape:connector-curvature="0"
     style="fill:#eeeeee;fill-opacity:1;fill-rule:nonzero;stroke:#015a01;stroke-width:1.92363834"
     id="path4211-0"
     d="m 428.77136,179.38694 c -2.93215,6.1467 -12.60999,7.4198 -21.61604,2.84358 -9.00605,-4.57622 -13.92993,-13.26885 -10.99781,-19.41555 2.93215,-6.14668 10.38561,-3.71249 21.61604,-2.84358 10.07192,0.77931 13.92995,13.26887 10.99781,19.41555 z" />
  <path
     inkscape:connector-curvature="0"
     style="fill:#212121;fill-opacity:1;fill-rule:nonzero;stroke:url(#linearGradient3078);stroke-width:3.27018523000000005;stroke-miterlimit:4;stroke-dasharray:none"
     id="path4292"
     d="m 386.95343,174.62406 a 6.5536364,6.2914911 0 1 1 -13.10727,0 6.5536364,6.2914911 0 1 1 13.10727,0 z" />
  <path
     inkscape:connector-curvature="0"
     style="opacity:0.16000001;fill:#2f5a01;fill-opacity:1;stroke:#015a01;stroke-width:1.92363834;stroke-opacity:0.45631068"
     id="path4239"
     d="m 420.28198,260.08198 c -66.51853,-0.14389 -41.51993,15.0485 -88.37126,22.3001 -26.99401,12.35457 2.25407,36.02307 -28.24934,57.53089 -12.19127,24.25667 25.42194,32.97458 14.12672,56.98778 1.09415,17.72141 28.21218,17.04355 15.87002,35.1064 0.0766,27.29518 34.6151,32.86196 24.99545,61.1339 5.82239,58.49403 26.55781,115.41894 56.86998,165.60887 24.20891,15.04895 1.40093,44.84222 26.57951,58.25627 -15.41695,16.01693 -2.3081,41.4612 -16.41379,58.69457 -15.85779,27.91473 -52.03321,71.54069 -86.05454,70.19772 -32.50037,6.16263 -62.67185,-8.10115 -85.51402,18.72422 -21.0678,27.15213 26.84897,29.07985 43.94287,22.23148 17.66271,-15.93236 35.21039,-5.87569 56.13455,-3.46174 21.99594,1.56032 46.03142,-3.35419 62.05602,-19.46837 25.6033,0.82289 58.06525,-11.7778 61.13565,-40.69697 25.4576,-6.11258 48.4657,-32.94918 36.24111,-59.63577 7.34191,-17.16422 35.36994,-42.27721 20.02529,-68.40641 16.56614,-22.13856 -13.54413,-40.21933 -11.64584,-57.89011 1.51988,-24.03582 -27.48385,-32.73859 -16.42155,-57.82739 -5.87962,-56.77567 -34.6502,-108.98867 -69.85781,-152.93061 -17.71532,-10.82622 -17.77153,-37.66988 -38.85232,-46.97533 -1.57738,-13.23746 -0.0816,-35.22236 -15.1298,-46.08068 12.84987,-21.03439 -11.48131,-49.55508 20.5814,-57.40371 9.32006,-6.82515 11.7652,-6.15047 17.9517,-15.99511 z" />
  <path
     inkscape:connector-curvature="0"
     style="opacity:0.22000002;fill:#816647;fill-opacity:1;stroke:none"
     id="path3079"
     d="m 364.38841,291.23607 -33.12264,5.22989 c 17.18861,-1.05817 41.41031,10.70164 52.13771,2.14428 2.80799,-7.65179 -14.4179,-4.55069 -19.01507,-7.37417 z m 18.75548,37.45083 c -2.2259,0.22145 -5.15912,0.95307 -5.95126,0.18025 -15.89864,0.46696 -38.75329,1.68874 -50.25505,5.95125 l 31.37935,7.99513 c 9.78541,-5.76419 36.0919,1.65113 26.45003,-11.30138 2.09084,-2.7267 0.60283,-3.04679 -1.62307,-2.82534 z m 15.26888,47.3696 c -23.53043,1.41793 -46.94542,4.23427 -70.51337,5.16977 18.48403,2.73401 36.86593,6.79768 55.60517,3.54671 8.84926,-2.87711 26.72557,3.88269 14.9082,-8.71648 z m 30.41753,42.62061 c -17.60851,2.14095 -22.02782,0.73167 -40.57675,1.08204 -12.17192,-0.34942 -44.69035,0.34774 -44.24368,2.94558 15.71078,2.06989 31.36021,6.10212 47.18925,2.46466 8.7742,-3.20471 54.7561,6.42476 37.63118,-6.49228 z m 27.47196,33.66367 c -30.00582,4.47698 -61.2408,1.05131 -90.411,10.88058 l 33.3631,3.90739 c 16.45128,-8.8604 54.58839,-1.71298 59.6929,-10.94069 z" />
  <path
     inkscape:connector-curvature="0"
     style="opacity:0.22000002;fill:#816647;fill-opacity:1;stroke:none"
     id="path3069"
     d="m 496.99923,602.56491 c -7.13441,-0.10715 -15.75617,1.44461 -21.40048,0.36068 -22.64874,0.0744 -44.36821,7.01974 -66.3054,11.78229 15.16469,0.92271 30.59435,7.2816 45.44595,1.62307 15.95385,-6.58052 41.89217,-5.30249 52.53937,-10.82047 -2.27995,-2.2092 -5.99881,-2.88134 -10.27944,-2.94557 z m 13.52558,44.96505 c -14.17704,-0.29825 -32.49481,2.86743 -43.58243,0.9017 l -33.00242,5.22989 c 31.71955,-0.0489 63.44004,0.025 95.15999,0 -3.03404,-4.52311 -10.0689,-5.95266 -18.57514,-6.13159 z m -6.91307,48.69209 c -4.49576,-0.07 -8.98168,0.18755 -13.52558,1.02193 l -32.52151,8.17547 c 21.5433,-3.54967 43.00989,2.84644 64.56211,-1.20228 11.96193,2.21571 20.65954,-8.78079 3.90739,-6.79285 -7.50081,-0.17505 -14.92948,-1.08572 -22.42241,-1.20227 z m -38.41266,61.55643 -29.57593,7.99512 c 23.84903,2.83629 47.7533,6.21429 71.65552,1.50284 9.74383,-1.57396 4.56666,-13.91887 -3.66693,-5.59057 -12.55215,1.8631 -25.69887,-3.40338 -38.41266,-3.90739 z m -33.06253,63.96097 -33.12265,5.22989 c 26.41927,-2.51498 51.98612,6.29205 78.32815,4.68887 5.41604,-14.8019 -36.34345,-7.57206 -45.2055,-9.91876 z m -38.77333,30.2973 c -10.94501,0.79458 -21.77442,3.1335 -32.64174,4.8091 19.65962,-1.44244 39.97351,13.75451 57.40858,7.57433 8.56304,0.63037 33.32913,-2.7394 11.8424,-4.92933 -12.14866,-2.62267 -23.99477,-7.70763 -36.60924,-7.4541 z" />
  <path
     inkscape:connector-curvature="0"
     style="fill:#ffff99;fill-opacity:1;fill-rule:nonzero;stroke:#816647;stroke-width:2.5007298;stroke-miterlimit:4;stroke-dasharray:none"
     id="path4248"
     d="m 304.44965,326.15582 c -10.88614,1.9668 -8.39957,22.05191 3.0657,22.30189 8.46546,2.32518 15.6323,3.84512 26.3421,0.93191 11.16387,-8.74069 -4.137,-14.97383 -12.45293,-12.71429 -16.1564,1.40216 -6.88562,-8.03417 -16.95487,-10.51951 z m 5.95126,53.08039 c -15.56449,5.84305 -1.74324,25.35746 11.60175,21.82108 10.83272,0.87303 16.4432,-4.82333 22.4225,-7.51402 13.36608,-13.21322 -9.20083,-14.90442 -16.95196,-6.01146 -12.51431,4.09681 -8.06041,-5.89851 -17.07229,-8.2956 z m 50.73596,40.87732 c -10.27833,-0.31204 -16.71888,10.5156 -26.51005,10.099 -15.41305,-2.71435 -11.50912,17.88064 2.1641,13.28513 10.43264,1.73853 13.94132,-8.46486 23.92515,-9.31753 8.07561,-0.63032 9.60023,-13.52893 0.4208,-14.0666 z m 19.71729,50.9163 c -7.23744,2.81665 -15.73919,11.5989 -24.04529,7.21345 -17.48264,-12.76961 -11.24853,18.60778 -0.9017,14.12662 9.02811,2.15204 20.78734,-3.38887 25.42819,-6.79294 3.64643,0.5125 11.82587,-13.30025 -0.4812,-14.54713 z m -4.62875,17.37286 c -1.7574,1.06365 1.6989,-0.60931 0,0 z m 48.63198,150.16401 c -16.23491,5.22059 1.89538,25.31664 13.46537,25.06713 10.31792,0.82553 21.68379,0.34623 28.73416,-8.17556 9.24856,-23.35761 -30.96993,7.12212 -37.19571,-14.12695 l -1.45123,-1.51531 -3.5525,-1.2495 z m 7.33387,67.02678 c -12.78552,3.27938 -2.84093,22.21871 3.72676,28.43349 9.87275,6.70634 22.12184,6.79383 33.61575,5.38013 11.17449,-8.71484 -4.14867,-14.98934 -12.45292,-12.71429 -8.00028,1.0293 -16.7623,-3.31106 -17.25496,-12.14268 -1.53025,-3.68356 -2.4803,-8.88196 -7.63463,-8.95665 z m 12.86433,32.82208 -0.60114,-0.30057 z m -60.35415,65.34359 c -11.48191,3.65818 -6.54072,21.41623 -0.12042,28.37347 4.48485,5.22077 7.87283,12.22722 12.20269,15.20848 5.71577,3.35461 9.67094,8.45333 16.77598,5.41583 9.55604,-6.92943 -8.19886,-14.99759 -5.83519,-13.89187 -5.88477,-2.69015 -9.88569,-12.65505 -15.02804,-18.03391 -3.52456,-5.6389 2.14086,-16.51802 -7.99502,-17.072 z m 11.96262,43.4622 c -2.05469,-2.26382 -0.50695,-0.13639 0,0 z m -91.3127,-6.31194 c -10.66115,4.69104 -10.69332,19.05814 -10.21914,29.21235 -1.48863,10.10607 2.83862,20.30824 12.80403,24.048 16.49519,8.53794 9.81494,-16.67602 2.10398,-14.42729 -4.50003,-4.5727 0.28154,-13.54537 -1.62269,-19.35632 -0.47777,-6.55047 10.803,-17.50524 -3.06618,-19.47674 z m -75.62303,3.24614 c -8.97899,2.72347 -15.86267,14.02128 -15.50895,26.02894 -2.00872,9.59303 3.41761,22.02716 10.39957,23.86504 15.63387,10.55585 16.94877,-11.2738 2.88536,-14.66793 -0.47929,-9.20805 -0.56797,-19.47364 8.13934,-25.04677 3.09013,-4.21131 -0.79895,-10.66646 -5.91532,-10.17928 z m 172.16563,6.37205 c 0.43358,0.0194 0.0323,0.14581 0,0 z m -92.81555,5.59058 c 0.28585,-0.0587 -0.47684,0.46032 0,0 z" />
  <path
     inkscape:connector-curvature="0"
     style="fill:#474747;fill-opacity:1;stroke:#424242;stroke-width:1.92363833999999989;stroke-opacity:1"
     id="rect3395-8"
     d="m 403.4301,108.32546 c 2.10378,0.3421 3.50796,2.39748 3.14845,4.60843 0,0 -4.99578,13.16154 -4.41428,27.14674 -1.81823,6.56173 -10.20589,3.64543 -9.51403,-1.54704 0,0 5.10982,-9.35646 4.41433,-27.14674 -0.69553,-17.790289 3.18135,-3.57918 6.36553,-3.06139 z" />
  <path
     inkscape:connector-curvature="0"
     style="fill:#474747;fill-opacity:1;stroke:#3c3c3c;stroke-width:2.843;stroke-miterlimit:4;stroke-opacity:1;stroke-dasharray:none"
     id="path3415-7"
     d="M 413.19592,110.40638 A 11.734068,11.734068 0 1 1 393.70621,97.333349 11.734068,11.734068 0 1 1 413.19592,110.40638 z" />
  <path
     inkscape:connector-curvature="0"
     style="fill:#212121;fill-opacity:1;fill-rule:nonzero;stroke:url(#linearGradient3069);stroke-width:3.27018523000000005;stroke-miterlimit:4;stroke-dasharray:none"
     id="path4292-3"
     d="m 415.22687,166.89824 a 6.5536364,6.2914911 0 1 1 -13.10727,0 6.5536364,6.2914911 0 1 1 13.10727,0 z" />
</svg>
