<?xml version="1.0" encoding="utf-8"?>
<!-- Generator: Adobe Illustrator 19.0.0, SVG Export Plug-In . SVG Version: 6.00 Build 0)  -->
<svg version="1.1" id="Layer_1" xmlns="http://www.w3.org/2000/svg" xmlns:xlink="http://www.w3.org/1999/xlink" x="0px" y="0px"
	 viewBox="0 0 100 100" style="enable-background:new 0 0 100 100;" xml:space="preserve">
<path id="XMLID_17_" style="fill:#231F20;" d="M80.4,97.2H19.4c-8.8,0-16-7.2-16-16V19c0-8.8,7.2-16,16-16h61.1c8.8,0,16,7.2,16,15.4v62.1
	C96.4,90,89.3,97.2,80.4,97.2z"/>
<circle id="XMLID_16_" style="fill:#FCC215;" cx="77.9" cy="29.5" r="8.9"/>
<circle id="XMLID_15_" style="fill:#FCC215;" cx="65.2" cy="51" r="8.9"/>
<circle id="XMLID_14_" style="fill:#FCC215;" cx="52.6" cy="72.5" r="8.9"/>
<path id="XMLID_13_" style="fill:#FFFFFF;" d="M52.3,59.2H51c-0.6,0-1-0.4-1-1V42.8c0-0.6,0.4-1,1-1h1.3c0.6,0,1,0.4,1,1v15.3
	C53.3,58.7,52.9,59.2,52.3,59.2z"/>
<path id="XMLID_3_" style="fill:#FFFFFF;" d="M91.3,41.7L91.3,41.7c-1,0-1.7,0.7-1.7,1.6v9.9l-8.3-10.7c0,0,0,0,0,0c-0.1-0.1-0.2-0.2-0.4-0.3
	c0,0-0.1-0.1-0.1-0.1c-0.1-0.1-0.2-0.1-0.4-0.1c-0.1,0-0.2,0-0.3-0.1c0,0-0.1,0-0.1,0h-0.1c-0.1,0-0.2,0-0.2,0c0,0-0.1,0-0.1,0
	c-0.6,0.2-1.1,0.6-1.2,1.3c0,0.1,0,0.1,0,0.2c0,0,0,0.1,0,0.1v14.1c0,0.9,0.7,1.6,1.6,1.6h0.1c0.9,0,1.6-0.7,1.6-1.6v-9.2l8.2,10.6
	c0.2,0.2,0.4,0.4,0.7,0.5c0,0,0.1,0,0.1,0c0.1,0,0.3,0.1,0.4,0.1c0,0,0.1,0,0.1,0h0.1c0.1,0,0.2,0,0.3-0.1c0,0,0,0,0,0
	c0.7-0.1,1.3-0.8,1.3-1.5V43.3C92.9,42.4,92.2,41.7,91.3,41.7z"/>
<path id="XMLID_9_" style="fill:#FFFFFF;" d="M19.8,33.3c-7,0-12.6,6.1-12.6,13.7s5.6,13.7,12.6,13.7S32.3,54.5,32.3,47S26.7,33.3,19.8,33.3z
	 M19.8,57.9C14.2,57.9,9.7,53,9.7,47S14.2,36,19.8,36S29.8,40.9,29.8,47S25.3,57.9,19.8,57.9z"/>
<path id="XMLID_8_" style="fill:#FFFFFF;" d="M45.5,47.5v-0.9c0-2.6-2.2-4.8-4.8-4.8h-0.4h-3.5h-0.1c-0.9,0-1.6,0.7-1.6,1.6v14.1
	c0,0.9,0.7,1.6,1.6,1.6h0.1c0.9,0,1.6-0.7,1.6-1.6v-4.1l3.8,5.1c0.5,0.7,1.5,0.8,2.2,0.3l0.1-0.1c0.7-0.5,0.8-1.5,0.3-2.2l-3.2-4.3
	C43.9,51.8,45.5,49.9,45.5,47.5z M42.9,47.1c0,1.4-1.1,2.5-2.5,2.5h-1.9v0v-5.2h1.9C41.7,44.4,42.9,45.7,42.9,47.1L42.9,47.1z"/>
</svg>
