<svg xmlns="http://www.w3.org/2000/svg" width="512" height="512" viewBox="0 0 52.639357 52.6336" preserveAspectRatio="xMidYMid"><path fill="#DA4E31" stroke-width=".206" d="M26.32-.002C11.784-.002 0 11.78 0 26.318c0 14.535 11.784 26.318 26.32 26.318 14.535 0 26.32-11.783 26.32-26.32C52.64 11.782 40.854 0 26.32 0zm0 49.26c-4.136 0-7.49-2.763-7.49-6.17h14.98c0 3.406-3.352 6.17-7.488 6.17zm12.37-8.213H13.95v-4.487h24.74v4.486zm-.09-6.795H14.02c-.08-.094-.165-.187-.244-.283-2.532-3.075-3.13-4.68-3.708-6.316-.01-.052 3.07.63 5.255 1.123 0 0 1.124.26 2.767.56-1.577-1.85-2.514-4.2-2.514-6.604 0-5.277 4.046-9.887 2.586-13.614 1.42.116 2.94 3 3.044 7.506 1.51-2.086 2.142-5.898 2.142-8.235 0-2.42 1.595-5.23 3.19-5.327-1.422 2.343.368 4.352 1.96 9.335.596 1.872.52 5.022.98 7.02.154-4.15.867-10.203 3.5-12.293-1.162 2.632.17 5.926 1.083 7.51 1.473 2.553 2.364 4.49 2.364 8.15 0 2.454-.906 4.764-2.434 6.57 1.737-.326 2.937-.62 2.937-.62l5.644-1.1c.003 0-.82 3.372-3.97 6.62z"/></svg>