<?xml version="1.0" encoding="utf-8"?>
<!-- Generator: Adobe Illustrator 17.1.0, SVG Export Plug-In . SVG Version: 6.00 Build 0)  -->
<!DOCTYPE svg PUBLIC "-//W3C//DTD SVG 1.1//EN" "http://www.w3.org/Graphics/SVG/1.1/DTD/svg11.dtd">
<svg version="1.1" id="Layer_1" xmlns="http://www.w3.org/2000/svg" xmlns:xlink="http://www.w3.org/1999/xlink" x="0px" y="0px"
	 viewBox="0 0 100 100" enable-background="new 0 0 100 100" xml:space="preserve">
<g id="Calque_1" transform="matrix(4.16667,0,0,4.16667,-198.749,-374.543)">
	<path fill="#070707" d="M60.3,103.4c-0.4,0.3-0.9,0.2-1.2-0.2s-0.2-0.9,0.2-1.2c0.4-0.3,0.9-0.2,1.2,0.2
		C60.8,102.6,60.7,103.1,60.3,103.4 M60.8,102c-0.4-0.6-1.1-0.7-1.7-0.3c-0.6,0.4-0.7,1.1-0.3,1.7c0.3,0.5,1,0.7,1.5,0.4l0.5,0.8
		l0.4-0.3l-0.5-0.8C61.1,103.1,61.2,102.5,60.8,102"/>
	<path fill="#499CD2" d="M70.8,103.8h-0.3c0-2.3-1.9-4.2-4.3-4.2v-0.3C68.7,99.3,70.8,101.3,70.8,103.8"/>
	<path fill="#489CD2" d="M71,102.2c-0.3-1.5-1.5-2.7-3-3.1l0.1-0.2c1.6,0.5,2.8,1.7,3.2,3.3L71,102.2z"/>
	<path fill="#489CD2" d="M71.3,100.9c-0.4-0.8-1-1.5-1.7-1.9l0.1-0.2c0.8,0.5,1.4,1.2,1.8,2L71.3,100.9z"/>
	<g transform="matrix(0.24,0,0,0.24,7.44816,-9.11175)">
		<path fill="#070707" d="M168.6,469.9c0.7,0.4,1.8,0.7,3.1,0.7c2.7,0,4.1-1.3,4.1-3.1c0-1.4-0.8-2.3-2.6-2.9
			c-1.2-0.4-1.5-0.6-1.5-1.1c0-0.5,0.4-0.8,1.1-0.8c0.8,0,1.6,0.3,2.1,0.5l0.5-2c-0.6-0.3-1.6-0.6-2.7-0.6c-2.4,0-3.9,1.4-3.9,3.2
			c0,1.1,0.7,2.2,2.7,2.9c1.1,0.4,1.4,0.6,1.4,1.1s-0.4,0.8-1.3,0.8c-0.9,0-2-0.4-2.6-0.7L168.6,469.9z"/>
		<path fill="#070707" d="M181.1,470.6c2.5,0,5-1.6,5-5.1c0-2.9-2-4.9-4.9-4.9c-3.1,0-5.1,2-5.1,5.1
			C176.2,468.8,178.3,470.6,181.1,470.6L181.1,470.6z M181.2,468.5c-1.3,0-1.9-1.2-1.9-2.9c0-1.4,0.5-2.9,2-2.9
			c1.4,0,1.9,1.5,1.9,2.9C183.1,467.3,182.4,468.5,181.2,468.5L181.2,468.5z"/>
		<path fill="#070707" d="M187,470.4h3v-5.5c0-0.3,0-0.5,0.1-0.7c0.2-0.5,0.7-1.1,1.5-1.1c1.1,0,1.5,0.8,1.5,2.1v5.3h3v-5.7
			c0-2.8-1.5-4.1-3.4-4.1c-1.6,0-2.6,0.9-3,1.5h-0.1l-0.1-1.3H187c0,0.9,0.1,1.9,0.1,3.1V470.4z"/>
		<path fill="#070707" d="M205.5,464.7c0-2.3-1-4.1-4.2-4.1c-1.7,0-3.1,0.5-3.7,0.9l0.5,1.9c0.6-0.4,1.7-0.7,2.6-0.7
			c1.5,0,1.7,0.7,1.7,1.2v0.1c-3.4,0-5.6,1.2-5.6,3.7c0,1.5,1.2,2.9,3.1,2.9c1.1,0,2.1-0.4,2.7-1.2h0.1l0.2,1h2.7
			c-0.1-0.5-0.2-1.4-0.2-2.3V464.7z M202.7,466.9c0,0.2,0,0.4-0.1,0.5c-0.2,0.6-0.8,1.1-1.5,1.1c-0.7,0-1.2-0.4-1.2-1.1
			c0-1.1,1.2-1.5,2.8-1.5V466.9z"/>
		<path fill="#070707" d="M206.9,470.4h3v-4.8c0-0.3,0-0.5,0.1-0.7c0.2-0.9,0.9-1.5,2-1.5c0.3,0,0.6,0,0.8,0.1v-2.8
			c-0.2,0-0.4-0.1-0.6-0.1c-0.9,0-2.1,0.6-2.6,2h-0.1l-0.1-1.8h-2.5c0.1,0.8,0.1,1.7,0.1,3.2V470.4z"/>
	</g>
	<g transform="matrix(0.24,0,0,0.24,-2.94141,5.65668)">
		<path fill="#070707" d="M275.6,399.4h-1.7v5.8c0,0.3-0.1,0.6-0.2,0.9c-0.3,0.8-1.1,1.6-2.3,1.6c-1.5,0-2.1-1.2-2.1-3v-5.2h-1.7
			v5.5c0,3.3,1.8,4.2,3.3,4.2c1.7,0,2.7-1,3.1-1.8h0l0.1,1.5h1.5c-0.1-0.7-0.1-1.6-0.1-2.6V399.4z"/>
		<path fill="#070707" d="M277.4,406.5c0,0.8,0,1.8-0.1,2.5h1.5l0.1-1.6h0c0.7,1.3,1.8,1.8,3.2,1.8c2.1,0,4.3-1.7,4.3-5.1
			c0-2.9-1.6-4.8-4-4.8c-1.5,0-2.6,0.7-3.2,1.7h0V395h-1.7V406.5z M279.2,403.4c0-0.3,0-0.5,0.1-0.7c0.3-1.3,1.4-2.1,2.6-2.1
			c1.8,0,2.8,1.6,2.8,3.5c0,2.2-1.1,3.6-2.9,3.6c-1.2,0-2.3-0.8-2.6-2c0-0.2-0.1-0.4-0.1-0.6V403.4z"/>
		<path fill="#070707" d="M295.2,404.5c0-0.2,0.1-0.5,0.1-0.8c0-1.7-0.8-4.5-3.9-4.5c-2.8,0-4.5,2.3-4.5,5.1c0,2.8,1.8,4.8,4.7,4.8
			c1.5,0,2.6-0.3,3.2-0.6l-0.3-1.2c-0.6,0.3-1.4,0.5-2.6,0.5c-1.7,0-3.2-1-3.2-3.3H295.2z M288.6,403.2c0.1-1.2,0.9-2.8,2.6-2.8
			c1.9,0,2.4,1.7,2.4,2.8H288.6z"/>
	</g>
</g>
</svg>
