<?xml version="1.0" encoding="UTF-8"?>
<!DOCTYPE svg PUBLIC "-//W3C//DTD SVG 1.1//EN" "http://www.w3.org/Graphics/SVG/1.1/DTD/svg11.dtd">
<svg version="1.1" xmlns="http://www.w3.org/2000/svg" xmlns:xlink="http://www.w3.org/1999/xlink" width="327" height="327"  xml:space="preserve" id="swift">
    <!-- Generated by PaintCode - http://www.paintcodeapp.com -->
    <g id="swift-swiftIllustration">
        <path id="swift-bezier15" stroke="none" fill="rgb(233, 57, 43)" d="M 327.1,81.25 C 327.1,74.31 326.41,66.67 325.02,59.73 323.63,52.78 321.54,45.84 318.07,38.89 314.6,32.64 310.43,26.39 305.57,21.53 300.71,16.67 294.46,11.81 288.21,9.03 281.96,5.56 275.01,3.47 268.07,2.08 261.12,0.69 253.49,0.69 246.54,-0 L 236.82,0 225.01,0 138.2,0 102.09,0 90.28,0 80.56,0 75,0 C 69.45,0 63.89,0.69 59.03,1.39 53.47,2.08 48.61,3.47 43.75,5.56 42.36,6.25 40.28,6.94 38.89,7.64 34.03,10.42 29.86,13.2 25.7,16.67 24.31,18.06 22.92,18.75 21.53,20.14 16.67,25 11.81,31.25 9.03,37.5 5.56,43.75 3.47,50.7 2.08,58.34 0.69,65.28 0.69,72.92 0,79.87 L 0,89.59 0,101.39 0,154.87 0,224.32 0,236.12 0,245.85 C 0,252.79 0.69,260.43 2.08,267.37 3.47,274.32 5.56,281.26 9.03,288.21 12.5,294.46 16.67,300.71 21.53,305.57 26.39,310.43 32.64,315.29 38.89,318.07 45.14,321.54 52.09,323.63 59.03,325.02 65.98,326.41 73.61,326.41 80.56,327.1 L 90.28,327.1 102.09,327.1 225.01,327.1 236.82,327.1 246.54,327.1 C 253.49,327.1 261.12,326.41 268.07,325.02 275.01,323.63 281.96,321.54 288.21,318.07 294.46,314.6 300.71,310.43 305.57,305.57 310.43,300.71 315.29,294.46 318.07,288.21 321.54,281.96 323.63,275.01 325.02,267.37 326.41,260.43 326.41,252.79 327.1,245.85 L 327.1,236.12 327.1,224.32 327.1,101.39 327.1,90.98 327.1,81.25 Z M 327.1,81.25" />
        <path id="swift-bezier16" stroke="none" fill="rgb(254, 254, 254)" d="M 218.57,252.89 C 189.42,269.73 149.35,271.46 109.03,254.18 76.39,240.29 49.31,215.98 31.95,188.2 40.28,195.15 50,200.7 60.42,205.57 102.05,225.08 143.68,223.75 172.97,205.61 172.95,205.6 172.94,205.58 172.93,205.57 131.26,173.62 95.84,131.95 69.45,97.92 63.89,92.37 59.73,85.42 55.56,79.17 87.5,108.34 138.2,145.15 156.26,155.56 118.06,115.28 84.03,65.28 85.42,66.67 145.84,127.78 202.09,162.51 202.09,162.51 203.96,163.56 205.39,164.43 206.55,165.21 207.77,162.11 208.83,158.9 209.73,155.56 219.46,120.15 208.34,79.87 184.04,46.53 240.29,80.56 273.63,144.45 259.74,197.93 259.37,199.37 258.98,200.79 258.55,202.19 258.71,202.39 258.87,202.59 259.04,202.79 286.82,237.51 279.18,274.32 275.71,267.37 260.64,237.89 232.74,246.91 218.57,252.89 Z M 218.57,252.89" />
    </g>
</svg>
