<?xml version="1.0" encoding="UTF-8" standalone="no"?>
<!-- Created with Inkscape (http://www.inkscape.org/) -->

<svg
   xmlns:dc="http://purl.org/dc/elements/1.1/"
   xmlns:cc="http://creativecommons.org/ns#"
   xmlns:rdf="http://www.w3.org/1999/02/22-rdf-syntax-ns#"
   xmlns:svg="http://www.w3.org/2000/svg"
   xmlns="http://www.w3.org/2000/svg"
   xmlns:sodipodi="http://sodipodi.sourceforge.net/DTD/sodipodi-0.dtd"
   xmlns:inkscape="http://www.inkscape.org/namespaces/inkscape"
   width="180.62219mm"
   height="180.62233mm"
   viewBox="0 0 180.62219 180.62233"
   version="1.1"
   id="svg8"
   inkscape:version="0.92.3 (2405546, 2018-03-11)"
   sodipodi:docname="wallaby,svg.svg">
  <sodipodi:namedview
     id="base"
     pagecolor="#ffffff"
     bordercolor="#666666"
     borderopacity="1.0"
     inkscape:pageopacity="0.0"
     inkscape:pageshadow="2"
     inkscape:zoom="0.35"
     inkscape:cx="387.04755"
     inkscape:cy="164.19068"
     inkscape:document-units="mm"
     inkscape:current-layer="g3745"
     showgrid="false"
     fit-margin-top="0"
     fit-margin-left="0"
     fit-margin-right="0"
     fit-margin-bottom="0"
     inkscape:window-width="1920"
     inkscape:window-height="1017"
     inkscape:window-x="-8"
     inkscape:window-y="-8"
     inkscape:window-maximized="1" />
  <defs
     id="defs2" />
  <metadata
     id="metadata5">
    <rdf:RDF>
      <cc:Work
         rdf:about="">
        <dc:format>image/svg+xml</dc:format>
        <dc:type
           rdf:resource="http://purl.org/dc/dcmitype/StillImage" />
        <dc:title></dc:title>
      </cc:Work>
    </rdf:RDF>
  </metadata>
  <g
     transform="translate(-3.4270025,-11.653125)"
     id="layer1"
     inkscape:groupmode="layer"
     inkscape:label="Ebene 1">
    <g
       transform="matrix(-0.35277771,0,0,0.35277771,184.04919,11.653125)"
       id="g3745">
      <path
         style="fill:#41d97c;opacity:1"
         inkscape:connector-curvature="0"
         d="m 256,279.69531 c 0,0 80.86719,66.1836 119.5,146.19141 25.30078,52.39844 106.33594,67.53906 129.97266,70.89062 3.74218,0.53125 6.52734,3.71485 6.52734,7.47657 0,4.07031 -3.23438,7.40234 -7.32031,7.54687 -26.65235,0.93359 -119.01172,0.53516 -158.02344,-47.01172 -45.84375,-55.86719 -60.26563,-80.46875 -102.50391,-88.15625 z m 0,0"
         id="path3713" />
      <path
         style="fill:#41d97c;opacity:1"
         inkscape:connector-curvature="0"
         d="m 162.20703,323.03125 c -17.85937,0 -36.86719,21.42969 -36.86719,51.30469 0,45.07422 28.95313,38.45703 32.05078,63.86718 3.09766,25.41407 -0.55468,50.84375 -18.94921,46.1836 C 112.6875,477.85937 92.039062,496.24219 93.574219,512 h 65.191401 c 44.53907,0 48.08204,-188.96875 3.44141,-188.96875 z m 0,0"
         id="path3715" />
      <path
         style="fill:#2daf60;opacity:1"
         inkscape:connector-curvature="0"
         d="M 83.125,74.90625 110.61328,60.640625 94.253906,29.121094 C 87.835938,16.757812 72.609375,11.933594 60.242188,18.351562 L 58.0625,19.484375 c -1.613281,0.835937 -2.238281,2.820313 -1.402344,4.429687 z m 0,0"
         id="path3717" />
      <path
         style="fill:#57df8a;opacity:1"
         inkscape:connector-curvature="0"
         d="m 0,88.195312 v 12.019528 c 0,7.2461 5.894531,13.125 13.164062,13.125 h 38.246094 c 10.035156,0 18.195313,17.07032 18.246094,27.07422 l 0.652344,119.00391 c 0.390625,71.24219 47.132816,132.78906 118.554686,132.78906 h 74.81641 c 12.54297,0 22.71093,-10.14062 22.71093,-22.64844 v -27.64453 c 0,-64.00781 -95.36328,-108.99219 -111.88281,-148.11328 C 157.98828,154.68359 131.67187,67.980469 131.67187,46.566406 V 18.871094 c 0,-5.21875 -2.11718,-9.933594 -5.53515,-13.34375 C 122.71094,2.109375 112.15234,0 106.92969,0 c -3.44141,0 -6.22656,2.777344 -6.22656,6.207031 v 43.507813 l -21.816411,-0.02344 c -10.425781,0 -11.792969,4.722656 -24.410157,15.371094 C 41.859375,75.710938 6.09375,82.121094 6.09375,82.121094 2.726562,82.121094 0,84.839844 0,88.195312 Z m 0,0"
         id="path3719" />
      <g
         style="fill:#41d97c;opacity:1"
         id="g3727">
        <path
           inkscape:connector-curvature="0"
           d="M 174.50781,193.80078 C 157.99219,154.67969 131.67187,67.980469 131.67187,46.566406 V 18.871094 c 0,-5.21875 -2.11718,-9.933594 -5.53515,-13.34375 C 122.71094,2.109375 112.15234,0 106.92969,0 c -3.44141,0 -6.22656,2.777344 -6.22656,6.207031 v 40.359375 c 0,21.414063 26.3164,108.113284 42.83593,147.234374 16.51953,39.12109 111.88281,84.10547 111.88281,148.11328 v 27.64453 c 0,12.50782 -10.16796,22.64844 -22.71484,22.64844 h 30.97266 c 12.54297,0 22.71093,-10.14062 22.71093,-22.64844 v -27.64453 c 0,-64.00781 -95.36328,-108.99219 -111.88281,-148.11328 z m 0,0"
           id="path3721" />
        <path
           inkscape:connector-curvature="0"
           d="m 222.91016,323.03125 c -17.85547,0 -36.86329,21.42969 -36.86329,51.30469 0,45.07422 28.95313,38.45703 32.05079,63.86718 3.09765,25.41407 -0.55469,50.84375 -18.94922,46.1836 C 173.39453,477.85937 152.74609,496.24219 154.28125,512 h 65.1875 c 44.54297,0 48.08594,-188.96875 3.44141,-188.96875 z m 0,0"
           id="path3723" />
        <path
           inkscape:connector-curvature="0"
           d="m 87.480469,233.54687 c 0,0 -45.136719,56.22266 -39.75,81.78125 5.390625,25.5586 23.804687,19.48829 26.5,7.50782 2.695312,-11.98047 2.703125,-31.76172 26.726561,-47.02735 24.02344,-15.26953 6.95703,-68.9375 -13.476561,-42.26172 z m 0,0"
           id="path3725" />
      </g>
    </g>
  </g>
</svg>
